<svg width="340" height="134" fill="none" xmlns="http://www.w3.org/2000/svg"><path fill-rule="evenodd" clip-rule="evenodd" d="M14.729 112.604a.42.42 0 00.108.828l45.536-.943a2 2 0 012.037 2.12l-.881 14.654a2 2 0 001.996 2.121H91.92a2 2 0 001.998-2.091l-.658-14.59a2 2 0 012.153-2.084l8.406.654a1.999 1.999 0 002.155-1.994V92.981a2 2 0 00-2.472-1.943L14.73 112.604zm102.725-24.956a1.956 1.956 0 00-1.5 2.083c.443 4.538 1.39 9.213 2.84 14.026 2.089 6.836 5.696 12.769 10.823 17.801 8.164 7.974 18.56 11.962 31.186 11.962 12.627 0 23.022-3.988 31.186-11.962 5.127-5.032 8.734-10.965 10.823-17.801 2.089-6.93 3.133-13.575 3.133-19.936 0-4.893-.637-9.96-1.91-15.2-.257-1.054-1.326-1.684-2.38-1.428l-27.748 6.74c-1.069.26-1.722 1.335-1.539 2.42.36 2.13.539 4.476.539 7.04 0 8.64-2.041 14.763-6.123 18.371-1.899 1.614-3.892 2.421-5.981 2.421-2.373 0-4.414-.807-6.123-2.421-4.082-3.703-6.124-9.826-6.124-18.37 0-.202.002-.401.004-.6.015-1.352-1.234-2.403-2.548-2.084l-28.558 6.938zM243.445 57.04c-.452.11-.852.375-1.131.748l-22.526 30.2a1.998 1.998 0 00-.397 1.196v22.215c0 1.121.921 2.023 2.041 1.999l43.923-.909a2 2 0 012.038 2.12l-.882 14.654a2.001 2.001 0 001.997 2.121h28.394a2 2 0 001.998-2.091l-.658-14.59a2 2 0 012.153-2.084l8.406.654a2 2 0 002.155-1.994V88.817a2 2 0 00-2.142-1.995l-7.677.548a2 2 0 01-2.143-1.995V46.09a2 2 0 00-2.472-1.943L243.445 57.04zm24.221 28.483a2 2 0 01-2 2h-6.687c-2.52 0-4.998.299-7.432.896a.473.473 0 01-.408-.831c1.162-.958 2.446-2.403 3.853-4.337l8.971-11.534c1.723-2.24 3.056-4.285 3.997-6.135a.55.55 0 01.794-.213.545.545 0 01.217.61c-.87 2.886-1.305 5.51-1.305 7.874v11.67z" fill="#BABDFF"/><path fill-rule="evenodd" clip-rule="evenodd" d="M101.298 86.116c.048 1.232 1.224 2.083 2.421 1.793l29.073-7.063c.855-.208 1.468-.95 1.55-1.826.597-6.382 2.573-11.094 5.93-14.139 1.708-1.614 3.75-2.42 6.123-2.42 2.089 0 4.082.806 5.981 2.42 2.16 1.96 3.748 4.61 4.766 7.95.326 1.072 1.41 1.757 2.498 1.492l27.625-6.71c1.089-.265 1.75-1.373 1.436-2.449-.097-.33-.196-.662-.297-.995-2.089-6.93-5.696-12.91-10.823-17.942-8.164-7.975-18.56-11.962-31.186-11.962-12.626 0-23.022 3.987-31.186 11.962-5.127 5.031-8.734 11.012-10.823 17.942-2.089 6.836-3.133 13.386-3.133 19.652 0 .761.015 1.526.045 2.295zm-9.733 3.173a2 2 0 01-1.528 1.943L2.472 112.505A2 2 0 010 110.562V89.184a2 2 0 01.397-1.196l37.88-50.783a2 2 0 011.602-.804h37.724a2 2 0 012 2v46.974a2 2 0 002.143 1.995l7.677-.548a2 2 0 012.142 1.995v.472zm204.878 24.144a.098.098 0 01-.09-.097V86.774c0-.052.04-.094.091-.097a.097.097 0 01.104.097v26.562a.098.098 0 01-.105.097zm-11.857-71.036a2 2 0 01-1.528 1.943l-49.713 12.077c-1.821.443-3.195-1.637-2.075-3.139l11.989-16.073a2 2 0 011.603-.804h37.724a2 2 0 012 2v3.996zM39.588 87.523h6.687a2 2 0 002-2v-11.67c0-2.363.435-4.988 1.305-7.873a.544.544 0 00-1.011-.398c-.941 1.85-2.274 3.894-3.997 6.135L35.601 83.25c-1.407 1.934-2.69 3.38-3.853 4.337a.474.474 0 00.408.832 31.081 31.081 0 017.432-.897z" fill="#BABDFF"/><path d="M297.3 2.46l-3.913 12.858c-.499 1.637 1.157 3.104 2.722 2.411l14.535-6.429c1.479-.654 1.61-2.702.226-3.54l-10.621-6.428A2 2 0 00297.3 2.46zm28.363 56.612l-5.693-6.603c-1.117-1.296-.196-3.306 1.515-3.306h8.652a2 2 0 011.825 2.818l-2.96 6.603a2 2 0 01-3.339.488zm8.142-42.022l-1.499 2.192a2 2 0 001.166 3.07l2.306.577c1.498.374 2.838-1.018 2.405-2.5l-.807-2.769c-.473-1.62-2.617-1.963-3.571-.57z" fill="#BABDFF"/></svg>