<svg width="16" height="16" fill="none" xmlns="http://www.w3.org/2000/svg"><path fill="#fff" d="M0 0h16v16H0z"/><path d="M14.213 10.494a2.31 2.31 0 01-.88-.661.625.625 0 00-.979.778c.324.406.7.676.986.842-.048.27-.149.57-.326.826-.278.401-.672.596-1.202.596H4.188c-.967 0-1.398-.81-1.523-1.425.185-.107.406-.256.628-.455a3.19 3.19 0 001.082-2.432V6.374c0-1.972 1.599-3.598 3.564-3.625h.03a.63.63 0 00.049-.002l.043.002c1.982.027 3.595 1.653 3.595 3.625v.875a.625.625 0 001.25 0v-.875c0-2.479-1.892-4.55-4.312-4.84v-.91a.625.625 0 10-1.25 0v.918a4.827 4.827 0 00-2.816 1.411 4.851 4.851 0 00-1.403 3.421v2.188c0 1.395-1.257 1.9-1.339 1.93a.614.614 0 00-.411.588c0 .656.234 1.373.625 1.919a2.63 2.63 0 002.188 1.125h1.937C6.125 15.159 6.966 16 8 16a1.877 1.877 0 001.875-1.875h1.937c1.192 0 1.87-.617 2.229-1.134.527-.76.584-1.589.584-1.91 0-.266-.16-.5-.412-.587zM8 14.75a.626.626 0 01-.625-.625h1.25c0 .345-.28.625-.625.625z" fill="#4C51CC"/></svg>