<svg version="1.1" id="Слой_1" xmlns="http://www.w3.org/2000/svg" x="0" y="0" viewBox="0 0 339.3 57.4" xml:space="preserve"><style>.st0{fill:#333840}</style><path class="st0" d="M204.8 11.7h-4.3l-1 2.6h-1.7l3.8-9.7h2l3.8 9.7h-1.7l-.9-2.6zm-.6-1.5l-1.6-4.1-1.6 4.1h3.2zm10.6-4.1h-4.4v8.2h-1.6V4.6h6v1.5zm3.1 0v2.5h4.4v1.5h-4.4v2.8h4.8v1.5h-6.4V4.6h6.4v1.5h-4.8zm14.2-1.5v9.7h-1.6V10h-5v4.3h-1.6V4.6h1.6v4h5v-4h1.6zm8.8 1.5h-3v8.2h-1.6V6.1h-3V4.6h7.5l.1 1.5zm1.7 3.3c-.1-2.7 2.1-4.9 4.8-5h.2c2.1-.1 4.1 1.3 4.7 3.4h-1.7c-.5-1.2-1.7-1.9-3-1.9-2 .1-3.5 1.8-3.3 3.7.1 1.8 1.5 3.3 3.3 3.3 1.3 0 2.5-.7 3-1.9h1.7c-.6 2.1-2.5 3.4-4.7 3.4-2.7.1-4.9-2.1-5-4.8v-.2zm18.6-3.3h-3v8.2h-1.6V6.1h-3V4.6h7.5l.1 1.5zm9.5 5.4c0 1.7-1.2 2.8-3.2 2.8h-4.2V4.6h4.1c1.9 0 3 .9 3 2.5.1.9-.5 1.7-1.3 2 1 .3 1.7 1.3 1.6 2.4zm-3.5-5.4h-2.4v2.5h2.4c1.1 0 1.6-.5 1.6-1.3s-.5-1.2-1.6-1.2zm1.9 5.3c0-.9-.4-1.4-1.7-1.4h-2.6v2.8h2.6c1.3 0 1.7-.5 1.7-1.4zm12.7-2c0 2.8-2.2 5.1-5 5.1s-5.1-2.2-5.1-5 2.2-5.1 5-5.1h.1c2.7 0 5 2.2 5 5zm-8.5 0c0 1.9 1.6 3.4 3.5 3.4s3.4-1.6 3.4-3.5-1.6-3.4-3.5-3.4-3.5 1.5-3.5 3.4c0 0 0 .1.1.1zm-66.4 23.8h-1.6V25h-5v8.2h-1.6v-9.7h8.2v9.7zm9.4-6.6c.1 1.7-1.3 3.2-3 3.2h-2.8v3.3h-1.6v-9.7h4c1.7-.2 3.2 1.1 3.4 2.8v.4zm-1.6 0c0-.9-.6-1.7-1.5-1.7h-2.6v3.4h2.4c.9.1 1.7-.6 1.8-1.5-.1 0-.1-.1-.1-.2zm12.8 1.7c0 2.8-2.2 5.1-5 5.1s-5.1-2.2-5.1-5 2.2-5.1 5-5.1h.1c2.7-.1 5 2.2 5 5 0-.1 0 0 0 0zm-8.5 0c0 1.9 1.6 3.4 3.5 3.4s3.4-1.6 3.4-3.5-1.6-3.4-3.5-3.4c-1.9-.1-3.5 1.4-3.5 3.3 0 0 0 .1.1.2zm19.4-4.9v9.7h-1.6v-7.6l-3 4.5h-.2l-3-4.5v7.6H229v-9.7h1.9l2.8 4.2 2.8-4.2h1.9zm9.5 6.8c0 1.8-1.2 3-3.3 3h-4v-9.8h1.6v3.8h2.5c2.1 0 3.2 1.1 3.2 3zm-1.6 0c0-.9-.5-1.5-1.7-1.5h-2.4v3h2.4c1.2 0 1.7-.6 1.7-1.5zm4.5-6.8v9.7h-1.6v-9.8l1.6.1zm14.4 0v9.7h-11.9v-9.7h1.6v8.2h3.6v-8.2h1.6v8.2h3.6v-8.2h1.5zm10.3 0v9.7h-1.6v-8.2h-3.2l-.9 5.3c-.4 2.3-1.2 3.1-2.5 3.1-.3 0-.6 0-.9-.1v-1.4h.5c.7 0 1-.4 1.3-1.8l1.1-6.6h6.2zm3.4 1.5v2.5h4.4v1.5h-4.4v2.7h4.8v1.5h-6.4v-9.7h6.4v1.5h-4.8zm14.2-1.5v9.7h-1.6v-4.3h-5v4.3h-1.6v-9.7h1.6v4h5v-4h1.6zm10.2 0v9.7h-1.6v-4.3h-5v4.3h-1.6v-9.7h1.6v4h5v-4h1.6zm11.6 4.9c0 2.8-2.2 5.1-5 5.1s-5.1-2.2-5.1-5 2.2-5.1 5-5.1h.1c2.7-.1 5 2.2 5 5 0-.1 0 0 0 0zm-8.5 0c0 1.9 1.6 3.4 3.5 3.4s3.4-1.6 3.4-3.5-1.6-3.4-3.5-3.4-3.4 1.5-3.5 3.4c.1 0 .1 0 .1.1zm16.3-3.4h-4.5v8.2h-1.6v-9.7h6l.1 1.5zm11.3 3.4c0 2.8-2.2 5.1-5 5.1s-5.1-2.2-5.1-5 2.2-5.1 5-5.1h.1c2.7-.1 4.9 2.2 5 5-.1-.1 0 0 0 0zm-8.6 0c0 1.9 1.6 3.4 3.5 3.4s3.4-1.6 3.4-3.5-1.6-3.4-3.5-3.4-3.5 1.5-3.5 3.4c.1 0 .1 0 .1.1zM206 46.3c.1 1.7-1.3 3.2-3 3.3h-2.8v3.3h-1.6v-9.7h4c1.7-.2 3.2 1 3.4 2.7v.4zm-1.6 0c0-.9-.7-1.7-1.6-1.7h-2.7V48h2.4c.9.1 1.8-.5 1.9-1.4v-.3zm9.3 3.9h-4.2l-1 2.6h-1.7l3.8-9.7h2l3.8 9.7h-1.7l-1-2.6zm-.6-1.4l-1.6-4.1-1.5 4.1h3.1zm11.6 1.3c0 1.8-1.4 2.9-3.7 2.9s-3.8-1-4-3.1h1.6c.2 1.1 1.1 1.6 2.4 1.6s2.1-.6 2.1-1.6-.5-1.4-1.9-1.4h-1.5v-1.4h1.2c1.2 0 1.9-.4 1.9-1.2s-.7-1.5-1.9-1.5-1.8.4-2.1 1.4h-1.6c.3-2 1.8-2.9 3.7-2.9s3.5 1.2 3.5 2.8c0 .9-.5 1.7-1.3 2 1 .4 1.6 1.3 1.6 2.4zm9.2 0c0 1.7-1.2 2.8-3.2 2.8h-4.2v-9.7h4.1c1.9 0 3 .9 3 2.5.1.9-.5 1.7-1.3 2 1.1.3 1.8 1.3 1.6 2.4zm-3.5-5.5H228v2.5h2.4c1.1 0 1.6-.5 1.6-1.3s-.4-1.2-1.6-1.2zm1.9 5.4c0-.9-.4-1.4-1.7-1.4H228v2.8h2.6c1.3-.1 1.7-.6 1.7-1.4zm11.1-6.9v9.7h-1.6v-4.1l.1-3.4-4.9 7.5h-1.9v-9.7h1.6v4.1l-.1 3.4 4.9-7.5h1.9zm8.9 1.5h-3v8.2h-1.6v-8.2h-3v-1.5h7.5l.1 1.5zm10.2-1.5v9.7h-1.6v-4.1l.1-3.4-4.9 7.5h-1.9v-9.7h1.6v4.1l-.1 3.4 4.9-7.5h1.9zm9.1 0v9.7H270v-3.5h-1.6l-2.7 3.5h-1.9l2.8-3.6c-1.4-.3-2.4-1.6-2.4-3 0-1.9 1.2-3.1 3.3-3.1h4.1zm-1.6 4.8v-3.3h-2.3c-1.3 0-1.9.7-1.9 1.7s.6 1.6 1.9 1.6h2.3zm16.4-4.8v9.7h-1.6v-7.6l-3 4.5h-.1l-3-4.5v7.6h-1.6v-9.7h1.9l2.8 4.2 2.8-4.2h1.8zm11.9 4.9c0 2.8-2.2 5.1-5 5.1s-5.1-2.2-5.1-5 2.2-5.1 5-5.1h.1c2.7-.1 5 2.2 5 5 0-.1 0 0 0 0zm-8.5 0c0 1.9 1.6 3.4 3.5 3.4s3.4-1.6 3.4-3.5-1.6-3.4-3.5-3.4-3.4 1.5-3.5 3.3c.1.1.1.1.1.2zm9.8 0c-.1-2.7 2.1-4.9 4.8-5h.2c2.1-.1 4.1 1.3 4.7 3.4h-1.7c-.5-1.2-1.7-1.9-3-1.9-1.9 0-3.5 1.6-3.5 3.5s1.6 3.5 3.5 3.5c1.3 0 2.5-.7 3-1.9h1.7c-.6 2.1-2.5 3.4-4.7 3.4-2.7.1-4.9-2.1-5-4.8V48zm17.5 4.8l-4.1-4.7v4.7h-1.6v-9.7h1.6v4.4l4-4.4h2l-4.2 4.7 4.4 5h-2.1zm10.6-2.7c0 1.7-1.2 2.7-3.2 2.7h-4.2v-9.7h4.2c1.9 0 3 .9 3 2.5.1.9-.5 1.7-1.3 2 1 .4 1.7 1.4 1.5 2.5zm-3.5-5.5h-2.4v2.5h2.4c1.1 0 1.6-.5 1.6-1.3s-.4-1.2-1.6-1.2zm1.9 5.4c0-.9-.4-1.4-1.7-1.4h-2.6v2.8h2.6c1.3-.1 1.7-.6 1.7-1.4zm10.4-.2c0 1.8-1.2 3-3.3 3h-4v-9.7h1.6v3.8h2.5c2.1 0 3.2 1.1 3.2 2.9zm-1.6 0c0-.9-.5-1.5-1.8-1.5h-2.4v3h2.4c1.2 0 1.8-.5 1.8-1.5zm4.4-6.7v9.7h-1.6v-9.7h1.6z"/><path d="M64.3 4.5v48.4H78v-37h18.8v37h13.8V4.5H64.3zm-7.5 0H28.4L0 52.9h15.1l5.6-9.6h22.5v9.6h13.7l-.1-48.4zM27.4 32L43.2 5v27H27.4zM148.2 4.5H119v48.4h13.6v-9.6h15.6c10.7 0 19.3-8.7 19.3-19.3 0-10.8-8.6-19.5-19.3-19.5.1 0 .1 0 0 0zm5.7 19.4c0 4.4-3.5 8-7.9 8h-13.4V15.8h13.3c4.4 0 8 3.6 8 8.1z" fill-rule="evenodd" clip-rule="evenodd" fill="#3272d9"/><path class="st0" d="M182.4 0h1.4v57.4h-1.4z"/></svg>