<svg id="Слой_1" data-name="Слой 1" xmlns="http://www.w3.org/2000/svg" viewBox="0 0 375.8 131.74"><defs><style>.cls-1{fill:#333840}</style></defs><path class="cls-1" d="M225.28 48.85H221l-1 2.61h-1.68l3.78-9.74h2l3.78 9.74h-1.67zm-.57-1.49l-1.55-4.08-1.55 4.08zm10.54-4.13h-4.45v8.23h-1.57v-9.74h6zm3.15 0v2.52h4.45v1.5h-4.45V50h4.8v1.5h-6.38v-9.78h6.38v1.51zm14.19-1.51v9.74H251v-4.25h-5v4.25h-1.58v-9.74H246v4h5v-4zm8.8 1.51h-3v8.23h-1.58v-8.23h-3v-1.51h7.53zm1.67 3.36a4.89 4.89 0 015-5 4.74 4.74 0 014.67 3.38h-1.68a3.2 3.2 0 00-3-1.88 3.54 3.54 0 000 7.07 3.2 3.2 0 003-1.88h1.68a4.74 4.74 0 01-4.67 3.38 4.9 4.9 0 01-5-5.07zm18.59-3.36h-3v8.23h-1.58v-8.23h-3v-1.51h7.53zm9.49 5.48c0 1.71-1.18 2.75-3.23 2.75h-4.21v-9.74h4.15c1.9 0 3 .91 3 2.51a2 2 0 01-1.29 2 2.33 2.33 0 011.58 2.48zm-3.48-5.48h-2.39v2.5h2.4c1.14 0 1.56-.46 1.56-1.25s-.44-1.25-1.57-1.25zm1.89 5.35c0-.89-.41-1.4-1.7-1.4h-2.58V50h2.6c1.28 0 1.68-.58 1.68-1.42zm12.73-1.99a5.07 5.07 0 11-5.06-5 5 5 0 015.06 5zm-8.54 0a3.47 3.47 0 103.48-3.53 3.43 3.43 0 00-3.48 3.53zm-66.35 23.73h-1.58v-8.23h-5v8.23h-1.57v-9.74h8.16zm9.41-6.54a3.14 3.14 0 01-3.43 3.22H231v3.29h-1.58v-9.71h4a3.1 3.1 0 013.38 3.2zm-1.6 0a1.64 1.64 0 00-1.88-1.71H231v3.43h2.37a1.65 1.65 0 001.83-1.7zm12.8 1.67a5.06 5.06 0 11-5.06-5 5 5 0 015.06 5zm-8.53 0a3.47 3.47 0 103.47-3.53 3.42 3.42 0 00-3.52 3.53zm19.44-4.87v9.74h-1.58v-7.61l-3 4.54h-.16l-3-4.54v7.61h-1.58v-9.74h1.85l2.81 4.21 2.8-4.21zm9.52 6.75c0 1.85-1.2 3-3.33 3h-4v-9.75h1.58v3.77h2.49c2.13 0 3.26 1.12 3.26 2.98zm-1.6 0c0-.93-.53-1.49-1.74-1.49h-2.44v3H265c1.26-.02 1.83-.6 1.83-1.52zm4.42-6.74v9.74h-1.58v-9.75zm14.42-.01v9.74h-11.93v-9.74h1.57v8.24h3.6v-8.24h1.58v8.24h3.61v-8.24zm10.33 0v9.74h-1.57v-8.23h-3.19l-.86 5.26c-.37 2.28-1.21 3.14-2.52 3.14a6 6 0 01-.86-.08V69h.55c.73 0 1.05-.41 1.29-1.82l1.07-6.63zm3.41 1.51v2.51h4.44v1.51h-4.44v2.71h4.79v1.5h-6.37v-9.74h6.37v1.51zm14.19-1.51v9.74H312v-4.25h-5v4.25h-1.57v-9.74H307v4h5v-4zm10.14 0v9.74h-1.58v-4.25h-5v4.25h-1.58v-9.74h1.58v4h5v-4zm11.69 4.87a5.06 5.06 0 11-5.06-5 5 5 0 015.06 5zm-8.53 0a3.47 3.47 0 103.47-3.53 3.42 3.42 0 00-3.47 3.53zm16.26-3.36h-4.45v8.23h-1.57v-9.74h6zm11.28 3.36a5.07 5.07 0 11-5.06-5 5 5 0 015.06 5zm-8.54 0a3.47 3.47 0 103.48-3.53 3.43 3.43 0 00-3.48 3.53zM226.52 83.48a3.13 3.13 0 01-3.43 3.24h-2.43V90h-1.57v-9.72h4a3.1 3.1 0 013.43 3.2zm-1.61 0a1.65 1.65 0 00-1.91-1.7h-2.37v3.44H223a1.66 1.66 0 001.91-1.72zm9.24 3.92h-4.24l-1 2.62h-1.67l3.76-9.74h2l3.82 9.72h-1.68zm-.57-1.48L232 81.84l-1.54 4.08zm11.61 1.33c0 1.81-1.45 2.94-3.67 2.94s-3.76-1-4-3.08h1.59c.24 1.14 1.11 1.57 2.37 1.57s2.1-.61 2.1-1.57-.48-1.39-1.91-1.39h-1.47v-1.39h1.18c1.24 0 1.88-.39 1.88-1.24s-.66-1.47-1.93-1.47-1.82.36-2.08 1.44h-1.59c.28-2 1.76-2.94 3.71-2.94s3.5 1.15 3.5 2.78a2.12 2.12 0 01-1.31 2 2.37 2.37 0 011.63 2.35zm9.22.02c0 1.71-1.18 2.75-3.23 2.75H247v-9.74h4.15c1.9 0 3 .91 3 2.51a2 2 0 01-1.29 2 2.32 2.32 0 011.55 2.48zm-3.48-5.49h-2.39v2.51h2.4c1.15 0 1.56-.46 1.56-1.25s-.44-1.26-1.57-1.26zm1.89 5.36c0-.89-.41-1.4-1.7-1.4h-2.58v2.78h2.6c1.28 0 1.68-.52 1.68-1.38zm11.12-6.86V90h-1.57v-4.06l.15-3.45-4.89 7.51h-1.86v-9.72h1.58v4.08l-.14 3.43 4.88-7.51zm8.87 1.5h-3V90h-1.57v-8.22h-3v-1.5h7.53zm10.19-1.5V90h-1.57v-4.06l.15-3.45-4.95 7.51h-1.85v-9.72h1.58v4.08l-.14 3.43 4.88-7.51zm9.09 0V90h-1.57v-3.5h-1.64l-2.66 3.5h-1.94l2.81-3.63a2.89 2.89 0 01-2.35-3c0-1.86 1.19-3.1 3.32-3.1zm-1.57 4.79v-3.29h-2.29c-1.3 0-1.9.69-1.9 1.65s.6 1.64 1.9 1.64zm16.4-4.79V90h-1.58v-7.59l-3 4.54h-.15l-3-4.54V90h-1.59v-9.72h1.86l2.8 4.2 2.8-4.2zm11.87 4.87a5.06 5.06 0 11-5.06-5 5 5 0 015.06 5zm-8.53 0a3.47 3.47 0 103.47-3.53 3.41 3.41 0 00-3.47 3.53zm9.86 0a4.89 4.89 0 015-5 4.74 4.74 0 014.67 3.38h-1.68a3.19 3.19 0 00-3-1.88 3.53 3.53 0 000 7.06 3.19 3.19 0 003-1.87h1.68a4.75 4.75 0 01-4.67 3.38 4.9 4.9 0 01-5-5.07zM337.6 90l-4.13-4.65V90h-1.58v-9.72h1.58v4.45l3.95-4.45h2L335.19 85l4.4 5zm10.62-2.73C348.22 89 347 90 345 90h-4.21v-9.72h4.16c1.89 0 3 .91 3 2.51a2 2 0 01-1.3 2 2.33 2.33 0 011.57 2.48zm-3.49-5.49h-2.38v2.51h2.39c1.15 0 1.57-.46 1.57-1.25s-.45-1.26-1.58-1.26zm1.9 5.36c0-.89-.42-1.4-1.7-1.4h-2.58v2.78h2.59c1.28 0 1.69-.52 1.69-1.38zM357 87c0 1.85-1.2 3-3.33 3h-4v-9.72h1.57v3.77h2.5c2.14 0 3.26 1.12 3.26 2.95zm-1.6 0c0-.93-.53-1.48-1.75-1.48h-2.44v3h2.4c1.22 0 1.8-.59 1.8-1.52zm4.42-6.73V90h-1.58v-9.72z"/><path d="M84.74 41.68v48.38h13.78V53.02h18.79v37.04h13.77V41.68H84.74zm-7.41 0H48.87L20.49 90.06h15.09l5.63-9.61h22.48v9.61h13.68V41.68zM47.86 69.12l15.83-27v27zm120.85-27.44h-29.2v48.38h13.6v-9.61h15.6A19.32 19.32 0 00188 61.07a19.32 19.32 0 00-19.25-19.39zm5.66 19.39a8 8 0 01-8 8.05h-13.26V53h13.26a8 8 0 018 8z" fill="#3272d9" fill-rule="evenodd"/><path class="cls-1" d="M202.85 37.17h1.35v57.41h-1.35z"/></svg>