<svg id="Слой_1" data-name="Слой 1" xmlns="http://www.w3.org/2000/svg" viewBox="0 0 375.8 131.74"><defs><style>.cls-1{fill:#333840;}.cls-2{fill:#3272d9;fill-rule:evenodd;}</style></defs><title>Новые лого</title><path class="cls-1" d="M225.28,48.85H221l-1,2.61h-1.68l3.78-9.74h2l3.78,9.74h-1.67Zm-.57-1.49-1.55-4.08-1.55,4.08Z"/><path class="cls-1" d="M235.25,43.23H230.8v8.23h-1.57V41.72h6Z"/><path class="cls-1" d="M238.4,43.23v2.52h4.45v1.5H238.4V50h4.8v1.5h-6.38V41.72h6.38v1.51Z"/><path class="cls-1" d="M252.59,41.72v9.74H251V47.21h-5v4.25h-1.58V41.72H246v4h5v-4Z"/><path class="cls-1" d="M261.39,43.23h-3v8.23h-1.58V43.23h-3V41.72h7.53Z"/><path class="cls-1" d="M263.06,46.59a4.89,4.89,0,0,1,5-5,4.74,4.74,0,0,1,4.67,3.38h-1.68a3.2,3.2,0,0,0-3-1.88,3.54,3.54,0,0,0,0,7.07,3.2,3.2,0,0,0,3-1.88h1.68a4.74,4.74,0,0,1-4.67,3.38A4.9,4.9,0,0,1,263.06,46.59Z"/><path class="cls-1" d="M281.65,43.23h-3v8.23h-1.58V43.23h-3V41.72h7.53Z"/><path class="cls-1" d="M291.14,48.71c0,1.71-1.18,2.75-3.23,2.75H283.7V41.72h4.15c1.9,0,3,.91,3,2.51a2,2,0,0,1-1.29,2A2.33,2.33,0,0,1,291.14,48.71Zm-3.48-5.48h-2.39v2.5h2.4c1.14,0,1.56-.46,1.56-1.25S288.79,43.23,287.66,43.23Zm1.89,5.35c0-.89-.41-1.4-1.7-1.4h-2.58V50h2.6C289.15,50,289.55,49.42,289.55,48.58Z"/><path class="cls-1" d="M302.28,46.59a5.07,5.07,0,1,1-5.06-5A5,5,0,0,1,302.28,46.59Zm-8.54,0a3.47,3.47,0,1,0,3.48-3.53A3.43,3.43,0,0,0,293.74,46.59Z"/><path class="cls-1" d="M227.39,70.32h-1.58V62.09h-5v8.23h-1.57V60.58h8.16Z"/><path class="cls-1" d="M236.8,63.78A3.14,3.14,0,0,1,233.37,67H231v3.29h-1.58V60.58h4A3.1,3.1,0,0,1,236.8,63.78Zm-1.6,0a1.64,1.64,0,0,0-1.88-1.71H231v3.43h2.37A1.65,1.65,0,0,0,235.2,63.8Z"/><path class="cls-1" d="M248,65.45a5.06,5.06,0,1,1-5.06-5A5,5,0,0,1,248,65.45Zm-8.53,0a3.47,3.47,0,1,0,3.47-3.53A3.42,3.42,0,0,0,239.42,65.45Z"/><path class="cls-1" d="M258.91,60.58v9.74h-1.58V62.71l-3,4.54h-.16l-3-4.54v7.61h-1.58V60.58h1.85l2.81,4.21,2.8-4.21Z"/><path class="cls-1" d="M268.43,67.33c0,1.85-1.2,3-3.33,3h-4V60.58h1.58v3.77h2.49C267.3,64.35,268.43,65.47,268.43,67.33Zm-1.6,0c0-.93-.53-1.49-1.74-1.49h-2.44v3H265C266.26,68.82,266.83,68.24,266.83,67.32Zm4.42-6.74v9.74h-1.58V60.58Z"/><path class="cls-1" d="M285.67,60.58v9.74H273.74V60.58h1.57v8.24h3.6V60.58h1.58v8.24h3.61V60.58Z"/><path class="cls-1" d="M296,60.58v9.74h-1.57V62.09h-3.19l-.86,5.26c-.37,2.28-1.21,3.14-2.52,3.14a6,6,0,0,1-.86-.08V69c.15,0,.4,0,.55,0,.73,0,1.05-.41,1.29-1.82l1.07-6.63Z"/><path class="cls-1" d="M299.41,62.09V64.6h4.44v1.51h-4.44v2.71h4.79v1.5h-6.37V60.58h6.37v1.51Z"/><path class="cls-1" d="M313.6,60.58v9.74H312V66.07h-5v4.25h-1.57V60.58H307v4h5v-4Z"/><path class="cls-1" d="M323.74,60.58v9.74h-1.58V66.07h-5v4.25h-1.58V60.58h1.58v4h5v-4Z"/><path class="cls-1" d="M335.43,65.45a5.06,5.06,0,1,1-5.06-5A5,5,0,0,1,335.43,65.45Zm-8.53,0a3.47,3.47,0,1,0,3.47-3.53A3.42,3.42,0,0,0,326.9,65.45Z"/><path class="cls-1" d="M343.16,62.09h-4.45v8.23h-1.57V60.58h6Z"/><path class="cls-1" d="M354.44,65.45a5.07,5.07,0,1,1-5.06-5A5,5,0,0,1,354.44,65.45Zm-8.54,0a3.47,3.47,0,1,0,3.48-3.53A3.43,3.43,0,0,0,345.9,65.45Z"/><path class="cls-1" d="M226.52,83.48a3.13,3.13,0,0,1-3.43,3.24h-2.43V90h-1.57V80.28h4A3.1,3.1,0,0,1,226.52,83.48Zm-1.61,0A1.65,1.65,0,0,0,223,81.78h-2.37v3.44H223A1.66,1.66,0,0,0,224.91,83.5Z"/><path class="cls-1" d="M234.15,87.4h-4.24l-1,2.62h-1.67L231,80.28h2L236.82,90h-1.68Zm-.57-1.48L232,81.84l-1.54,4.08Z"/><path class="cls-1" d="M245.19,87.25c0,1.81-1.45,2.94-3.67,2.94s-3.76-1-4-3.08h1.59c.24,1.14,1.11,1.57,2.37,1.57s2.1-.61,2.1-1.57-.48-1.39-1.91-1.39H240.2V84.33h1.18c1.24,0,1.88-.39,1.88-1.24s-.66-1.47-1.93-1.47-1.82.36-2.08,1.44h-1.59c.28-2,1.76-2.94,3.71-2.94s3.5,1.15,3.5,2.78a2.12,2.12,0,0,1-1.31,2A2.37,2.37,0,0,1,245.19,87.25Z"/><path class="cls-1" d="M254.41,87.27c0,1.71-1.18,2.75-3.23,2.75H247V80.28h4.15c1.9,0,3,.91,3,2.51a2,2,0,0,1-1.29,2A2.32,2.32,0,0,1,254.41,87.27Zm-3.48-5.49h-2.39v2.51h2.4c1.15,0,1.56-.46,1.56-1.25S252.06,81.78,250.93,81.78Zm1.89,5.36c0-.89-.41-1.4-1.7-1.4h-2.58v2.78h2.6C252.42,88.52,252.82,88,252.82,87.14Z"/><path class="cls-1" d="M263.94,80.28V90h-1.57V85.94l.15-3.45L257.63,90h-1.86V80.28h1.58v4.08l-.14,3.43,4.88-7.51Z"/><path class="cls-1" d="M272.81,81.78h-3V90h-1.57V81.78h-3v-1.5h7.53Z"/><path class="cls-1" d="M283,80.28V90h-1.57V85.94l.15-3.45L276.63,90h-1.85V80.28h1.58v4.08l-.14,3.43,4.88-7.51Z"/><path class="cls-1" d="M292.09,80.28V90h-1.57V86.5h-1.64L286.22,90h-1.94l2.81-3.63a2.89,2.89,0,0,1-2.35-3c0-1.86,1.19-3.1,3.32-3.1Zm-1.57,4.79V81.78h-2.29c-1.3,0-1.9.69-1.9,1.65s.6,1.64,1.9,1.64Z"/><path class="cls-1" d="M306.92,80.28V90h-1.58V82.41l-3,4.54h-.15l-3-4.54V90H297.6V80.28h1.86l2.8,4.2,2.8-4.2Z"/><path class="cls-1" d="M318.79,85.15a5.06,5.06,0,1,1-5.06-5A5,5,0,0,1,318.79,85.15Zm-8.53,0a3.47,3.47,0,1,0,3.47-3.53A3.41,3.41,0,0,0,310.26,85.15Z"/><path class="cls-1" d="M320.12,85.15a4.89,4.89,0,0,1,5-5,4.74,4.74,0,0,1,4.67,3.38h-1.68a3.19,3.19,0,0,0-3-1.88,3.53,3.53,0,0,0,0,7.06,3.19,3.19,0,0,0,3-1.87h1.68a4.75,4.75,0,0,1-4.67,3.38A4.9,4.9,0,0,1,320.12,85.15Z"/><path class="cls-1" d="M337.6,90l-4.13-4.65V90h-1.58V80.28h1.58v4.45l3.95-4.45h2L335.19,85l4.4,5Z"/><path class="cls-1" d="M348.22,87.27C348.22,89,347,90,345,90h-4.21V80.28h4.16c1.89,0,3,.91,3,2.51a2,2,0,0,1-1.3,2A2.33,2.33,0,0,1,348.22,87.27Zm-3.49-5.49h-2.38v2.51h2.39c1.15,0,1.57-.46,1.57-1.25S345.86,81.78,344.73,81.78Zm1.9,5.36c0-.89-.42-1.4-1.7-1.4h-2.58v2.78h2.59C346.22,88.52,346.63,88,346.63,87.14Z"/><path class="cls-1" d="M357,87c0,1.85-1.2,3-3.33,3h-4V80.28h1.57v3.77h2.5C355.88,84.05,357,85.17,357,87Zm-1.6,0c0-.93-.53-1.48-1.75-1.48h-2.44v3h2.4C354.83,88.52,355.41,87.93,355.41,87Zm4.42-6.73V90h-1.58V80.28Z"/><polygon class="cls-2" points="84.74 41.68 84.74 41.68 84.74 90.06 98.52 90.06 98.52 53.02 117.31 53.02 117.31 90.06 131.08 90.06 131.08 41.68 84.74 41.68 84.74 41.68"/><path class="cls-2" d="M77.33,41.68H48.87L20.49,90.06H35.58l5.63-9.61H63.69v9.61H77.37l0-48.38ZM47.86,69.12l15.83-27v27Z"/><path class="cls-2" d="M168.71,41.68h-29.2V90.06h13.6V80.45h15.6A19.32,19.32,0,0,0,188,61.07h0a19.32,19.32,0,0,0-19.25-19.39Zm5.66,19.39a8,8,0,0,1-8,8.05H153.11V53h13.26a8,8,0,0,1,8,8Z"/><rect class="cls-1" x="202.85" y="37.17" width="1.35" height="57.41"/></svg>