<?xml version="1.0" encoding="utf-8"?>
<!-- Generator: Adobe Illustrator 24.2.3, SVG Export Plug-In . SVG Version: 6.00 Build 0)  -->
<svg version="1.1" id="Слой_1" xmlns="http://www.w3.org/2000/svg" xmlns:xlink="http://www.w3.org/1999/xlink" x="0px" y="0px"
	 viewBox="0 0 339.3 57.4" style="enable-background:new 0 0 339.3 57.4;" xml:space="preserve">
<style type="text/css">
	.st0{fill:#333840;}
	.st1{fill-rule:evenodd;clip-rule:evenodd;fill:#3272D9;}
</style>
<path class="st0" d="M204.8,11.7h-4.3l-1,2.6h-1.7l3.8-9.7h2l3.8,9.7h-1.7L204.8,11.7z M204.2,10.2l-1.6-4.1l-1.6,4.1L204.2,10.2z"
	/>
<path class="st0" d="M214.8,6.1h-4.4v8.2h-1.6V4.6h6L214.8,6.1z"/>
<path class="st0" d="M217.9,6.1v2.5h4.4v1.5h-4.4v2.8h4.8v1.5h-6.4V4.6h6.4v1.5H217.9z"/>
<path class="st0" d="M232.1,4.6v9.7h-1.6V10h-5v4.3h-1.6V4.6h1.6v4h5v-4H232.1z"/>
<path class="st0" d="M240.9,6.1h-3v8.2h-1.6V6.1h-3V4.6h7.5L240.9,6.1z"/>
<path class="st0" d="M242.6,9.4c-0.1-2.7,2.1-4.9,4.8-5c0.1,0,0.1,0,0.2,0c2.1-0.1,4.1,1.3,4.7,3.4h-1.7c-0.5-1.2-1.7-1.9-3-1.9
	c-2,0.1-3.5,1.8-3.3,3.7c0.1,1.8,1.5,3.3,3.3,3.3c1.3,0,2.5-0.7,3-1.9h1.7c-0.6,2.1-2.5,3.4-4.7,3.4c-2.7,0.1-4.9-2.1-5-4.8
	C242.6,9.6,242.6,9.5,242.6,9.4z"/>
<path class="st0" d="M261.2,6.1h-3v8.2h-1.6V6.1h-3V4.6h7.5L261.2,6.1z"/>
<path class="st0" d="M270.7,11.5c0,1.7-1.2,2.8-3.2,2.8h-4.2V4.6h4.1c1.9,0,3,0.9,3,2.5c0.1,0.9-0.5,1.7-1.3,2
	C270.1,9.4,270.8,10.4,270.7,11.5z M267.2,6.1h-2.4v2.5h2.4c1.1,0,1.6-0.5,1.6-1.3S268.3,6.1,267.2,6.1z M269.1,11.4
	c0-0.9-0.4-1.4-1.7-1.4h-2.6v2.8h2.6C268.7,12.8,269.1,12.3,269.1,11.4L269.1,11.4z"/>
<path class="st0" d="M281.8,9.4c0,2.8-2.2,5.1-5,5.1c-2.8,0-5.1-2.2-5.1-5c0-2.8,2.2-5.1,5-5.1c0,0,0.1,0,0.1,0
	C279.5,4.4,281.8,6.6,281.8,9.4C281.8,9.4,281.8,9.4,281.8,9.4z M273.3,9.4c0,1.9,1.6,3.4,3.5,3.4c1.9,0,3.4-1.6,3.4-3.5
	c0-1.9-1.6-3.4-3.5-3.4c-1.9,0-3.5,1.5-3.5,3.4C273.2,9.3,273.2,9.4,273.3,9.4z"/>
<path class="st0" d="M206.9,33.2h-1.6v-8.2h-5v8.2h-1.6v-9.7h8.2L206.9,33.2z"/>
<path class="st0" d="M216.3,26.6c0.1,1.7-1.3,3.2-3,3.2c-0.1,0-0.3,0-0.4,0h-2.4v3.3h-1.6v-9.7h4c1.7-0.2,3.2,1.1,3.4,2.8
	C216.3,26.3,216.3,26.5,216.3,26.6z M214.7,26.6c0-0.9-0.6-1.7-1.5-1.7c-0.1,0-0.2,0-0.3,0h-2.3v3.4h2.4c0.9,0.1,1.7-0.6,1.8-1.5
	C214.7,26.8,214.7,26.7,214.7,26.6L214.7,26.6z"/>
<path class="st0" d="M227.5,28.3c0,2.8-2.2,5.1-5,5.1c-2.8,0-5.1-2.2-5.1-5c0-2.8,2.2-5.1,5-5.1c0,0,0,0,0.1,0
	C225.2,23.2,227.5,25.5,227.5,28.3C227.5,28.2,227.5,28.3,227.5,28.3z M219,28.3c0,1.9,1.6,3.4,3.5,3.4c1.9,0,3.4-1.6,3.4-3.5
	c0-1.9-1.6-3.4-3.5-3.4c-1.9-0.1-3.5,1.4-3.5,3.3C218.9,28.1,218.9,28.2,219,28.3L219,28.3z"/>
<path class="st0" d="M238.4,23.4v9.7h-1.6v-7.6l-3,4.5h-0.2l-3-4.5v7.6h-1.6v-9.7h1.9l2.8,4.2l2.8-4.2H238.4z"/>
<path class="st0" d="M247.9,30.2c0,1.8-1.2,3-3.3,3h-4v-9.8h1.6v3.8h2.5C246.8,27.2,247.9,28.3,247.9,30.2z M246.3,30.2
	c0-0.9-0.5-1.5-1.7-1.5h-2.4v3h2.4C245.8,31.7,246.3,31.1,246.3,30.2L246.3,30.2z M250.8,23.4v9.7h-1.6v-9.8L250.8,23.4z"/>
<path class="st0" d="M265.2,23.4v9.7h-11.9v-9.7h1.6v8.2h3.6v-8.2h1.6v8.2h3.6v-8.2H265.2z"/>
<path class="st0" d="M275.5,23.4v9.7h-1.6v-8.2h-3.2l-0.9,5.3c-0.4,2.3-1.2,3.1-2.5,3.1c-0.3,0-0.6,0-0.9-0.1v-1.4
	c0.1,0,0.4,0,0.5,0c0.7,0,1-0.4,1.3-1.8l1.1-6.6L275.5,23.4z"/>
<path class="st0" d="M278.9,24.9v2.5h4.4v1.5h-4.4v2.7h4.8v1.5h-6.4v-9.7h6.4v1.5H278.9z"/>
<path class="st0" d="M293.1,23.4v9.7h-1.6v-4.3h-5v4.3h-1.6v-9.7h1.6v4h5v-4H293.1z"/>
<path class="st0" d="M303.3,23.4v9.7h-1.6v-4.3h-5v4.3h-1.6v-9.7h1.6v4h5v-4H303.3z"/>
<path class="st0" d="M314.9,28.3c0,2.8-2.2,5.1-5,5.1c-2.8,0-5.1-2.2-5.1-5c0-2.8,2.2-5.1,5-5.1c0,0,0,0,0.1,0
	C312.6,23.2,314.9,25.5,314.9,28.3C314.9,28.2,314.9,28.3,314.9,28.3z M306.4,28.3c0,1.9,1.6,3.4,3.5,3.4c1.9,0,3.4-1.6,3.4-3.5
	c0-1.9-1.6-3.4-3.5-3.4c-1.9,0-3.4,1.5-3.5,3.4C306.4,28.2,306.4,28.2,306.4,28.3z"/>
<path class="st0" d="M322.7,24.9h-4.5v8.2h-1.6v-9.7h6L322.7,24.9z"/>
<path class="st0" d="M334,28.3c0,2.8-2.2,5.1-5,5.1c-2.8,0-5.1-2.2-5.1-5c0-2.8,2.2-5.1,5-5.1c0,0,0.1,0,0.1,0
	C331.7,23.2,333.9,25.5,334,28.3C333.9,28.2,334,28.3,334,28.3z M325.4,28.3c0,1.9,1.6,3.4,3.5,3.4c1.9,0,3.4-1.6,3.4-3.5
	c0-1.9-1.6-3.4-3.5-3.4c-1.9,0-3.5,1.5-3.5,3.4C325.4,28.2,325.4,28.2,325.4,28.3z"/>
<path class="st0" d="M206,46.3c0.1,1.7-1.3,3.2-3,3.3c-0.1,0-0.3,0-0.4,0h-2.4v3.3h-1.6v-9.7h4c1.7-0.2,3.2,1,3.4,2.7
	C206,46,206,46.2,206,46.3z M204.4,46.3c0-0.9-0.7-1.7-1.6-1.7c-0.1,0-0.2,0-0.3,0h-2.4v3.4h2.4c0.9,0.1,1.8-0.5,1.9-1.4
	C204.4,46.6,204.4,46.4,204.4,46.3L204.4,46.3z"/>
<path class="st0" d="M213.7,50.2h-4.2l-1,2.6h-1.7l3.8-9.7h2l3.8,9.7h-1.7L213.7,50.2z M213.1,48.8l-1.6-4.1l-1.5,4.1H213.1z"/>
<path class="st0" d="M224.7,50.1c0,1.8-1.4,2.9-3.7,2.9s-3.8-1-4-3.1h1.6c0.2,1.1,1.1,1.6,2.4,1.6s2.1-0.6,2.1-1.6s-0.5-1.4-1.9-1.4
	h-1.5v-1.4h1.2c1.2,0,1.9-0.4,1.9-1.2s-0.7-1.5-1.9-1.5s-1.8,0.4-2.1,1.4h-1.6c0.3-2,1.8-2.9,3.7-2.9s3.5,1.2,3.5,2.8
	c0,0.9-0.5,1.7-1.3,2C224.1,48.1,224.7,49,224.7,50.1z"/>
<path class="st0" d="M233.9,50.1c0,1.7-1.2,2.8-3.2,2.8h-4.2v-9.7h4.1c1.9,0,3,0.9,3,2.5c0.1,0.9-0.5,1.7-1.3,2
	C233.4,48,234.1,49,233.9,50.1z M230.4,44.6h-2.4v2.5h2.4c1.1,0,1.6-0.5,1.6-1.3S231.6,44.6,230.4,44.6L230.4,44.6z M232.3,50
	c0-0.9-0.4-1.4-1.7-1.4h-2.6v2.8h2.6C231.9,51.3,232.3,50.8,232.3,50z"/>
<path class="st0" d="M243.4,43.1v9.7h-1.6v-4.1l0.1-3.4l-4.9,7.5h-1.9v-9.7h1.6v4.1l-0.1,3.4l4.9-7.5H243.4z"/>
<path class="st0" d="M252.3,44.6h-3v8.2h-1.6v-8.2h-3v-1.5h7.5L252.3,44.6z"/>
<path class="st0" d="M262.5,43.1v9.7h-1.6v-4.1l0.1-3.4l-4.9,7.5h-1.9v-9.7h1.6v4.1l-0.1,3.4l4.9-7.5H262.5z"/>
<path class="st0" d="M271.6,43.1v9.7H270v-3.5h-1.6l-2.7,3.5h-1.9l2.8-3.6c-1.4-0.3-2.4-1.6-2.4-3c0-1.9,1.2-3.1,3.3-3.1L271.6,43.1
	z M270,47.9v-3.3h-2.3c-1.3,0-1.9,0.7-1.9,1.7s0.6,1.6,1.9,1.6H270z"/>
<path class="st0" d="M286.4,43.1v9.7h-1.6v-7.6l-3,4.5h-0.1l-3-4.5v7.6h-1.6v-9.7h1.9l2.8,4.2l2.8-4.2H286.4z"/>
<path class="st0" d="M298.3,48c0,2.8-2.2,5.1-5,5.1c-2.8,0-5.1-2.2-5.1-5s2.2-5.1,5-5.1c0,0,0,0,0.1,0C296,42.9,298.3,45.2,298.3,48
	C298.3,47.9,298.3,48,298.3,48z M289.8,48c0,1.9,1.6,3.4,3.5,3.4c1.9,0,3.4-1.6,3.4-3.5c0-1.9-1.6-3.4-3.5-3.4
	c-1.9,0-3.4,1.5-3.5,3.3C289.8,47.9,289.8,47.9,289.8,48z"/>
<path class="st0" d="M299.6,48c-0.1-2.7,2.1-4.9,4.8-5c0.1,0,0.1,0,0.2,0c2.1-0.1,4.1,1.3,4.7,3.4h-1.7c-0.5-1.2-1.7-1.9-3-1.9
	c-1.9,0-3.5,1.6-3.5,3.5c0,1.9,1.6,3.5,3.5,3.5c1.3,0,2.5-0.7,3-1.9h1.7c-0.6,2.1-2.5,3.4-4.7,3.4c-2.7,0.1-4.9-2.1-5-4.8
	C299.6,48.2,299.6,48.1,299.6,48z"/>
<path class="st0" d="M317.1,52.8l-4.1-4.7v4.7h-1.6v-9.7h1.6v4.4l4-4.4h2l-4.2,4.7l4.4,5H317.1z"/>
<path class="st0" d="M327.7,50.1c0,1.7-1.2,2.7-3.2,2.7h-4.2v-9.7h4.2c1.9,0,3,0.9,3,2.5c0.1,0.9-0.5,1.7-1.3,2
	C327.2,48,327.9,49,327.7,50.1z M324.2,44.6h-2.4v2.5h2.4c1.1,0,1.6-0.5,1.6-1.3S325.4,44.6,324.2,44.6z M326.1,50
	c0-0.9-0.4-1.4-1.7-1.4h-2.6v2.8h2.6C325.7,51.3,326.1,50.8,326.1,50z"/>
<path class="st0" d="M336.5,49.8c0,1.8-1.2,3-3.3,3h-4v-9.7h1.6v3.8h2.5C335.4,46.9,336.5,48,336.5,49.8z M334.9,49.8
	c0-0.9-0.5-1.5-1.8-1.5h-2.4v3h2.4C334.3,51.3,334.9,50.8,334.9,49.8L334.9,49.8z M339.3,43.1v9.7h-1.6v-9.7L339.3,43.1z"/>
<polygon class="st1" points="64.3,4.5 64.3,4.5 64.3,52.9 78,52.9 78,15.9 96.8,15.9 96.8,52.9 110.6,52.9 110.6,4.5 64.3,4.5 "/>
<path class="st1" d="M56.8,4.5H28.4L0,52.9h15.1l5.6-9.6h22.5v9.6h13.7L56.8,4.5L56.8,4.5z M27.4,32L43.2,5v27H27.4z"/>
<path class="st1" d="M148.2,4.5H119v48.4h13.6v-9.6h15.6c10.7,0,19.3-8.7,19.3-19.3c0,0,0,0,0,0l0,0C167.5,13.2,158.9,4.5,148.2,4.5
	C148.3,4.5,148.3,4.5,148.2,4.5L148.2,4.5z M153.9,23.9c0,4.4-3.5,8-7.9,8c0,0,0,0-0.1,0h-13.3V15.8h13.3
	C150.3,15.8,153.9,19.4,153.9,23.9L153.9,23.9z"/>
<rect x="182.4" class="st0" width="1.4" height="57.4"/>
</svg>
