<svg width="48" height="48" fill="none" xmlns="http://www.w3.org/2000/svg"><path d="M35.984 27.3c-.097 0-.19.015-.279.04a1.014 1.014 0 00-.28-.04h-6.804c-.328 0-.636.16-.826.426l-1.22 1.708h-5.302l-1.22-1.708a1.016 1.016 0 00-.827-.425h-4.671v-5.13c0-.56.455-1.015 1.015-1.015h16.86c.56 0 1.015.456 1.015 1.016v1.066a1.016 1.016 0 102.032 0v-1.066a3.04 3.04 0 00-1.02-2.272c.002-.021.004-.042.004-.064v-1.727c0-.9-.393-1.71-1.016-2.268v-1.794A3.05 3.05 0 0030.398 11H17.602a3.05 3.05 0 00-3.047 3.047v1.794a3.039 3.039 0 00-1.016 2.268v1.524c0 .084.011.165.03.244a3.04 3.04 0 00-1.046 2.295V27.3h-.05c-.08 0-.155.01-.229.027a1.016 1.016 0 00-1.244.989v4.62A4.067 4.067 0 0015.063 37h17.874A4.067 4.067 0 0037 32.937v-4.62c0-.562-.455-1.016-1.016-1.016zM16.586 14.048c0-.56.456-1.016 1.016-1.016h12.796c.56 0 1.016.456 1.016 1.016v1.015H16.586v-1.015zM15.57 18.11c0-.56.456-1.015 1.016-1.015h14.828c.56 0 1.016.455 1.016 1.015v1.016H15.57V18.11zm17.367 16.86H15.064a2.034 2.034 0 01-2.032-2.032v-3.605h5.673l1.22 1.708c.19.267.498.425.826.425h6.348c.328 0 .635-.159.826-.425l1.22-1.708h5.825v3.605c0 1.12-.912 2.032-2.032 2.032z" fill="#E0E0E0"/></svg>