<svg width="16" height="16" viewBox="0 0 16 16" fill="none" xmlns="http://www.w3.org/2000/svg">
<path d="M14 7.25C14.4142 7.25 14.75 7.58579 14.75 8C14.75 8.41421 14.4142 8.75 14 8.75V7.25ZM0.46967 8.53033C0.176777 8.23744 0.176777 7.76256 0.46967 7.46967L5.24264 2.6967C5.53553 2.40381 6.01041 2.40381 6.3033 2.6967C6.59619 2.98959 6.59619 3.46447 6.3033 3.75736L2.06066 8L6.3033 12.2426C6.59619 12.5355 6.59619 13.0104 6.3033 13.3033C6.01041 13.5962 5.53553 13.5962 5.24264 13.3033L0.46967 8.53033ZM14 8.75H1V7.25H14V8.75Z" fill="#4C51CC"/>
</svg>
