<svg xmlns="http://www.w3.org/2000/svg" viewBox="0 0 26 26"><path d="M21.3 16.9V5.6c0-1.1-.9-2-2-2h-6.4v7.3c0 1.7-1.4 3-3 3-1.7 0-3-1.4-3-3V6.5c0-.6.5-1 1-1 .6 0 1 .5 1 1v4.4c0 .6.5 1 1 1 .6 0 1-.5 1-1V3c0-.6-.5-1-1-1s-.9.3-1 .8c-.2.5-.7.8-1.2.8h-.9c-1.1 0-2 .9-2 2v16.3c0 1.1.9 2 2 2h12.5c1.1 0 2-.9 2-2 0-.6.5-1 1-1 .6 0 1 .5 1 1 0 2.2-1.8 4.1-4.1 4.1H6.8c-2.2 0-4.1-1.8-4.1-4.1V5.6c0-2.2 1.8-4.1 4.1-4.1h.4C7.7.6 8.7 0 9.8 0s2.1.6 2.7 1.6h6.8c2.2 0 4.1 1.8 4.1 4.1v11.2c0 .6-.5 1-1 1-.7 0-1.1-.5-1.1-1zm-13.5 3c-.6 0-1 .5-1 1 0 .6.5 1 1 1h7.4c.6 0 1-.5 1-1 0-.6-.5-1-1-1H7.8zm11.4-3c0-.6-.5-1-1-1H7.8c-.6 0-1 .5-1 1 0 .6.5 1 1 1h10.4c.5 0 1-.4 1-1zm-1-5h-2.3c-.6 0-1 .5-1 1s.5 1 1 1h2.3c.6 0 1-.5 1-1s-.5-1-1-1zm0-4h-2.3c-.6 0-1 .5-1 1s.5 1 1 1h2.3c.6 0 1-.5 1-1s-.5-1-1-1z" fill="#4c51cc"/></svg>