<svg width="22" height="22" viewBox="0 0 22 22" fill="none" xmlns="http://www.w3.org/2000/svg">
<path d="M0 18.0714C0 17.4008 0.543654 16.8571 1.21429 16.8571H19.8333C20.504 16.8571 21.0476 17.4008 21.0476 18.0714C21.0476 18.7421 20.504 19.2857 19.8333 19.2857H1.21429C0.543654 19.2857 0 18.7421 0 18.0714Z" fill="#4C51CC"/>
<path d="M0 3.21429C0 2.54365 0.543654 2 1.21429 2H16.5952C17.2659 2 17.8095 2.54365 17.8095 3.21429C17.8095 3.88492 17.2659 4.42857 16.5952 4.42857H1.21429C0.543654 4.42857 0 3.88492 0 3.21429Z" fill="#4C51CC"/>
<path d="M0 10.6429C0 9.97223 0.543654 9.42857 1.21429 9.42857H13.3571C14.0278 9.42857 14.5714 9.97223 14.5714 10.6429C14.5714 11.3135 14.0278 11.8571 13.3571 11.8571H1.21428C0.543653 11.8571 0 11.3135 0 10.6429Z" fill="#4C51CC"/>
</svg>
