<svg version="1.1" id="Layer_1" xmlns="http://www.w3.org/2000/svg" x="0" y="0" viewBox="0 0 16 16" xml:space="preserve"><style>.st0{fill:#4c51cc}</style><path class="st0" d="M11.6 7.3c.3 0 .5-.2.5-.5s-.2-.5-.5-.5-.6.1-.6.4.3.6.6.6z"/><path class="st0" d="M12.8 2.1h-.7v-.6c0-.3-.2-.5-.5-.5s-.6.2-.6.5V2H8.5v-.5c0-.3-.2-.5-.5-.5s-.6.2-.6.5V2H5v-.5c0-.3-.3-.5-.6-.5s-.5.2-.5.5V2h-.7C2 2.1 1 3.1 1 4.3v8.5C1 14 2 15 3.2 15h4.2c.3 0 .5-.2.5-.5s-.2-.5-.5-.5H3.2c-.6 0-1.1-.5-1.1-1.1V4.3c0-.6.5-1.1 1.1-1.1h.7v.5c0 .3.2.5.5.5.3.1.6-.2.6-.5v-.5h2.5v.5c-.1.3.2.6.5.6s.5-.3.5-.6v-.5H11v.5c0 .3.2.5.5.5s.5-.2.5-.5v-.5h.7c.6 0 1.1.5 1.1 1.1v3.1c0 .3.2.5.5.5s.5-.2.5-.5V4.3c.2-1.2-.8-2.2-2-2.2z"/><path class="st0" d="M11.7 8.4c-1.8 0-3.3 1.5-3.3 3.3 0 1.8 1.5 3.3 3.3 3.3 1.8 0 3.3-1.5 3.3-3.3 0-1.8-1.5-3.3-3.3-3.3zm0 5.5c-1.2 0-2.2-1-2.2-2.2s1-2.2 2.2-2.2c1.2 0 2.2 1 2.2 2.2s-1 2.2-2.2 2.2z"/><path class="st0" d="M12.5 11.1h-.2v-.6c0-.3-.2-.5-.5-.5s-.5.2-.5.5v1.1c0 .3.2.5.5.5h.8c.3 0 .5-.2.5-.5s-.3-.5-.6-.5zM9.2 7.3c.3 0 .5-.2.5-.5s-.2-.6-.5-.6-.5.2-.5.5.2.6.5.6zM6.8 9.7c.3 0 .5-.2.5-.5s-.2-.6-.5-.6-.5.2-.5.5.2.6.5.6zM4.4 7.3c.3 0 .6-.3.6-.6s-.3-.5-.6-.5-.5.2-.5.5.2.6.5.6zm0 2.4c.3 0 .6-.3.6-.6s-.3-.5-.6-.5-.5.2-.5.5.2.6.5.6zm0 2.3c.3 0 .6-.2.6-.5s-.3-.5-.6-.5-.5.2-.5.5.2.5.5.5zm2.4 0c.3 0 .5-.2.5-.5s-.2-.5-.5-.5-.5.2-.5.5.2.5.5.5zm0-4.7c.3 0 .5-.2.5-.5s-.2-.6-.5-.6-.5.2-.5.5.2.6.5.6z"/></svg>