<svg width="48" height="48" fill="none" xmlns="http://www.w3.org/2000/svg"><path d="M35.984 25.73c.561 0 1.016-.454 1.016-1.015v-6.652A4.067 4.067 0 0032.937 14H15.064A4.067 4.067 0 0011 18.063v11.73a4.067 4.067 0 004.063 4.063h17.874A4.067 4.067 0 0037 29.793a1.016 1.016 0 10-2.031 0c0 1.12-.912 2.031-2.032 2.031H15.064a2.034 2.034 0 01-2.032-2.031V18.278l8.824 5.486a4.056 4.056 0 002.145.617c.742 0 1.484-.205 2.145-.617l8.824-5.486v6.437c0 .56.454 1.015 1.015 1.015zm-10.911-3.69a2.019 2.019 0 01-2.146 0l-9.048-5.627a2.02 2.02 0 011.184-.382h17.874c.442 0 .85.142 1.184.382l-9.048 5.626z" fill="#E0E0E0"/></svg>