<svg width="48" height="48" fill="none" xmlns="http://www.w3.org/2000/svg"><path d="M32.58 27.86V16.636c0-1.12-.91-2.032-2.031-2.032h-6.393v7.262a3.05 3.05 0 01-3.047 3.047 3.05 3.05 0 01-3.047-3.047V17.5a1.016 1.016 0 112.032 0v4.367a1.017 1.017 0 002.031 0v-7.82c0-.56-.456-1.016-1.016-1.016-.468 0-.885.33-.99.786a1.015 1.015 0 01-1.065.784.993.993 0 01-.077.004h-.915c-1.12 0-2.03.912-2.03 2.032v16.3c0 1.12.91 2.032 2.03 2.032H30.55c1.12 0 2.031-.912 2.031-2.032a1.015 1.015 0 112.032 0A4.067 4.067 0 0130.549 37H18.063A4.067 4.067 0 0114 32.937v-16.3a4.067 4.067 0 014.063-4.063h.377a3.049 3.049 0 015.336 0h6.773a4.067 4.067 0 014.062 4.063v11.222a1.016 1.016 0 11-2.03 0zm-13.502 3.046a1.016 1.016 0 000 2.032h7.363a1.016 1.016 0 100-2.032h-7.363zm11.426-2.996c0-.56-.455-1.015-1.016-1.015h-10.41a1.016 1.016 0 000 2.03h10.41c.561 0 1.016-.454 1.016-1.015zm-1.016-4.976h-2.336a1.016 1.016 0 100 2.03h2.336a1.015 1.015 0 100-2.03zm0-4.012h-2.336a1.016 1.016 0 100 2.031h2.336a1.015 1.015 0 100-2.031z" fill="#E0E0E0"/></svg>