<svg width="48" height="48" fill="none" xmlns="http://www.w3.org/2000/svg"><path d="M36.705 23.473L26.123 12.82a3.044 3.044 0 00-4.146-.009L11.298 23.469a1.016 1.016 0 001.435 1.438l.806-.804v8.769a4.067 4.067 0 004.063 4.062h3.656c.56 0 1.015-.454 1.015-1.015V27.64h3.555v8.278c0 .56.455 1.015 1.016 1.015h3.554a4.067 4.067 0 004.063-4.062 1.016 1.016 0 00-2.031 0c0 1.12-.912 2.031-2.032 2.031H27.86v-8.277c0-.561-.454-1.016-1.015-1.016h-5.586c-.561 0-1.016.455-1.016 1.016v8.277h-2.64a2.034 2.034 0 01-2.032-2.031V22.076l7.818-7.803c.38-.323.938-.322 1.317.003l7.725 7.775v5.743a1.016 1.016 0 002.03 0v-3.698l.804.808a1.012 1.012 0 001.436.005c.398-.395.4-1.038.005-1.436z" fill="#E0E0E0"/></svg>