<svg xmlns="http://www.w3.org/2000/svg" viewBox="0 0 26 26"><path d="M25.7 12L15.1 1.4c-1.2-1-2.9-1-4.1 0L.3 12c-.4.4-.4 1 0 1.4.4.4 1 .4 1.4 0l.8-.8v8.8c0 2.2 1.8 4.1 4.1 4.1h3.7c.6 0 1-.5 1-1v-8.3h3.6v8.3c0 .6.5 1 1 1h3.6c2.2 0 4.1-1.8 4.1-4.1 0-.6-.5-1-1-1-.6 0-1 .5-1 1 0 1.1-.9 2-2 2h-2.5v-8.3c0-.6-.5-1-1-1h-5.6c-.6 0-1 .5-1 1v8.3H6.6c-1.1 0-2-.9-2-2V10.6l7.8-7.8c.4-.3.9-.3 1.3 0l7.7 7.8v5.7c0 .6.5 1 1 1 .6 0 1-.5 1-1v-3.7l.8.8c.2.2.5.3.7.3.3 0 .5-.1.7-.3.5-.4.5-1 .1-1.4z" fill="#fff"/></svg>