<svg width="48" height="48" viewBox="0 0 48 48" xmlns="http://www.w3.org/2000/svg">
<symbol id="home-ico">
   <path d="M36.7049 23.4725L26.1225 12.8205C26.109 12.8068 26.0949 12.7935 26.0806 12.7806C24.9251 11.7431 23.179 11.7394 22.019 12.772C22.0046 12.7849 21.9906 12.7981 21.9769 12.8117L11.2982 23.4694C10.9012 23.8657 10.9005 24.5088 11.2968 24.9058C11.6931 25.3028 12.3361 25.3034 12.7331 24.9072L13.5391 24.1028V32.8719C13.5391 35.112 15.3615 36.9344 17.6016 36.9344H21.2578C21.8187 36.9344 22.2734 36.4797 22.2734 35.9188V27.6414H25.8281V35.9188C25.8281 36.4797 26.2828 36.9344 26.8437 36.9344H30.3984C32.6385 36.9344 34.4609 35.112 34.4609 32.8719C34.4609 32.311 34.0062 31.8563 33.4453 31.8563C32.8844 31.8563 32.4297 32.311 32.4297 32.8719C32.4297 33.9919 31.5185 34.9031 30.3984 34.9031H27.8594V26.6258C27.8594 26.0649 27.4047 25.6102 26.8437 25.6102H21.2578C20.6969 25.6102 20.2422 26.0649 20.2422 26.6258V34.9031H17.6016C16.4815 34.9031 15.5703 33.9919 15.5703 32.8719V22.1063C15.5703 22.0961 15.5702 22.086 15.5698 22.076L23.3879 14.2734C23.7684 13.9502 24.3265 13.9515 24.7055 14.2762L32.4297 22.0513V27.7938C32.4297 28.3547 32.8844 28.8094 33.4453 28.8094C34.0062 28.8094 34.4609 28.3547 34.4609 27.7938V24.0959L35.2639 24.9042C35.4624 25.104 35.7233 25.204 35.9844 25.204C36.2432 25.204 36.5021 25.1056 36.7002 24.9088C37.0981 24.5135 37.1002 23.8705 36.7049 23.4725Z"/>
</symbol>

</svg>
