<svg xmlns="http://www.w3.org/2000/svg" xmlns:xlink="http://www.w3.org/1999/xlink" viewBox="0 0 26 26"><defs><path id="a" d="M0 0h26v26H0z"/></defs><clipPath id="b"><use xlink:href="#a" overflow="visible"/></clipPath><g clip-path="url(#b)"><path d="M9.3 5c-.6 0-1-.4-1-1 0-.2 0-1.7 1.1-2.9.8-.7 1.8-1.1 3.1-1.1 1.2 0 2.4.6 3.7 1.2 1.5.7 3.1 1.5 4.8 1.5.6 0 2.2-.2 3-2 .2-.5.8-.7 1.3-.5.5.2.7.8.5 1.3-.9 2-2.7 3.2-4.9 3.2s-4.2-.9-5.7-1.7c-1.1-.5-2.1-1-2.8-1-.7 0-1.3.2-1.6.5-.5.6-.5 1.5-.5 1.5 0 .6-.4 1-1 1zm14.9 1.2c.4-.4 1-.5 1.4-.1.4.4.5 1 .1 1.4-1.5 1.8-3.3 1.3-4.4 1-1.1-.3-1.4-.3-1.7.1-.2.3-.5.4-.8.4-.2 0-.4-.1-.6-.2-.4-.3-.5-1-.2-1.4.5-.7 1.2-1 2-1.1.6 0 1.2.1 1.8.3 1.2.3 1.8.4 2.4-.4zm1.3 16.9c-.2-.5-.7-.9-1.3-.7-.5.2-.9.7-.7 1.3l.1.3h-5.1l-1.8-6.7h1.5c.6 0 1-.5 1-1 0-.6-.5-1-1-1h-2l-.7-2.5h5.8v3l1 3.5c.1.4.5.7 1 .7h.3c.5-.2.9-.7.7-1.3l-1-3.4v-3.6c0-.6-.5-1-1-1h-6.8v-3c0-.6-.5-1-1-1H4.4c-.6 0-1 .5-1 1v5.1L0 24.7c0 .3 0 .6.2.9.2.3.5.4.8.4h24c.3 0 .6-.1.8-.4.2-.3.2-.6.2-.9l-.5-1.6zM2.3 24l2.6-9.2h5.5c.6 0 1-.5 1-1 0-.6-.5-1-1-1h-5V8.6h8v4.5l3 10.9H2.3zM5.7 5s-.1 0 0 0c-.6 0-1-.4-1.1-1 0-.1-.1-2.1 1.1-3.7.4-.4 1-.5 1.4-.2.4.4.5 1 .2 1.4-.7 1.1-.7 2.4-.7 2.5.1.5-.4 1-.9 1z" fill="#e0e0e0"/></g></svg>