<svg width="48" height="48" fill="none" xmlns="http://www.w3.org/2000/svg"><path d="M20.293 16.033A1.021 1.021 0 0021.308 15c0-.008.011-.863.56-1.422.357-.363.904-.547 1.629-.547h.007c.743 0 1.697.456 2.801.984 1.546.738 3.47 1.657 5.713 1.657h.038c2.132 0 3.947-1.2 4.854-3.21a1.016 1.016 0 10-1.851-.836c-.821 1.818-2.374 2.015-3.003 2.015h-.038c-1.784 0-3.336-.742-4.837-1.46C25.909 11.575 24.707 11 23.508 11c-1.293-.003-2.332.385-3.088 1.154-1.138 1.158-1.145 2.708-1.142 2.88.009.556.462 1 1.015.999zm16.351 1.101a1.016 1.016 0 00-1.432.113c-.642.751-1.216.637-2.35.33-.57-.155-1.161-.314-1.787-.282-.816.041-1.5.407-2.033 1.085a1.016 1.016 0 001.597 1.255c.31-.394.547-.407 1.692-.098 1.163.315 2.92.791 4.425-.971a1.016 1.016 0 00-.112-1.432z" fill="#E0E0E0"/><path d="M36.496 34.08a1.015 1.015 0 10-1.953.559l.094.33h-5.09l-1.843-6.703h1.476a1.016 1.016 0 000-2.032h-2.035l-.698-2.539h5.78v2.703c0 .095.013.189.038.28l1 3.492a1.016 1.016 0 101.952-.559l-.96-3.355V22.68c0-.561-.454-1.016-1.015-1.016h-6.805v-3.047c0-.56-.454-1.015-1.015-1.015H15.367c-.56 0-1.016.454-1.016 1.015v5.093l-3.314 12.004A1.016 1.016 0 0012.016 37h23.968a1.016 1.016 0 00.977-1.295l-.465-1.625zm-23.146.889l2.552-9.242h5.457a1.016 1.016 0 000-2.032h-4.976v-4.062h8.023v4.164c0 .09.012.181.036.27l2.999 10.902H13.35zm3.28-18.942a1.016 1.016 0 001.015-1.072c0-.013-.053-1.365.699-2.305a1.016 1.016 0 00-1.586-1.269c-1.244 1.555-1.146 3.6-1.141 3.687.03.541.478.96 1.013.96z" fill="#E0E0E0"/></svg>