<svg width="48" height="48" fill="none" xmlns="http://www.w3.org/2000/svg"><path fill="#EBECF8" d="M0 0h48v48H0z"/><path d="M34.015 25.678a.814.814 0 00-.813.814v5.085a1.63 1.63 0 01-1.628 1.627h-14.32c-.897 0-1.627-.73-1.627-1.627v-.082c0-.897.73-1.627 1.627-1.627h1.664c.45 0 .814-.364.814-.813v-8.096h1.51a.814.814 0 000-1.627h-1.51v-2.034a.813.813 0 00-.814-.814h-1.663A3.258 3.258 0 0014 19.74v11.838a3.258 3.258 0 003.255 3.254h14.32a3.258 3.258 0 003.254-3.254v-5.085a.814.814 0 00-.814-.814zm-18.388-5.94c0-.897.73-1.627 1.627-1.627h.85v10.13h-.85c-.592 0-1.148.16-1.627.437v-8.94zm13.588 2.393a2.444 2.444 0 01-2.441-2.44 2.444 2.444 0 012.44-2.442 2.444 2.444 0 012.442 2.441.814.814 0 11-1.628 0 .814.814 0 10-.813.814.814.814 0 110 1.627zm-.803 5.365a.813.813 0 00.688.379h.311a.814.814 0 00.688-.379c.555-.878 1.258-1.648 1.939-2.393 1.39-1.524 2.83-3.1 2.832-5.495A5.622 5.622 0 0029.256 14a5.622 5.622 0 00-5.614 5.61c.002 2.394 1.44 3.97 2.832 5.493.68.745 1.383 1.515 1.938 2.393zm.844-11.869a3.992 3.992 0 013.986 3.98c-.001 1.765-1.116 2.986-2.406 4.399-.533.583-1.078 1.18-1.58 1.85-.502-.67-1.048-1.267-1.58-1.85-1.291-1.413-2.405-2.634-2.407-4.397a3.992 3.992 0 013.987-3.982z" fill="#4C51CC"/></svg>