<svg width="48" height="48" fill="none" xmlns="http://www.w3.org/2000/svg"><path d="M28.938 27.845c.186.294.51.473.858.473h.389c.348 0 .672-.179.858-.473.693-1.096 1.57-2.057 2.42-2.987 1.736-1.902 3.532-3.868 3.535-6.859C36.993 14.139 33.85 11 29.99 11s-7.003 3.14-7.008 7.001c.003 2.99 1.799 4.955 3.535 6.857.85.93 1.727 1.891 2.42 2.987zm1.053-14.814c2.74 0 4.972 2.23 4.976 4.968-.003 2.203-1.393 3.726-3.004 5.49-.665.727-1.346 1.473-1.973 2.31-.626-.837-1.307-1.583-1.972-2.31-1.61-1.764-3.001-3.288-3.004-5.488a4.983 4.983 0 014.977-4.97z" fill="#E0E0E0"/><path d="M30.955 20.133c0-.56-.454-1.015-1.015-1.015a1.017 1.017 0 010-2.031c.56 0 1.015.455 1.015 1.015a1.016 1.016 0 102.031 0 3.05 3.05 0 00-3.046-3.046 3.05 3.05 0 00-3.047 3.046 3.05 3.05 0 003.047 3.047c.56 0 1.015-.455 1.015-1.016z" fill="#E0E0E0"/><path d="M35.982 25.473c-.561 0-1.016.455-1.016 1.016v7.437c0 .35-.166.663-.457.862a.986.986 0 01-.926.112 1.224 1.224 0 00-.05-.018l-3.831-1.263a5.573 5.573 0 00-3.348-.168l-5.316 1.38a4.286 4.286 0 01-2.114.01l-4.351-1.08a2.027 2.027 0 01-1.542-1.971V14.049c0-.342.162-.648.444-.84.283-.192.627-.23.945-.105a.949.949 0 00.047.018l3.792 1.28a5.595 5.595 0 003.036.264 1.016 1.016 0 00-.381-1.995 3.566 3.566 0 01-1.987-.186l-3.788-1.28A3.044 3.044 0 0011 14.05v17.74a4.055 4.055 0 003.084 3.943l4.35 1.081a6.33 6.33 0 003.115-.016l5.316-1.38a3.552 3.552 0 012.184.125l3.827 1.262a3.03 3.03 0 002.78-.34 3.076 3.076 0 001.342-2.538V26.49c0-.56-.454-1.016-1.015-1.016z" fill="#E0E0E0"/><path d="M19.987 20.346a1.015 1.015 0 100 2.03 1.015 1.015 0 000-2.03zm0 3.656a1.015 1.015 0 100 2.03 1.015 1.015 0 000-2.03zm0 3.655a1.015 1.015 0 100 2.03 1.015 1.015 0 000-2.03zm0-10.967a1.015 1.015 0 100 2.031 1.015 1.015 0 000-2.03zm0 14.624a1.015 1.015 0 100 2.03 1.015 1.015 0 000-2.03z" fill="#E0E0E0"/></svg>