<svg width="26" height="26" fill="none" xmlns="http://www.w3.org/2000/svg"><path d="M17.939 16.845c.186.294.51.473.858.473h.389c.348 0 .672-.179.858-.473.693-1.096 1.57-2.057 2.42-2.987 1.736-1.902 3.532-3.868 3.535-6.859C25.994 3.139 22.85 0 18.992 0c-3.86 0-7.003 3.14-7.007 7.001.003 2.99 1.798 4.955 3.535 6.857.849.93 1.726 1.891 2.419 2.987zm1.053-14.814c2.74 0 4.973 2.23 4.976 4.968-.002 2.202-1.393 3.726-3.004 5.49-.665.727-1.346 1.473-1.972 2.31-.627-.837-1.308-1.583-1.973-2.31C15.41 10.725 14.018 9.2 14.016 7a4.983 4.983 0 014.976-4.97z" fill="#E0E0E0"/><path d="M19.956 9.133c0-.56-.454-1.015-1.015-1.015a1.017 1.017 0 010-2.031c.56 0 1.015.455 1.015 1.015a1.015 1.015 0 102.031 0 3.05 3.05 0 00-3.046-3.046 3.05 3.05 0 00-3.047 3.046 3.05 3.05 0 003.047 3.047c.56 0 1.015-.455 1.015-1.016z" fill="#E0E0E0"/><path d="M24.983 14.473c-.56 0-1.015.455-1.015 1.016v7.437c0 .35-.167.664-.458.862a.986.986 0 01-.926.112 1.228 1.228 0 00-.05-.018l-3.831-1.263a5.573 5.573 0 00-3.348-.168l-5.316 1.38c-.69.18-1.422.183-2.114.01l-4.351-1.08a2.028 2.028 0 01-1.542-1.971V3.049a1 1 0 01.445-.84c.282-.192.626-.23.944-.105l.048.018L7.26 3.403a5.596 5.596 0 003.037.263 1.016 1.016 0 00-.382-1.994 3.566 3.566 0 01-1.987-.187L4.141.205A3.044 3.044 0 000 3.05v17.74a4.055 4.055 0 003.083 3.943l4.351 1.081a6.33 6.33 0 003.114-.016l5.317-1.38a3.553 3.553 0 012.183.125l3.827 1.262a3.03 3.03 0 002.781-.34 3.076 3.076 0 001.341-2.538V15.49c0-.56-.454-1.016-1.015-1.016z" fill="#E0E0E0"/><path d="M8.989 9.346a1.015 1.015 0 100 2.03 1.015 1.015 0 000-2.03zm0 3.656a1.015 1.015 0 10-.001 2.03 1.015 1.015 0 000-2.03zm0 3.655a1.015 1.015 0 100 2.03 1.015 1.015 0 000-2.03zm0-10.967a1.015 1.015 0 100 2.03 1.015 1.015 0 000-2.03zm0 14.624a1.015 1.015 0 10-.001 2.03 1.015 1.015 0 000-2.03z" fill="#E0E0E0"/></svg>