<svg width="16" height="16" fill="none" xmlns="http://www.w3.org/2000/svg"><path d="M7.41 11.438V8.623H4.596a.625.625 0 110-1.25h2.812V4.531a.625.625 0 111.25 0v2.843h2.813a.625.625 0 110 1.25H8.659v2.813a.625.625 0 11-1.25 0z" fill="#4C51CB"/><path d="M1.153 12.14a.625.625 0 101.069-.648A6.738 6.738 0 011.25 8 6.758 6.758 0 018 1.25 6.758 6.758 0 0114.75 8 6.758 6.758 0 018 14.75a6.723 6.723 0 01-3.746-1.145.625.625 0 10-.695 1.04A7.97 7.97 0 008 16a7.948 7.948 0 005.657-2.343A7.948 7.948 0 0016 8a7.948 7.948 0 00-2.343-5.657A7.948 7.948 0 008 0a7.948 7.948 0 00-5.657 2.343A7.948 7.948 0 000 8c0 1.463.399 2.894 1.153 4.14z" fill="#4C51CB"/></svg>