<svg xmlns="http://www.w3.org/2000/svg" xmlns:xlink="http://www.w3.org/1999/xlink" viewBox="0 0 26 26"><defs><path id="a" d="M0 0h26v26H0z"/></defs><clipPath id="b"><use xlink:href="#a" overflow="visible"/></clipPath><g clip-path="url(#b)"><path d="M23.5 7.5v.7C25 9.3 26 11.1 26 13s-.8 3.4-2.2 4.5c-1.2.9-2.4 1.2-2.4 1.2h-.2c-.5 0-.9-.3-1-.8-.1-.5.2-1.1.8-1.2.1 0 3-.7 3-3.7 0-1.4-.8-2.7-2-3.3-.4-.2-.5-.5-.5-.9V7.5c0-2.7-2.2-4.9-4.9-4.9-2.4 0-4.5 1.8-4.8 4.1-.1.4-.3.7-.7.8-.4.1-.8 0-1-.3-.6-.4-1.3-.8-2-.8-1.4 0-2.5 1.1-2.5 2.5v1.8c0 .6-.5 1-1 1-1.4 0-2.5 1.1-2.5 2.5s1.1 2.5 2.4 2.5H5c.6 0 1 .5 1 1 0 .6-.5 1-1 1h-.5c-1.2 0-2.3-.5-3.2-1.3-.8-.8-1.3-2-1.3-3.2 0-2.1 1.5-4 3.6-4.4v-.9c0-2.5 2-4.5 4.5-4.5.7 0 1.4.2 2.1.5.4-1 1.1-1.9 1.9-2.6C13.4 1.2 15 .6 16.6.6c3.8 0 6.9 3.1 6.9 6.9zM16 15.9v.8c1.3.2 2.2 1.2 2.2 2.5v5.1c0 .6-.5 1-1 1H8.7c-.6 0-1-.5-1-1v-5.1c0-1.3 1-2.4 2.2-2.5v-.8c0-1.7 1.4-3 3-3 1.8 0 3.1 1.4 3.1 3zm-3-.9c-.6 0-1 .4-1 1v.8h2V16c0-.6-.4-1-1-1zm-3.2 8.4h6.5v-4.1c0-.3-.2-.5-.5-.5h-5.5c-.3 0-.5.2-.5.5v4.1z" fill="#e0e0e0"/></g></svg>