<svg width="148" height="72" fill="none" xmlns="http://www.w3.org/2000/svg"><path d="M0 72V41.918S5.427 23.67 12.827 23.67 18.45 36 29.107 36C40.453 36 39.467 0 50.32 0c10.853 0 6.907 26.137 19.24 26.137 10.36 0 7.893-18.74 15.293-18.74 11.347 0 7.203 34.52 20.227 34.52 9.867 0 15.293-32.547 25.653-32.547S148 41.918 148 41.918V72H0z" fill="url(#paint0_radial)"/><path d="M1.184 41.425c.197-.493.395-1.184.69-2.072.593-1.676 1.48-3.945 2.665-6.213 1.085-2.269 2.466-4.439 3.946-6.017 1.48-1.676 2.96-2.564 4.44-2.564 1.48 0 2.566.592 3.454 1.578.789.888 1.381 1.973 2.17 3.156.198.296.296.592.494.888.888 1.578 1.973 3.255 3.552 4.537 1.677 1.282 3.749 2.17 6.61 2.17 3.454 0 5.723-2.762 7.499-6.214 1.677-3.452 3.059-8.088 4.243-12.526l.098-.197c1.283-4.439 2.467-8.778 3.947-11.935 1.48-3.353 3.256-5.03 5.328-5.03 2.17 0 3.75 1.282 5.032 3.551 1.184 2.17 2.072 5.129 2.96 8.186.099.197.099.395.197.592.987 3.255 1.974 6.608 3.651 9.271 1.677 2.663 3.947 4.537 7.499 4.537 2.96 0 5.032-1.38 6.512-3.353 1.48-1.874 2.368-4.34 3.157-6.707.099-.394.296-.789.395-1.183.69-1.973 1.282-3.65 1.973-5.03.888-1.677 1.875-2.466 3.157-2.466 2.171 0 3.848 1.676 5.23 4.832 1.282 2.96 2.17 6.806 3.058 10.85.099.296.099.591.198.887.986 4.34 2.072 8.68 3.749 12.132 1.677 3.353 4.144 5.918 7.992 5.918 1.48 0 2.861-.592 4.144-1.578 1.184-.987 2.368-2.367 3.453-3.945 2.072-3.058 3.947-7.003 5.822-10.948l.197-.296c1.973-4.044 3.848-8.088 5.92-11.047 2.072-3.057 4.144-4.636 6.216-4.636s4.144 1.677 6.216 4.636 3.848 6.904 5.328 10.948a122.66 122.66 0 013.453 11.145c.395 1.48.691 2.762.888 3.65.099.394.198.788.198.986v.198h.986s-6.906-32.549-17.266-32.549c-5.23 0-9.176 8.384-13.123 16.57-3.848 7.989-7.597 15.978-12.531 15.978-6.709 0-8.88-9.271-10.952-18.148-1.973-8.285-3.749-16.372-9.274-16.372-3.355 0-4.736 3.945-6.118 8.186-1.677 5.03-3.552 10.553-9.176 10.553-6.314 0-8.386-7.003-10.36-13.71C57.325 6.116 55.55 0 50.32 0c-5.328 0-7.795 8.778-10.36 17.655C37.395 26.729 34.83 36 29.107 36c-5.822 0-7.894-3.65-9.867-7.003-1.579-2.761-3.059-5.326-6.413-5.326C5.427 23.671 0 41.918 0 41.918h.987c.098-.099.098-.296.197-.493z" fill="#4A4D86"/><defs><radialGradient id="paint0_radial" cx="0" cy="0" r="1" gradientUnits="userSpaceOnUse" gradientTransform="matrix(0 52.274 -107.453 0 74.002 13.81)"><stop stop-color="#4A4D86" stop-opacity=".2"/><stop offset="1" stop-color="#4A4D86" stop-opacity="0"/></radialGradient></defs></svg>