<svg xmlns="http://www.w3.org/2000/svg" viewBox="0 0 26 26"><path d="M22.4 9.4h.6c1.7 0 3 1.4 3 3v1c0 1.7-1.4 3-3 3h-.5c-.1 0-.3.1-.3.2-.1.1 0 .3.1.4l.4.4c.6.6.9 1.3.9 2.2 0 .8-.3 1.6-.9 2.2l-.7.7c-.6.6-1.3.9-2.2.9s-1.6-.3-2.2-.9l-.4-.4c-.1-.1-.2-.1-.4-.1-.1.1-.2.2-.2.3v.7c0 1.7-1.4 3-3 3h-1c-1.7 0-3-1.4-3-3v-.5c0-.1-.1-.3-.2-.3-.1-.1-.3 0-.4.1l-.4.4c-.6.6-1.3.9-2.2.9-.8 0-1.6-.3-2.2-.9l-.7-.7c-.6-.6-.9-1.3-.9-2.2 0-.8.3-1.6.9-2.2l.4-.4c.1-.1.1-.2.1-.4-.1-.1-.2-.2-.3-.2H3c-1.7 0-3-1.4-3-3v-1c0-1.7 1.4-3 3-3h.5c.1 0 .3-.1.3-.2.1-.1 0-.3-.1-.4l-.3-.5c-1.2-1.2-1.2-3.1 0-4.3l.7-.7c.6-.6 1.3-.9 2.2-.9s1.6.3 2.2.9l.4.4c.1.1.2.1.4.1.1-.1.2-.2.2-.3V3c0-1.7 1.4-3 3-3h1c1.7 0 3 1.4 3 3v.5c0 .1.1.3.2.3.1.1.3 0 .4-.1l.4-.4c.6-.6 1.3-.9 2.2-.9.8 0 1.6.3 2.2.9l.7.7c1.2 1.2 1.2 3.1 0 4.3l-.4.4c-.1.1-.1.2-.1.4.1.3.2.3.3.3zm.6 5.1c.6 0 1-.5 1-1v-1c0-.6-.5-1-1-1h-.5c-1 0-1.8-.6-2.2-1.5-.4-.9-.2-1.9.5-2.6l.3-.4c.4-.4.4-1 0-1.4l-.7-.7c-.2-.2-.4-.3-.7-.3-.3 0-.5.1-.7.3l-.4.4c-.7.7-1.7.9-2.6.5-.9-.4-1.5-1.2-1.5-2.2V3c0-.6-.5-1-1-1h-1c-.6 0-1 .5-1 1v.5c0 1-.6 1.8-1.5 2.2-.9.4-1.9.2-2.6-.5L7 4.9c-.2-.2-.4-.3-.7-.3-.3 0-.5.1-.7.3l-.7.7c-.4.4-.4 1 0 1.4l.4.4c.6.7.8 1.7.5 2.6-.4.9-1.2 1.5-2.2 1.5H3c-.6 0-1 .5-1 1v1c0 .6.5 1 1 1h.5c1 0 1.8.6 2.2 1.5.4.9.2 1.9-.5 2.6l-.3.4c-.2.2-.3.4-.3.7 0 .3.1.5.3.7l.7.7c.2.2.4.3.7.3.3 0 .5-.1.7-.3l.4-.4c.5-.5 1.1-.7 1.7-.7.3 0 .6.1.9.2.9.4 1.5 1.2 1.5 2.2v.6c0 .6.5 1 1 1h1c.6 0 1-.5 1-1v-.5c0-1 .6-1.8 1.5-2.2.9-.4 1.9-.2 2.6.5l.4.4c.2.2.4.3.7.3.3 0 .5-.1.7-.3l.7-.7c.2-.2.3-.4.3-.7 0-.3-.1-.5-.3-.7l-.4-.4c-.7-.7-.9-1.7-.5-2.6.4-.9 1.2-1.5 2.2-1.5h.6zM7.1 13c0-3.2 2.6-5.9 5.9-5.9 3.2 0 5.9 2.6 5.9 5.9 0 .6-.1 1.1-.2 1.7-.2.5-.7.8-1.3.7-.5-.2-.8-.7-.7-1.3.1-.4.2-.7.2-1.1 0-2.1-1.7-3.9-3.9-3.9S9.1 10.9 9.1 13s1.7 3.9 3.9 3.9c.4 0 .8-.1 1.2-.2.5-.2 1.1.1 1.3.7.2.5-.1 1.1-.7 1.3-.6.2-1.2.3-1.8.3-3.2-.1-5.9-2.8-5.9-6z" fill="#e0e0e0"/></svg>