<svg width="48" height="48" fill="none" xmlns="http://www.w3.org/2000/svg"><path d="M24 18.11A5.897 5.897 0 0018.11 24a5.897 5.897 0 007.67 5.617 1.016 1.016 0 10-.614-1.937A3.864 3.864 0 0120.14 24 3.864 3.864 0 0124 20.14a3.864 3.864 0 013.705 4.946 1.016 1.016 0 001.95.57A5.897 5.897 0 0024 18.11z" fill="#E0E0E0"/><path d="M33.953 20.445h-.511a.338.338 0 01-.31-.212l-.009-.022a.34.34 0 01.067-.374l.362-.361a3.05 3.05 0 000-4.31l-.719-.717a3.027 3.027 0 00-2.154-.893c-.814 0-1.58.317-2.154.893l-.362.361a.34.34 0 01-.373.067l-.02-.008a.34.34 0 01-.215-.31v-.512A3.05 3.05 0 0024.508 11h-1.016a3.05 3.05 0 00-3.047 3.047v.511a.339.339 0 01-.214.31l-.02.009a.34.34 0 01-.374-.067l-.361-.361a3.027 3.027 0 00-2.155-.893c-.814 0-1.579.317-2.154.893l-.719.718a3.05 3.05 0 000 4.309l.362.361a.342.342 0 01.065.378l-.006.014a.34.34 0 01-.31.216h-.512A3.05 3.05 0 0011 23.492v1.016a3.05 3.05 0 003.047 3.047h.511c.135 0 .257.084.31.212l.009.022a.34.34 0 01-.067.374l-.362.361a3.027 3.027 0 00-.892 2.155c0 .814.317 1.579.893 2.154l.718.718c.575.576 1.34.893 2.154.893.814 0 1.58-.317 2.155-.893l.361-.361a.34.34 0 01.373-.067l.02.008a.34.34 0 01.215.31v.512A3.05 3.05 0 0023.492 37h1.016a3.05 3.05 0 003.047-3.047v-.511c0-.135.084-.257.214-.31l.02-.009a.34.34 0 01.374.067l.361.361a3.027 3.027 0 002.155.893c.814 0 1.579-.317 2.154-.893l.718-.718c.576-.575.893-1.34.893-2.154 0-.814-.317-1.58-.893-2.155l-.361-.361a.34.34 0 01-.067-.374l.008-.018a.34.34 0 01.31-.216h.512A3.05 3.05 0 0037 24.508v-1.016a3.05 3.05 0 00-3.047-3.047zm1.016 4.063c0 .56-.456 1.015-1.016 1.015h-.511c-.96 0-1.82.578-2.189 1.472l-.006.016c-.37.894-.172 1.91.506 2.588l.362.362c.192.192.298.447.298.718 0 .271-.106.526-.298.718l-.718.718a1.01 1.01 0 01-.718.298 1.01 1.01 0 01-.718-.298l-.362-.362a2.365 2.365 0 00-2.59-.505l-.014.005a2.364 2.364 0 00-1.472 2.189v.511c0 .56-.455 1.016-1.015 1.016h-1.016c-.56 0-1.015-.456-1.015-1.016v-.511c0-.96-.578-1.82-1.473-2.189l-.014-.006a2.399 2.399 0 00-.921-.184c-.615 0-1.216.239-1.668.69l-.362.362a1.009 1.009 0 01-.718.298 1.01 1.01 0 01-.718-.298l-.718-.718a1.009 1.009 0 01-.298-.718c0-.271.106-.526.298-.718l.362-.362a2.365 2.365 0 00.506-2.588l-.006-.016a2.364 2.364 0 00-2.189-1.472h-.511c-.56 0-1.016-.455-1.016-1.015v-1.016c0-.56.456-1.015 1.016-1.015h.511c.96 0 1.82-.578 2.19-1.476l.005-.011a2.365 2.365 0 00-.506-2.589l-.362-.362a1.017 1.017 0 010-1.436l.718-.718a1.01 1.01 0 01.718-.298c.271 0 .526.106.718.298l.362.362a2.365 2.365 0 002.59.505l.014-.005a2.364 2.364 0 001.472-2.189v-.511c0-.56.455-1.016 1.015-1.016h1.016c.56 0 1.015.456 1.015 1.016v.511c0 .96.578 1.82 1.473 2.189l.014.006c.894.37 1.91.172 2.589-.506l.362-.362a1.01 1.01 0 01.718-.298c.271 0 .526.106.718.298l.718.718c.396.396.396 1.04 0 1.436l-.362.362a2.363 2.363 0 00-.507 2.585l.008.019a2.364 2.364 0 002.188 1.472h.511c.56 0 1.016.455 1.016 1.015v1.016z" fill="#E0E0E0"/></svg>