<svg width="48" height="48" fill="none" xmlns="http://www.w3.org/2000/svg"><path fill="#F1FFFB" d="M0 0h48v48H0z"/><path d="M33.427 29.69c.761.76.761 2 0 2.761l-.004.004-1.336 1.32a.779.779 0 01-1.105-.007.781.781 0 01.007-1.105l.782-.772H19.233a3.129 3.129 0 01-3.125-3.125V16.209l-.779.77a.781.781 0 01-1.097-1.113l1.32-1.302a1.967 1.967 0 012.754 0l1.32 1.302a.781.781 0 01-1.098 1.112l-.857-.846v12.634c0 .861.7 1.562 1.562 1.562H31.85l-.86-.85a.781.781 0 111.097-1.112l1.336 1.32c.002 0 .003.002.004.003zM31.655 14H21.538a.781.781 0 000 1.563h10.117c.432 0 .782.35.782.78V26.5a.781.781 0 001.562 0V16.344A2.344 2.344 0 0031.655 14zm-6.172 13.394c.432 0 .782-.35.782-.781v-3.477a2.15 2.15 0 00-2.149-2.149c-.519 0-.995.185-1.367.493a2.138 2.138 0 00-2.207-.321.781.781 0 00-1.308.576v4.882a.781.781 0 001.562 0v-3.481a.587.587 0 011.172 0v3.481a.781.781 0 101.562 0v-3.481a.587.587 0 011.172 0v3.477c0 .431.35.781.781.781zm3.545-9.175h-.024c-.993 0-1.802.81-1.802 1.804a.781.781 0 001.563 0c0-.131.11-.242.24-.242h.023c.125 0 .23.102.24.226-.016.057-.136.41-.885 1.234-.464.51-.92.927-.925.93a.781.781 0 00.525 1.36h2.11a.781.781 0 100-1.562h-.269c.694-.817 1.006-1.425 1.006-1.946 0-.995-.808-1.804-1.802-1.804z" fill="#4CCCA5"/></svg>