<svg width="48" height="48" fill="none" xmlns="http://www.w3.org/2000/svg"><path d="M29.656 32.684H15.57c.301-.846.72-1.6 1.233-2.286h8.944a1.016 1.016 0 000-2.03H18.79c1.623-1.32 3.616-2.384 5.658-3.472 2.51-1.338 5.105-2.722 7.076-4.654 2.298-2.253 3.415-4.944 3.415-8.226a1.016 1.016 0 00-2.032 0c0 .46-.026.9-.077 1.32H18.28a1.016 1.016 0 000 2.031h14.07a8.663 8.663 0 01-1.253 2.285h-8.753a1.016 1.016 0 100 2.032h6.741c-1.484 1.193-3.27 2.178-5.116 3.165-4.434-2.367-8.938-4.87-8.938-10.833a1.016 1.016 0 10-2.031 0c0 3.236 1.084 5.893 3.313 8.125 1.586 1.588 3.588 2.803 5.513 3.86-1.959 1.078-3.875 2.25-5.411 3.757C14.117 30.01 13 32.702 13 35.984a1.016 1.016 0 002.031 0 11 11 0 01.072-1.27h14.553a1.016 1.016 0 100-2.03z" fill="#E0E0E0"/><path d="M28.477 25.39a1.016 1.016 0 00-1.095 1.712c2.732 1.749 5.524 4.172 5.524 8.882a1.016 1.016 0 102.032 0c0-5.722-3.453-8.667-6.46-10.593z" fill="#E0E0E0"/></svg>