<svg width="20" height="20" fill="none" xmlns="http://www.w3.org/2000/svg"><path d="M10 11.133c.431 0 .781-.35.781-.781V.782a.781.781 0 10-1.562 0v9.57c0 .431.35.78.781.78z" fill="#fff"/><path d="M8.3 14.349l.004.004a2.337 2.337 0 001.657.685c.6 0 1.2-.228 1.656-.684l4.325-4.308a.781.781 0 10-1.103-1.107l-4.326 4.309a.777.777 0 01-.552.229.776.776 0 01-.55-.228L5.165 8.944a.781.781 0 10-1.113 1.097L8.3 14.349zm10.919 1.745a.781.781 0 00-.782.781c0 .862-.7 1.563-1.562 1.563H3.125a1.565 1.565 0 01-1.563-1.563.781.781 0 10-1.562 0A3.129 3.129 0 003.125 20h13.75A3.129 3.129 0 0020 16.875a.781.781 0 00-.781-.781z" fill="#fff"/></svg>