<svg width="16" height="17" fill="none" xmlns="http://www.w3.org/2000/svg"><path d="M15.96 14.21a.625.625 0 10-1.224.255.653.653 0 01-.133.547.635.635 0 01-.5.238H1.897a.635.635 0 01-.5-.238.653.653 0 01-.133-.547c.649-3.116 3.397-5.391 6.57-5.468a4.279 4.279 0 00.332 0 6.875 6.875 0 015.553 3.052.625.625 0 001.038-.696 8.13 8.13 0 00-4.212-3.201A4.246 4.246 0 0012.25 4.75 4.255 4.255 0 008 .5a4.255 4.255 0 00-4.25 4.25c0 1.39.671 2.628 1.707 3.403a8.122 8.122 0 00-2.619 1.44A8.154 8.154 0 00.041 14.21a1.898 1.898 0 001.856 2.29h12.206a1.897 1.897 0 001.856-2.29zM5 4.75c0-1.654 1.346-3 3-3s3 1.346 3 3a3.004 3.004 0 01-2.848 2.996 8.164 8.164 0 00-.303 0A3.004 3.004 0 015 4.75z" fill="#4C51CC"/></svg>