<svg width="80" height="80" fill="none" xmlns="http://www.w3.org/2000/svg"><g clip-path="url(#clip0)"><path d="M12.893 40.362C12.712 21.56 26.78 5.853 44.916 3.446A37.79 37.79 0 0040 3.125c-20.413 0-37.07 16.788-36.873 37.237l-.002 36.513.611-.611a17.156 17.156 0 019.155-4.768l.002-31.134z" fill="#E8E8FF"/><path d="M3.124 80A3.125 3.125 0 010 76.875l.002-36.5C-.096 29.658 4.025 19.54 11.609 11.881 19.2 4.22 29.282 0 40 0c10.8 0 20.898 4.19 28.435 11.8 7.561 7.634 11.668 17.788 11.564 28.592C79.896 51.032 75.665 61 68.085 68.46 60.525 75.903 50.498 80 39.853 80h-.038c-6.297 0-12.309-1.412-17.867-4.198-5.312-2.662-11.742-1.589-16.002 2.671l-.611.612a3.127 3.127 0 01-2.21.915zm12.699-11.898c3.035 0 6.088.69 8.925 2.112 4.68 2.347 9.751 3.536 15.07 3.536h.032c18.519.001 33.721-14.987 33.898-33.418.088-9.123-3.376-17.694-9.755-24.133C57.64 9.783 49.118 6.25 40 6.25c-9.039 0-17.544 3.562-23.95 10.03-6.405 6.467-9.885 15.009-9.798 24.052v.03L6.25 70.53a20.137 20.137 0 019.573-2.427z" fill="#4C51CC"/><path d="M43.744 47.785l12.34-12.417a3.123 3.123 0 10-4.43-4.402l-12.342 12.42a3.417 3.417 0 01-2.442 1.022c-.92 0-1.788-.363-2.441-1.022l-5.977-6.029a3.122 3.122 0 10-4.435 4.397l5.977 6.029a9.619 9.619 0 006.876 2.87c2.6 0 5.042-1.019 6.874-2.868z" fill="#00B55E"/></g><defs><clipPath id="clip0"><path fill="#fff" d="M0 0h80v80H0z"/></clipPath></defs></svg>