<svg width="22" height="22" fill="none" xmlns="http://www.w3.org/2000/svg"><path d="M21.14 12.926a.86.86 0 00.86-.86V6.437A3.441 3.441 0 0018.562 3H3.438A3.441 3.441 0 000 6.438v9.925a3.441 3.441 0 003.438 3.438h15.124A3.441 3.441 0 0022 16.363a.86.86 0 10-1.719 0 1.72 1.72 0 01-1.718 1.719H3.438a1.72 1.72 0 01-1.72-1.719V6.62l7.467 4.642c.56.348 1.187.522 1.815.522.628 0 1.255-.174 1.815-.522l7.466-4.642v5.446c0 .475.385.86.86.86zm-9.232-3.123a1.708 1.708 0 01-1.816 0L2.436 5.042a1.71 1.71 0 011.002-.323h15.124c.374 0 .72.12 1.002.323l-7.656 4.76z" fill="#4C51CC"/></svg>