<svg width="22" height="22" fill="none" xmlns="http://www.w3.org/2000/svg"><path d="M7.487 20.281h-4.88a.874.874 0 01-.687-.326.898.898 0 01-.182-.753c.893-4.287 4.676-7.418 9.043-7.519a5.85 5.85 0 006.063-5.84A5.85 5.85 0 0011 0a5.85 5.85 0 00-5.844 5.844c0 1.912.924 3.613 2.348 4.68a11.166 11.166 0 00-3.601 1.98A11.212 11.212 0 00.056 18.85 2.61 2.61 0 002.608 22h4.88a.86.86 0 000-1.719zM6.875 5.844A4.13 4.13 0 0111 1.719a4.13 4.13 0 014.125 4.125 4.13 4.13 0 01-4.027 4.124.846.846 0 00-.098-.006c-.067 0-.134 0-.201.002a4.13 4.13 0 01-3.924-4.12zm12.988 7.39h-7.026a2.14 2.14 0 00-2.138 2.138v4.49A2.14 2.14 0 0012.837 22h7.026A2.14 2.14 0 0022 19.863v-4.491a2.14 2.14 0 00-2.137-2.138zm-.072 1.72l-3.285 2.041a.417.417 0 01-.442 0l-3.279-2.038a.416.416 0 01.052-.004h6.954zm.072 5.327h-7.026a.42.42 0 01-.42-.418v-3.11l2.74 1.702c.348.216.738.325 1.128.325.39 0 .78-.109 1.129-.325l2.867-1.783v3.19a.42.42 0 01-.418.42z" fill="#4C51CC"/></svg>