<svg width="20" height="20" fill="none" xmlns="http://www.w3.org/2000/svg"><g clip-path="url(#clip0)"><path d="M4.717 7.992a3.317 3.317 0 003.314 3.314.78.78 0 110 1.56 4.879 4.879 0 01-4.873-4.874A4.879 4.879 0 018.031 3.12a4.879 4.879 0 014.873 4.873.78.78 0 01-1.559 0 3.318 3.318 0 00-3.314-3.314 3.318 3.318 0 00-3.314 3.314zm.613 6.897c-2-2.191-3.729-4.084-3.731-6.904A6.442 6.442 0 018.03 1.559a6.441 6.441 0 016.433 6.426.78.78 0 001.56-.002 7.94 7.94 0 00-2.345-5.645A7.94 7.94 0 008.031 0a7.94 7.94 0 00-5.648 2.338A7.941 7.941 0 00.039 7.984c.002 1.554.433 3.012 1.32 4.457.767 1.252 1.764 2.343 2.82 3.5 1.034 1.133 2.105 2.305 2.96 3.657a.779.779 0 101.317-.833c-.928-1.469-2.045-2.693-3.126-3.876zm14.466.374a.777.777 0 01-1.102.05l-.098-.09v2.58A2.198 2.198 0 0116.401 20H12.02a2.198 2.198 0 01-2.195-2.197V15.26l-.06.053a.78.78 0 11-1.051-1.15l4.024-3.68a2.2 2.2 0 012.984 0L18.3 12.84a.777.777 0 01.08.074l1.366 1.248a.78.78 0 01.05 1.102zm-2.759-1.466l-2.367-2.164a.648.648 0 00-.88 0l-2.406 2.2v3.97c0 .352.285.637.636.637h4.38c.35 0 .636-.285.636-.637v-4.006z" fill="#4C51CC"/></g><defs><clipPath id="clip0"><path fill="#fff" d="M0 0h20v20H0z"/></clipPath></defs></svg>