<svg width="20" height="20" fill="none" xmlns="http://www.w3.org/2000/svg"><path d="M20 19.219c0 .431-.35.781-.781.781h-7.657a.781.781 0 01-.78-.781V4.649H10a.781.781 0 01-.781-.782v-.781H4.53v.781a.78.78 0 01-.781.781h-.781v14.57c0 .432-.35.782-.781.782H.78a.781.781 0 110-1.563h.625V3.867c0-.431.35-.781.782-.781h.78v-.781c0-.432.35-.782.782-.782h2.344V.781a.781.781 0 111.562 0v.742H10c.431 0 .781.35.781.782v.78h.781l.012.002a.777.777 0 01.444.119l4.957 3.118a3.444 3.444 0 011.619 2.93v2.934a.781.781 0 01-1.563 0V9.255a1.89 1.89 0 00-.888-1.609l-3.8-2.389v13.18h1.524v-1.25a.781.781 0 111.563 0v1.25h1.601v-2.382a.781.781 0 011.563 0v2.383h.625c.431 0 .781.35.781.78zM5.273 9.375a.781.781 0 00-.78.781v.781a.781.781 0 101.562 0v-.78a.781.781 0 00-.782-.782zm3.125 0a.781.781 0 00-.78.781v.781a.781.781 0 101.562 0v-.78a.781.781 0 00-.782-.782zm-3.125 3.516a.781.781 0 00-.78.78v.782a.781.781 0 101.562 0v-.781a.781.781 0 00-.782-.781zm3.125 0a.781.781 0 00-.78.78v.782a.781.781 0 101.562 0v-.781a.781.781 0 00-.782-.781zm0 3.515a.781.781 0 00-.78.782v.78a.781.781 0 101.562 0v-.78a.781.781 0 00-.782-.782zm7.032-6.25a.781.781 0 10-1.563 0v.781a.781.781 0 101.563 0v-.78zm-.782 2.735a.781.781 0 00-.78.78v.782a.781.781 0 101.562 0v-.781a.781.781 0 00-.782-.781zm-9.375 3.515a.781.781 0 00-.78.782v.78a.781.781 0 101.562 0v-.78a.781.781 0 00-.782-.782zm0-10.547a.781.781 0 00-.78.782v.78a.781.781 0 101.562 0v-.78a.781.781 0 00-.782-.782zm3.125 0a.781.781 0 00-.78.782v.78a.781.781 0 101.562 0v-.78a.781.781 0 00-.782-.782z" fill="#4C51CC"/></svg>