<svg width="20" height="20" fill="none" xmlns="http://www.w3.org/2000/svg"><path d="M18.532 4.783l.97-.97a.586.586 0 00-.365-.998l-1.8-.152-.152-1.8a.586.586 0 00-.998-.365l-.97.97A9.946 9.946 0 0010 0a9.935 9.935 0 00-7.071 2.929A9.935 9.935 0 000 10a9.935 9.935 0 002.929 7.071A9.935 9.935 0 0010 20a9.935 9.935 0 007.071-2.929A9.935 9.935 0 0020 10a9.947 9.947 0 00-1.468-5.217zM16.21 3.254c.024.285.25.51.535.535l1.035.087-1.401 1.402-1.529-.13-.129-1.528 1.402-1.4.087 1.034zM11.992 10A1.994 1.994 0 0110 11.992 1.994 1.994 0 018.008 10a1.994 1.994 0 012.924-1.76L9.585 9.586a.586.586 0 10.828.828l1.346-1.346c.148.279.232.596.232.932zm-.209-2.612A3.147 3.147 0 0010 6.836 3.168 3.168 0 006.836 10 3.168 3.168 0 0010 13.164 3.168 3.168 0 0013.164 10c0-.661-.204-1.275-.552-1.783l1.673-1.673A5.482 5.482 0 0115.508 10 5.514 5.514 0 0110 15.508 5.514 5.514 0 014.492 10 5.514 5.514 0 0110 4.492c1.308 0 2.51.459 3.456 1.223l-1.673 1.673zm4.46 8.854A8.77 8.77 0 0110 18.828a8.77 8.77 0 01-6.242-2.586A8.77 8.77 0 011.172 10a8.77 8.77 0 012.586-6.242A8.77 8.77 0 0110 1.172c1.543 0 3.037.396 4.362 1.151l-.66.661a.586.586 0 00-.17.464l.079.935A6.64 6.64 0 0010 3.32 6.687 6.687 0 003.32 10 6.687 6.687 0 0010 16.68 6.687 6.687 0 0016.68 10a6.64 6.64 0 00-1.063-3.61l.935.078a.668.668 0 00.05.002h.008l.023-.001.038-.003.024-.004a.604.604 0 00.206-.075l.02-.011a.635.635 0 00.033-.025l.016-.011a.569.569 0 00.046-.041l.66-.661A8.783 8.783 0 0118.829 10a8.77 8.77 0 01-2.586 6.242z" fill="#4C51CC"/></svg>