<svg width="20" height="20" fill="none" xmlns="http://www.w3.org/2000/svg"><g clip-path="url(#clip0)"><path d="M19.95 17.138a.781.781 0 10-1.53.318.816.816 0 01-.166.684.794.794 0 01-.625.297H2.372a.794.794 0 01-.625-.297.816.816 0 01-.165-.684c.81-3.894 4.245-6.739 8.212-6.835a5.275 5.275 0 00.415 0 8.594 8.594 0 016.941 3.815.781.781 0 001.298-.87 10.162 10.162 0 00-5.266-4.001 5.308 5.308 0 002.132-4.252A5.319 5.319 0 0010 0a5.319 5.319 0 00-5.312 5.313 5.31 5.31 0 002.134 4.254c-1.186.39-2.3.998-3.274 1.8a10.192 10.192 0 00-3.497 5.77A2.372 2.372 0 002.371 20H17.63a2.372 2.372 0 002.32-2.862zM6.25 5.312A3.754 3.754 0 0110 1.563a3.754 3.754 0 013.75 3.75 3.755 3.755 0 01-3.56 3.746 10.257 10.257 0 00-.379 0 3.755 3.755 0 01-3.56-3.745z" fill="#4C51CC"/></g><defs><clipPath id="clip0"><path fill="#fff" d="M0 0h20v20H0z"/></clipPath></defs></svg>