<svg width="16" height="16" fill="none" xmlns="http://www.w3.org/2000/svg"><path d="M15.063.938A3.18 3.18 0 0012.799 0a3.18 3.18 0 00-2.264.938L1.59 9.884a.625.625 0 00-.16.275L.022 15.207a.625.625 0 00.773.77l5.049-1.435a.625.625 0 00.272-1.042l-3.183-3.193 7.416-7.416 2.758 2.758-5.678 5.662a.625.625 0 10.883.885l6.75-6.731A3.18 3.18 0 0016 3.201a3.18 3.18 0 00-.937-2.263zM4.48 13.63l-2.955.84.828-2.974L4.48 13.63zm9.698-9.05l-.186.186-2.76-2.759.186-.185a1.938 1.938 0 011.38-.572c.521 0 1.011.203 1.38.572.368.368.571.858.571 1.38 0 .52-.203 1.01-.57 1.378z" fill="#4C51CC"/></svg>