<svg width="16" height="16" fill="none" xmlns="http://www.w3.org/2000/svg"><path fill-rule="evenodd" clip-rule="evenodd" d="M2.011 12.35a.625.625 0 01-.858-.21A7.987 7.987 0 010 8c0-2.137.832-4.146 2.343-5.657A7.948 7.948 0 018 0c2.137 0 4.146.832 5.657 2.343A7.948 7.948 0 0116 8a7.948 7.948 0 01-2.343 5.657A7.948 7.948 0 018 16a7.97 7.97 0 01-4.441-1.355.625.625 0 01.695-1.04A6.723 6.723 0 008 14.75 6.758 6.758 0 0014.75 8 6.758 6.758 0 008 1.25 6.758 6.758 0 001.25 8c0 1.235.336 2.442.972 3.492a.625.625 0 01-.21.858zM7.41 8.624v2.813a.625.625 0 101.25 0V8.624h2.813a.625.625 0 100-1.25H8.659V4.531a.625.625 0 10-1.25 0v2.843H4.597a.625.625 0 100 1.25h2.812z" fill="#4C51CC"/></svg>