<svg width="16" height="16" fill="none" xmlns="http://www.w3.org/2000/svg"><g clip-path="url(#clip0)"><path d="M15.815 7.944a.623.623 0 01-.884-.003l-.494-.498v2.932a.625.625 0 11-1.25 0v-4.19L8.434 1.401a.624.624 0 00-.81-.002L2.81 6.2l.001.018V13.5c0 .69.561 1.25 1.25 1.25h.188a.625.625 0 110 1.25h-.188a2.503 2.503 0 01-2.5-2.5V7.448l-.496.495a.625.625 0 01-.883-.885L6.781.475a1.873 1.873 0 012.5.005l6.537 6.58a.625.625 0 01-.003.884zm-2.003 4.931a.625.625 0 00-.625.625c0 .69-.56 1.25-1.25 1.25h-.187a.625.625 0 100 1.25h.187c1.379 0 2.5-1.121 2.5-2.5a.625.625 0 00-.625-.625zm-2.687-2.937A1.877 1.877 0 009.25 8.063h-2.5a1.877 1.877 0 00-1.875 1.875v1.875c0 .814.522 1.51 1.25 1.768v1.794a.625.625 0 101.25 0v-2.312a.625.625 0 00-.625-.625.626.626 0 01-.625-.625V9.938c0-.345.28-.625.625-.625h2.5c.344 0 .625.28.625.625v1.875c0 .344-.28.625-.625.625a.625.625 0 00-.625.625v2.312a.625.625 0 101.25 0v-1.794a1.878 1.878 0 001.25-1.768V9.938zM8 7.469a1.877 1.877 0 01-1.875-1.875c0-1.034.84-1.875 1.875-1.875 1.034 0 1.875.841 1.875 1.875A1.877 1.877 0 018 7.47zm0-1.25a.626.626 0 10-.002-1.251A.626.626 0 008 6.219z" fill="#4C51CC"/></g><defs><clipPath id="clip0"><path fill="#fff" d="M0 0h16v16H0z"/></clipPath></defs></svg>