<svg width="16" height="16" fill="none" xmlns="http://www.w3.org/2000/svg"><path d="M14.75 2.594h-3.781v-.719A1.877 1.877 0 009.094 0H6.906a1.877 1.877 0 00-1.875 1.875v.719H1.25a.625.625 0 100 1.25h.647l.762 9.874a2.494 2.494 0 00.805 1.628A2.49 2.49 0 005.149 16h5.702a2.48 2.48 0 002.49-2.256.625.625 0 10-1.245-.113 1.236 1.236 0 01-1.245 1.119H5.149a1.244 1.244 0 01-1.244-1.133L3.15 3.844h9.698l-.534 6.92a.625.625 0 001.247.097l.54-7.017h.648a.625.625 0 100-1.25zm-5.031 0H6.28v-.719c0-.345.28-.625.625-.625h2.188c.344 0 .625.28.625.625v.719z" fill="#BDBDBD"/><path d="M5.16 5.094a.625.625 0 00-.597.652l.313 7.154a.625.625 0 001.248-.054L5.812 5.69a.625.625 0 00-.652-.597zm5.028.597l-.312 7.155a.625.625 0 101.248.054l.313-7.154a.625.625 0 00-1.249-.055zm-2.813.028v7.154a.625.625 0 101.25 0V5.719a.625.625 0 10-1.25 0z" fill="#BDBDBD"/></svg>