<svg width="24" height="24" xmlns="http://www.w3.org/2000/svg"><path d="M22.125 18.842V2.344a.47.47 0 00-.469-.47h-2.062a.47.47 0 00-.469.47v19.78h3.938a.937.937 0 110 1.874H.939a.937.937 0 01-.937-.937v-6.703a2.346 2.346 0 012.343-2.344h2.063a2.346 2.346 0 012.343 2.344v2.484a.937.937 0 11-1.875 0v-2.484a.47.47 0 00-.468-.469H2.345a.47.47 0 00-.468.47v5.764h6.75V9.843a2.346 2.346 0 012.343-2.344h2.062a2.346 2.346 0 012.344 2.344v9a.937.937 0 11-1.875 0v-9a.47.47 0 00-.469-.469H10.97a.47.47 0 00-.469.469v12.28h6.75V2.343A2.346 2.346 0 0119.593 0h2.062A2.346 2.346 0 0124 2.344v16.498a.937.937 0 11-1.875 0zM3.735 8.39H2.337c-.23 0-.463-.145-.463-.422a.937.937 0 10-1.875 0c0 1.26.982 2.25 2.25 2.295v.517a.937.937 0 101.876 0v-.543c1.29-.18 2.25-1.24 2.25-2.562v-.082c0-1.473-1.185-2.671-2.642-2.671h-.859a.744.744 0 01-.761-.743V4.11c0-.42.327-.736.761-.736h.813c.239 0 .485.16.485.427a.938.938 0 001.875 0c0-1.124-.83-2.06-1.922-2.262V.937a.937.937 0 10-1.875 0v.636c-.464.109-.89.34-1.234.678A2.58 2.58 0 00.24 4.11v.068c0 .708.276 1.37.776 1.862a2.634 2.634 0 001.86.755h.86c.415 0 .766.365.766.797v.082c0 .408-.33.715-.767.715z"/></svg>