<svg width="24" height="24" fill="#E0E0E0" xmlns="http://www.w3.org/2000/svg"><path d="M23.58 1.032a.938.938 0 00-.823-.152c-1.086.312-2.47.224-4.223.113-1.097-.07-2.34-.15-3.768-.15-1.12 0-2.125.494-2.813 1.274A3.741 3.741 0 009.141.844c-1.428 0-2.672.079-3.77.149-1.752.111-3.136.2-4.222-.113a.937.937 0 00-1.196.901v15.553a3.725 3.725 0 001.095 2.658 3.725 3.725 0 002.655 1.102H10.5a.937.937 0 100-1.875H3.703c-.502 0-.973-.196-1.327-.551a1.864 1.864 0 01-.548-1.331v-.498c.552.32 1.192.505 1.875.505h6.985a.47.47 0 01.415.25.937.937 0 001.758-.327.93.93 0 00.03-.228V4.594c0-1.034.84-1.875 1.875-1.875 1.368 0 2.58.077 3.65.145 1.398.089 2.584.164 3.662.047v6.745a.937.937 0 101.875 0V1.781a.938.938 0 00-.373-.749zM3.703 15.47a1.877 1.877 0 01-1.875-1.875V2.91c1.078.117 2.264.042 3.663-.047 1.07-.068 2.281-.145 3.65-.145 1.034 0 1.875.841 1.875 1.875v10.898a2.347 2.347 0 00-.329-.023H3.704zm5.719-9.33c0 .517-.42.937-.938.937H4.406a.937.937 0 110-1.875h4.078c.518 0 .938.42.938.938zM8.016 9.89c0 .518-.42.937-.938.937H4.406a.937.937 0 110-1.875h2.672c.518 0 .938.42.938.938zm11.137 2.885l-5.147 5.136a.938.938 0 00-.235.391l-1.121 3.69a.938.938 0 001.147 1.176l3.784-1.048a.94.94 0 00.412-.24l5.137-5.127a2.816 2.816 0 000-3.977 2.816 2.816 0 00-3.977 0zm-2.31 7.604l-1.904.527.557-1.834 3.473-3.465 1.326 1.326-3.452 3.446zm4.961-4.952l-.181.181-1.326-1.326.18-.18a.938.938 0 011.327 1.325z"/></svg>