<svg width="24" height="24" fill="#E0E0E0" xmlns="http://www.w3.org/2000/svg"><path d="M23.11 19.313c.517 0 .937-.42.937-.938v-.979a4.042 4.042 0 00-4.038-4.037h-.811c.104-.293.161-.608.161-.937V4.734a.937.937 0 00-.937-.937h-2.813v-.985A2.816 2.816 0 0012.797 0a2.816 2.816 0 00-2.813 2.813v.984H7.172a.937.937 0 00-.938.937v7.688c0 .25.033.49.094.72l-1.512-1.381a2.794 2.794 0 00-1.983-.792 2.795 2.795 0 00-1.981.842 2.794 2.794 0 00-.805 1.997 2.793 2.793 0 00.862 2l4.775 4.42a13.36 13.36 0 004.292 2.791c1.608.651 3.302.981 5.037.981h8.096a.937.937 0 100-1.875h-8.096a11.491 11.491 0 01-8.033-3.252l-.015-.014-4.77-4.417a.931.931 0 01-.273-.652.931.931 0 01.268-.665.936.936 0 011.35.01l5.411 4.945a2.805 2.805 0 002.064.904h4.688a.937.937 0 100-1.875h-4.688a.933.933 0 01-.523-.16l-.016-.016-.19-.174a.939.939 0 01.73-1.525h8.993c1.193 0 2.163.97 2.163 2.162v.979c0 .518.42.938.937.938zm-11.25-16.5a.939.939 0 011.874 0v.984H11.86v-.985zm-.845 10.546H9.047a.939.939 0 01-.938-.937v-6.75h1.875v.984a.937.937 0 101.875 0v-.984h1.875v.984a.937.937 0 101.875 0v-.984h1.875v6.75c0 .517-.42.937-.937.937h-5.532z"/></svg>