<svg width="24" height="24" fill="#E0E0E0" xmlns="http://www.w3.org/2000/svg"><path d="M14.225 22.125h-9.23A1.877 1.877 0 013.12 20.25V6.094c0-1.034.842-1.875 1.875-1.875h2.948v.468A2.816 2.816 0 0010.756 7.5a2.816 2.816 0 002.812-2.813V4.22h2.954c1.033 0 1.875.84 1.875 1.875v6.843a.937.937 0 101.875 0V6.095a3.754 3.754 0 00-3.75-3.75h-2.954V.938A.937.937 0 0012.631 0H8.88a.937.937 0 00-.938.938v1.406H4.995a3.754 3.754 0 00-3.75 3.75V20.25A3.754 3.754 0 004.995 24h9.23a.938.938 0 100-1.875zM9.818 1.875h1.875v2.813a.939.939 0 01-1.875 0V1.874zM21.933 19.2l-5.136-5.147a.936.936 0 00-.391-.235l-3.69-1.121a.937.937 0 00-1.176 1.147l1.048 3.784a.937.937 0 00.24.412l5.127 5.136a2.804 2.804 0 001.988.823c.72 0 1.44-.274 1.99-.823a2.815 2.815 0 000-3.976zm-8.131-4.214l1.834.557 3.465 3.473-1.326 1.326-3.446-3.452-.527-1.904zm6.804 6.864a.938.938 0 01-1.325.001l-.181-.181 1.326-1.326.18.18a.938.938 0 010 1.326z"/></svg>