<svg width="24" height="24" fill="#E0E0E0" xmlns="http://www.w3.org/2000/svg"><path d="M3.375 15.375A3.379 3.379 0 010 12a3.379 3.379 0 013.375-3.375A3.379 3.379 0 016.75 12a.937.937 0 11-1.875 0c0-.827-.673-1.5-1.5-1.5s-1.5.673-1.5 1.5.673 1.5 1.5 1.5a.937.937 0 110 1.875zm18.188-.938a.937.937 0 00-.938-.937c-.827 0-1.5-.673-1.5-1.5s.673-1.5 1.5-1.5 1.5.673 1.5 1.5A.937.937 0 1024 12a3.379 3.379 0 00-3.375-3.375A3.379 3.379 0 0017.25 12a3.379 3.379 0 003.375 3.375c.518 0 .938-.42.938-.938zm-8.625 0A.937.937 0 0012 13.5c-.827 0-1.5-.673-1.5-1.5s.673-1.5 1.5-1.5 1.5.673 1.5 1.5a.937.937 0 101.875 0A3.379 3.379 0 0012 8.625 3.379 3.379 0 008.625 12 3.379 3.379 0 0012 15.375c.518 0 .938-.42.938-.938z"/></svg>