<svg width="24" height="24" fill="#E0E0E0" xmlns="http://www.w3.org/2000/svg"><path d="M22.383 11.758c-.835-.418-1.926-.649-3.07-.649-1.145 0-2.235.23-3.071.649-1.043.52-1.617 1.29-1.617 2.164 0 .028 0 .055.002.083-.002.02-.002.038-.002.058v1.158c-.802-.355-1.787-.55-2.813-.55-1.144 0-2.234.231-3.07.65-1.043.52-1.617 1.289-1.617 2.163v3.704c0 .322.079.63.23.918-3.39-.24-5.48-2.663-5.48-6.403 0-2.6 1.404-5.01 4.172-7.165l.089-.068c-1.428 2.076-2.152 4.208-2.152 6.343a.937.937 0 101.875 0c0-2.904 1.684-5.84 5.004-8.729l.043-.037h2.83c.624.267 3.023 1.358 5.092 3.223a.938.938 0 001.255-1.393c-1.853-1.67-3.894-2.759-5-3.281l1.259-3.223a.937.937 0 00.064-.342V.938A.938.938 0 0015.137.06c-2.112.798-4.164.798-6.274 0a.938.938 0 00-1.27.877v.093c0 .117.023.233.065.342l1.26 3.223a22.018 22.018 0 00-3.984 2.432c-1.41 1.093-2.54 2.285-3.355 3.544C.53 12.189 0 13.916 0 15.703c0 2.452.743 4.53 2.147 6.006 1.372 1.442 3.282 2.233 5.524 2.288a.42.42 0 00.022 0l4.114.003h.122l.04-.002c1.087-.02 2.117-.247 2.914-.646.255-.128.482-.27.68-.425.197.155.424.297.678.425.837.418 1.927.648 3.072.648 1.144 0 2.235-.23 3.07-.648C23.426 22.83 24 22.062 24 21.188v-7.266c0-.875-.574-1.643-1.617-2.164zM13.95 2.342l-.715 1.83h-2.47l-.715-1.83c1.298.25 2.601.25 3.9 0zm.095 19.333c-.571.285-1.382.45-2.227.45h-.012c-.844 0-1.655-.165-2.226-.45-.48-.24-.58-.455-.58-.487v-1.42c.797.342 1.782.529 2.813.529h.104a.938.938 0 00-.022-1.876h-.082c-.847 0-1.66-.163-2.233-.45-.48-.239-.58-.454-.58-.487 0-.032.1-.247.58-.487.572-.286 1.386-.45 2.232-.45.837 0 1.647.17 2.221.468.452.233.592.46.592.516v3.657c0 .032-.1.247-.58.487zm8.08-.487c0 .032-.1.247-.58.487-.572.286-1.386.45-2.233.45-.846 0-1.66-.164-2.232-.45-.48-.24-.58-.455-.58-.487v-1.42c.797.342 1.782.529 2.813.529h.106a.937.937 0 00-.013-1.876h-.093c-.847 0-1.66-.163-2.233-.45-.48-.239-.58-.454-.58-.487v-1.278c.796.342 1.783.528 2.813.528h.106a.937.937 0 10-.025-1.875h-.081c-.847 0-1.66-.164-2.233-.45-.48-.24-.58-.455-.58-.487 0-.033.1-.248.58-.488.572-.285 1.386-.45 2.233-.45.846 0 1.66.165 2.232.45.48.24.58.455.58.488v7.266z"/></svg>