<svg width="24" height="24" fill="#E0E0E0" xmlns="http://www.w3.org/2000/svg"><path d="M12.795 16.779l-5.576.002a.937.937 0 010-1.875l5.575-.002a.937.937 0 010 1.875zm-1.267 1.547l-4.31.002a.938.938 0 000 1.875h.001l4.31-.002a.938.938 0 000-1.875zm9.756-.175l-5.577 5.572-.004.004a.942.942 0 01-.064.058l-.018.013a.96.96 0 01-.056.041l-.016.01a.922.922 0 01-.063.038l-.01.005a.973.973 0 01-.073.034l-.006.002a.938.938 0 01-.08.029l-.006.001a.958.958 0 01-.082.02l-.02.004a1.052 1.052 0 01-.165.015L6.282 24a3.754 3.754 0 01-3.75-3.75V3.75A3.754 3.754 0 016.281 0h11.525a3.754 3.754 0 013.75 3.75l.002 9.047a.938.938 0 01-1.876 0V3.75a1.877 1.877 0 00-1.876-1.875H6.281A1.877 1.877 0 004.406 3.75v16.5c0 1.034.841 1.875 1.875 1.875l7.826-.002V19.83a3.285 3.285 0 013.281-3.282h3.234c.031 0 .062.002.093.005l.04.006a.401.401 0 01.05.008l.048.011.041.011.047.016.04.015.043.02.04.019.042.025c.012.007.025.014.036.022.017.011.033.024.049.036l.025.019c.048.04.093.084.132.132l.018.023.037.05.02.033.027.046.017.035.022.049c.005.01.008.022.012.033.007.018.014.035.019.053l.008.033.014.056.005.035.008.056c.002.016.002.033.003.05l.002.041-.002.04a.412.412 0 01-.003.051l-.008.057-.005.034-.014.057-.008.032-.019.053-.012.034-.023.048-.016.035-.028.046c-.006.011-.012.022-.02.033a.474.474 0 01-.037.051l-.017.023c-.02.024-.042.048-.064.07zm-5.302 1.68v.967l2.375-2.374h-.969c-.775 0-1.406.631-1.406 1.407zm-.99-6.706H9.008a1.556 1.556 0 01-1.523-1.877 4.594 4.594 0 012.13-2.993 2.938 2.938 0 01-.57-1.74A2.956 2.956 0 0112 3.564a2.956 2.956 0 012.953 2.953c0 .65-.211 1.25-.568 1.739a4.595 4.595 0 012.129 2.993 1.556 1.556 0 01-1.523 1.877zm-4.07-6.61a1.08 1.08 0 002.156 0 1.08 1.08 0 00-2.156 0zm3.648 4.735a2.724 2.724 0 00-2.546-1.781h-.048c-1.145 0-2.16.73-2.546 1.781h5.14z"/></svg>