<svg width="24" height="24" fill="#E0E0E0" xmlns="http://www.w3.org/2000/svg"><path d="M16.57 11.753c-.249-.1-.5-.192-.753-.276a6.37 6.37 0 002.558-5.102A6.382 6.382 0 0011.998 0a6.382 6.382 0 00-6.374 6.375 6.37 6.37 0 002.561 5.105 12.181 12.181 0 00-3.929 2.16A12.232 12.232 0 00.06 20.565 2.847 2.847 0 002.844 24h13.093a.938.938 0 000-1.875H2.844a.953.953 0 01-.75-.357.98.98 0 01-.198-.82c.974-4.677 5.1-8.092 9.865-8.203a6.507 6.507 0 00.479 0 10.25 10.25 0 013.627.746.938.938 0 00.703-1.738zM7.5 6.375c0-2.481 2.018-4.5 4.5-4.5 2.48 0 4.5 2.019 4.5 4.5a4.505 4.505 0 01-4.285 4.495l-.216-.003-.219.003A4.506 4.506 0 017.5 6.375zM24 19.727v.23c0 1.322-.962 2.382-2.251 2.563v.543a.938.938 0 01-1.875 0v-.518c-1.27-.044-2.252-1.036-2.252-2.295a.938.938 0 011.875 0c0 .277.234.422.464.422h1.396c.438 0 .768-.308.768-.715v-.23c0-.416-.337-.743-.768-.743h-.859c-1.454 0-2.637-1.198-2.637-2.672v-.341c0-.709.277-1.37.779-1.86a2.62 2.62 0 011.234-.68v-.634a.937.937 0 111.875 0v.603c1.093.2 1.922 1.138 1.922 2.262a.938.938 0 01-1.875 0c0-.268-.247-.428-.485-.428h-.813c-.434 0-.762.317-.762.737v.341c0 .432.35.797.762.797h.86c.703 0 1.364.268 1.86.755.504.493.782 1.154.782 1.863z"/></svg>