<svg width="26" height="26" fill="none" xmlns="http://www.w3.org/2000/svg"><path d="M24.984 14.73c.561 0 1.016-.454 1.016-1.015V7.063A4.067 4.067 0 0021.937 3H4.063A4.067 4.067 0 000 7.063v11.73a4.067 4.067 0 004.063 4.063h17.875A4.067 4.067 0 0026 18.793a1.016 1.016 0 10-2.031 0c0 1.12-.912 2.031-2.032 2.031H4.063a2.034 2.034 0 01-2.03-2.031V7.278l8.823 5.486a4.056 4.056 0 002.145.618c.742 0 1.484-.206 2.145-.618l8.824-5.486v6.437c0 .56.454 1.015 1.015 1.015zm-10.911-3.69a2.019 2.019 0 01-2.146 0L2.88 5.412a2.02 2.02 0 011.183-.382h17.875c.442 0 .85.142 1.184.382l-9.048 5.626z" fill="#E0E0E0"/></svg>