<svg width="26" height="26" fill="none" xmlns="http://www.w3.org/2000/svg"><g clip-path="url(#clip0)"><path d="M25.705 12.473L15.123 1.82a3.044 3.044 0 00-4.146-.009L.298 12.469a1.016 1.016 0 001.435 1.438l.806-.804v8.769a4.067 4.067 0 004.063 4.062h3.656c.56 0 1.015-.454 1.015-1.015V16.64h3.555v8.278c0 .56.455 1.015 1.016 1.015h3.554a4.067 4.067 0 004.063-4.062 1.016 1.016 0 00-2.031 0c0 1.12-.912 2.031-2.032 2.031H16.86v-8.277c0-.561-.454-1.016-1.015-1.016h-5.586c-.561 0-1.016.455-1.016 1.016v8.277h-2.64a2.034 2.034 0 01-2.032-2.031V11.076l7.818-7.803c.38-.323.938-.322 1.318.003l7.724 7.775v5.743a1.016 1.016 0 002.03 0v-3.698l.804.808a1.012 1.012 0 001.436.005c.398-.396.4-1.039.005-1.437z" fill="#E0E0E0"/></g><defs><clipPath id="clip0"><path fill="#fff" d="M0 0h26v26H0z"/></clipPath></defs></svg>