<svg width="26" height="26" fill="none" xmlns="http://www.w3.org/2000/svg"><path d="M16.046 17.167v-.832c0-1.651-1.367-2.995-3.047-2.995-1.68 0-3.047 1.344-3.047 2.995v.832a2.542 2.542 0 00-2.233 2.52v5.078c0 .56.454 1.015 1.015 1.015h8.532c.56 0 1.015-.454 1.015-1.015v-5.078c0-1.297-.978-2.37-2.235-2.52zm-4.063-.832c0-.531.456-.964 1.016-.964s1.016.433 1.016.964v.813h-2.032v-.813zm4.267 7.414h-6.5v-4.062c0-.28.228-.508.508-.508h5.484c.28 0 .508.228.508.508v4.062z"/><path d="M23.46 8.648v-.725A6.93 6.93 0 0016.539 1a6.92 6.92 0 00-6.409 4.304 4.516 4.516 0 00-6.574 4.024v.924C1.522 10.707 0 12.512 0 14.66c0 1.207.457 2.34 1.287 3.188a4.413 4.413 0 003.182 1.332h.558a1.016 1.016 0 100-2.032H4.47c-1.367 0-2.438-1.093-2.438-2.488 0-1.372 1.136-2.488 2.532-2.488h.007c.561 0 1.016-.455 1.016-1.016V9.328A2.491 2.491 0 018.074 6.84a2.49 2.49 0 011.866.843 1.016 1.016 0 001.765-.517c.365-2.357 2.443-4.135 4.833-4.135a4.897 4.897 0 014.892 4.892v1.272c-.008.372.188.736.54.922a3.755 3.755 0 011.999 3.322c0 2.981-2.913 3.71-3 3.73a1.016 1.016 0 00.406 1.991c.012-.003 1.216-.251 2.421-1.183C25.238 16.863 26 15.294 26 13.44c0-1.936-.959-3.72-2.54-4.79z"/></svg>