<svg width="22" height="22" fill="none" xmlns="http://www.w3.org/2000/svg"><g clip-path="url(#clip0)" fill="#4C51CC"><path d="M21.763 7.13c-.46-1.168-1.3-2.854-2.704-4.25C17.661 1.487 15.993.67 14.84.23a3.455 3.455 0 00-3.665.777L7.8 4.365a3.439 3.439 0 00-.717 3.813c.177.398.37.788.575 1.164L.252 16.75a.86.86 0 00-.252.608v3.78c0 .476.385.86.86.86h3.78a.86.86 0 00.86-.86v-1.546h1.547a.86.86 0 00.86-.86v-1.546h1.546a.86.86 0 100-1.719H7.047a.86.86 0 00-.86.86v1.546H4.641a.86.86 0 00-.86.86v1.547H1.72v-2.566l7.62-7.621a.86.86 0 00.128-1.054 13.907 13.907 0 01-.814-1.559 1.71 1.71 0 01.36-1.895l3.374-3.36a1.734 1.734 0 011.84-.389c.997.382 2.435 1.084 3.62 2.263 1.192 1.186 1.917 2.645 2.316 3.66a1.707 1.707 0 01-.385 1.835l-3.416 3.399a1.73 1.73 0 01-1.891.369 11.158 11.158 0 01-1.547-.79.86.86 0 10-.899 1.465 12.88 12.88 0 001.786.912 3.444 3.444 0 003.764-.738l3.415-3.4a3.424 3.424 0 00.773-3.68z"/><path d="M15.64 7.394a1.375 1.375 0 100-2.75 1.375 1.375 0 000 2.75z"/></g><defs><clipPath id="clip0"><path fill="#fff" d="M0 0h22v22H0z"/></clipPath></defs></svg>