<svg width="22" height="22" fill="none" xmlns="http://www.w3.org/2000/svg"><path d="M15.898 15.727a.86.86 0 100-1.72.86.86 0 000 1.72z" fill="#4C51CC"/><path d="M19.766 15.555a.86.86 0 00.859-.86v-3.18a3.441 3.441 0 00-3.438-3.437h-1.032v-3.03C16.155 2.263 13.842 0 10.998 0 8.155 0 5.842 2.264 5.842 5.047v3.031h-1.03a3.441 3.441 0 00-3.437 3.438v7.046A3.441 3.441 0 004.813 22h12.375a3.441 3.441 0 003.437-3.438.86.86 0 10-1.719 0 1.72 1.72 0 01-1.718 1.72H4.813a1.72 1.72 0 01-1.72-1.72v-7.046a1.72 1.72 0 011.72-1.72h12.375a1.72 1.72 0 011.718 1.72v3.18a.86.86 0 00.86.859zm-5.33-7.477H7.56v-3.03c0-1.836 1.542-3.33 3.437-3.33 1.896 0 3.438 1.494 3.438 3.33v3.03z" fill="#4C51CC"/><path d="M9.41 15.727a.86.86 0 100-1.72.86.86 0 000 1.72zm-3.222 0a.86.86 0 100-1.72.86.86 0 000 1.72zm6.445 0a.86.86 0 100-1.72.86.86 0 000 1.72z" fill="#4C51CC"/></svg>