<svg width="22" height="22" fill="none" xmlns="http://www.w3.org/2000/svg"><g clip-path="url(#clip0)"><path d="M21.998 17.727A3.254 3.254 0 0021 15.49c-1.2-1.158-2.206-1.826-3.165-2.103-1.32-.382-2.545-.034-3.637 1.032l-.005.005-1.162 1.153c-.726-.41-2.138-1.308-3.663-2.833l-.113-.113C7.729 11.106 6.83 9.694 6.42 8.968l1.154-1.161.005-.005C8.646 6.71 8.993 5.486 8.612 4.165 8.335 3.205 7.666 2.2 6.509 1A3.254 3.254 0 004.273.002a3.253 3.253 0 00-2.302.835l-.025.022a.902.902 0 00-.033.032C.65 2.152-.01 3.918 0 5.998.018 9.53 1.96 13.57 5.194 16.806a20.94 20.94 0 002.06 1.794.86.86 0 101.046-1.364 19.243 19.243 0 01-1.89-1.646c-2.922-2.921-4.676-6.51-4.691-9.6-.008-1.602.474-2.94 1.393-3.868l.007-.006a1.546 1.546 0 012.153.077c2.225 2.308 2.064 3.397 1.08 4.405L4.76 8.203a.86.86 0 00-.175.955c.04.09 1.018 2.253 3.455 4.69l.113.112c2.436 2.437 4.598 3.415 4.689 3.455a.86.86 0 00.955-.175l1.605-1.593c1.008-.983 2.098-1.144 4.405 1.08.604.584.638 1.53.078 2.154l-.007.006c-.921.913-2.244 1.394-3.828 1.394h-.04c-1.266-.006-2.732-.353-4.24-1.004a.86.86 0 10-.68 1.578c1.742.752 3.395 1.137 4.912 1.145h.048c2.06 0 3.808-.66 5.06-1.913a.835.835 0 00.031-.033l.022-.025a3.253 3.253 0 00.835-2.302z" fill="#4C51CC"/></g><defs><clipPath id="clip0"><path fill="#fff" d="M0 0h22v22H0z"/></clipPath></defs></svg>