<svg width="22" height="22" fill="none" xmlns="http://www.w3.org/2000/svg"><path d="M7.434 21.14a.86.86 0 01-.86.86H4.598a3.441 3.441 0 01-3.438-3.438V3.438A3.441 3.441 0 014.598 0h10.565a3.441 3.441 0 013.438 3.438V8.55a.86.86 0 01-1.719 0V3.437a1.72 1.72 0 00-1.719-1.718H4.598a1.72 1.72 0 00-1.72 1.718v15.126a1.72 1.72 0 001.72 1.718h1.976a.86.86 0 01.86.86zm7.73-15.124a.86.86 0 00-.86-.86H5.452a.86.86 0 000 1.719h8.852a.86.86 0 00.86-.86zM11.73 9.453a.86.86 0 00-.859-.86H5.452a.86.86 0 000 1.72h5.42a.86.86 0 00.858-.86zm-6.278 2.578a.86.86 0 000 1.719h3.571a.86.86 0 100-1.719h-3.57zm14.993 9.33a1.72 1.72 0 01-1.339.639h-8.392a1.737 1.737 0 01-1.697-2.094 6.055 6.055 0 012.07-3.427 6.02 6.02 0 011.308-.82 3.336 3.336 0 01-.836-2.211 3.355 3.355 0 013.351-3.352 3.355 3.355 0 013.352 3.352c0 .846-.317 1.62-.837 2.211.467.215.907.49 1.308.82a6.056 6.056 0 012.07 3.415 1.751 1.751 0 01-.358 1.467zm-7.168-7.913c0 .9.733 1.633 1.633 1.633s1.633-.733 1.633-1.633-.732-1.633-1.633-1.633c-.9 0-1.633.732-1.633 1.633zm5.844 6.809v-.002a4.32 4.32 0 00-4.21-3.43 4.32 4.32 0 00-4.21 3.43c-.005.02.008.026.008.026h8.397s.012-.009.015-.024z" fill="#4C51CC"/></svg>