<svg width="22" height="22" fill="none" xmlns="http://www.w3.org/2000/svg"><path d="M5.65 20.281H2.609a.873.873 0 01-.687-.327.898.898 0 01-.182-.752c.892-4.287 4.675-7.417 9.042-7.519a5.903 5.903 0 00.44 0 9.415 9.415 0 013.104.598.86.86 0 10.604-1.61 11.332 11.332 0 00-.43-.15 5.839 5.839 0 002.345-4.677A5.85 5.85 0 0011 0a5.85 5.85 0 00-5.844 5.844c0 1.912.924 3.613 2.348 4.68a11.168 11.168 0 00-3.6 1.979 11.212 11.212 0 00-3.848 6.348A2.61 2.61 0 002.608 22h3.043a.86.86 0 100-1.719zM6.876 5.844A4.13 4.13 0 0111 1.719a4.13 4.13 0 014.125 4.125 4.13 4.13 0 01-3.924 4.12 11.1 11.1 0 00-.402 0 4.13 4.13 0 01-3.924-4.12z" fill="#4C51CC"/><path d="M21.342 14.807a2.316 2.316 0 00-2.113-1.358h-2.686c-.966 0-1.81.57-2.15 1.453-.045.117-.1.265-.157.438H8.609a.86.86 0 00-.617.26l-1.476 1.521a.86.86 0 00.004 1.201l1.504 1.53a.86.86 0 00.613.257h2.793a.86.86 0 100-1.718H8.997l-.663-.675.638-.657h5.908a.86.86 0 00.835-.655c.07-.284.157-.557.283-.885.083-.217.292-.351.547-.351h2.682c.243 0 .452.131.546.34.23.517.506 1.316.508 2.192.002.882-.273 1.7-.504 2.23a.587.587 0 01-.54.351h-2.714a.611.611 0 01-.554-.38 5.714 5.714 0 01-.266-.851.86.86 0 00-1.672.4c.1.417.214.779.35 1.106.36.875 1.2 1.442 2.14 1.444h2.718c.918 0 1.747-.543 2.113-1.384.297-.68.65-1.74.648-2.92-.003-1.177-.36-2.22-.658-2.889z" fill="#4C51CC"/><path d="M18.52 18.563a.86.86 0 100-1.72.86.86 0 000 1.72z" fill="#4C51CC"/></svg>