<svg width="22" height="22" fill="none" xmlns="http://www.w3.org/2000/svg"><g clip-path="url(#clip0)"><path d="M5.19 8.791a3.65 3.65 0 003.644 3.646.858.858 0 110 1.715 5.367 5.367 0 01-5.36-5.36 5.367 5.367 0 015.36-5.361 5.367 5.367 0 015.36 5.36.858.858 0 01-1.715 0 3.65 3.65 0 00-3.645-3.645A3.65 3.65 0 005.19 8.791zm.673 7.587c-2.2-2.41-4.102-4.492-4.105-7.595.005-3.897 3.18-7.068 7.076-7.068 3.898 0 7.072 3.171 7.076 7.068a.858.858 0 101.715-.002 8.733 8.733 0 00-2.578-6.21A8.734 8.734 0 008.834 0a8.734 8.734 0 00-6.213 2.572 8.735 8.735 0 00-2.578 6.21c.002 1.71.476 3.314 1.451 4.903.844 1.377 1.941 2.578 3.102 3.85 1.139 1.246 2.316 2.535 3.256 4.023a.857.857 0 101.45-.917c-1.021-1.615-2.25-2.962-3.439-4.263zm15.912.411a.855.855 0 01-1.211.055l-.108-.099v2.838A2.418 2.418 0 0118.041 22h-4.82a2.418 2.418 0 01-2.414-2.416v-2.8l-.065.06a.858.858 0 11-1.157-1.267l4.427-4.047a2.42 2.42 0 013.282 0l2.836 2.593a.855.855 0 01.089.081l1.502 1.373c.35.32.374.863.054 1.212zm-3.034-1.612l-2.605-2.38a.713.713 0 00-.966 0l-2.648 2.42v4.367a.7.7 0 00.7.7h4.82a.7.7 0 00.699-.7v-4.407z" fill="#4C51CB"/></g><defs><clipPath id="clip0"><path fill="#fff" d="M0 0h22v22H0z"/></clipPath></defs></svg>