<svg width="22" height="22" fill="none" xmlns="http://www.w3.org/2000/svg"><path d="M21.14 13.793a.857.857 0 00-.236.034.858.858 0 00-.236-.034H14.91a.859.859 0 00-.7.36l-1.031 1.445H8.692L7.66 14.153a.86.86 0 00-.7-.36H3.009v-4.34a.86.86 0 01.86-.86h14.265a.86.86 0 01.86.86v.902a.86.86 0 101.718 0v-.902c0-.763-.334-1.45-.862-1.922l.003-.054V6.016c0-.762-.333-1.448-.86-1.92V2.578A2.581 2.581 0 0016.414 0H5.586a2.58 2.58 0 00-2.578 2.578v1.518a2.572 2.572 0 00-.86 1.92v1.289c0 .071.01.14.026.206a2.572 2.572 0 00-.885 1.942v4.34h-.043a.856.856 0 00-.193.023.856.856 0 00-1.053.836v3.91A3.441 3.441 0 003.438 22h15.124A3.441 3.441 0 0022 18.562v-3.91a.86.86 0 00-.86-.859zM4.728 2.578a.86.86 0 01.859-.86h10.828a.86.86 0 01.86.86v.86H4.726v-.86zm-.86 3.438a.86.86 0 01.86-.86h12.546a.86.86 0 01.86.86v.859H3.867v-.86zM18.562 20.28H3.438a1.72 1.72 0 01-1.718-1.718v-3.051h4.8l1.032 1.444c.161.227.421.36.699.36h5.371a.859.859 0 00.7-.36l1.031-1.444h4.93v3.05a1.72 1.72 0 01-1.72 1.72z" fill="#4C51CB"/></svg>