<svg width="20" height="20" fill="none" xmlns="http://www.w3.org/2000/svg"><g clip-path="url(#clip0)"><path d="M19.427 15.69c.762.76.762 2 0 2.761l-.003.004-1.337 1.32a.779.779 0 01-1.105-.007.781.781 0 01.007-1.105l.782-.772H5.233a3.128 3.128 0 01-3.125-3.125V2.209l-.779.769A.781.781 0 01.232 1.866L1.552.564a1.967 1.967 0 012.754 0l1.32 1.302a.781.781 0 01-1.098 1.112l-.857-.846v12.634c0 .861.701 1.562 1.562 1.562H17.85l-.86-.85a.781.781 0 011.097-1.112l1.337 1.32.003.003zM17.655 0H7.538a.781.781 0 000 1.563h10.117c.432 0 .782.35.782.78V12.5a.781.781 0 101.562 0V2.344A2.344 2.344 0 0017.655 0zm-6.172 13.394c.432 0 .782-.35.782-.781V9.136a2.15 2.15 0 00-2.149-2.149c-.519 0-.995.185-1.367.493a2.138 2.138 0 00-2.207-.321.781.781 0 00-1.308.576v4.882a.781.781 0 101.562 0V9.136a.587.587 0 011.172 0v3.481a.781.781 0 101.562 0V9.136a.587.587 0 011.172 0v3.477c0 .431.35.781.781.781zm3.545-9.175h-.024c-.993 0-1.802.81-1.802 1.804a.781.781 0 001.563 0c0-.131.11-.242.24-.242h.023c.125 0 .23.102.24.226-.016.057-.136.41-.885 1.234-.464.51-.92.927-.925.93a.781.781 0 00.525 1.36h2.11a.781.781 0 100-1.562h-.269c.694-.817 1.006-1.425 1.006-1.946 0-.995-.808-1.804-1.802-1.804z" fill="#4C51CB"/></g><defs><clipPath id="clip0"><path fill="#fff" d="M0 0h20v20H0z"/></clipPath></defs></svg>