<svg width="22" height="22" fill="none" xmlns="http://www.w3.org/2000/svg"><g clip-path="url(#clip0)" fill="#4C51CB"><path d="M21.976 6.138c-.238-2.217-1.485-3.503-2.797-4.563C17.334.086 14.989.003 14.89 0a.86.86 0 00-.772 1.283c.642 1.131.343 1.962-.035 3.014-.287.797-.612 1.7-.472 2.753a4.332 4.332 0 001.583 2.841l.058.045v2.588c-1.171.068-2.06.31-2.704.733-.789.519-1.206 1.313-1.206 2.297 0 .7.211 1.273.397 1.778.18.486.334.906.334 1.444 0 .235-.041.68-.314 1.018-.261.323-.705.486-1.32.486-4.972 0-8.721-3.99-8.721-9.28 0-5.118 4.163-9.282 9.28-9.282.197 0 .396.007.591.019a.86.86 0 00.108-1.715 10.928 10.928 0 00-8.476 3.2A10.928 10.928 0 000 10.998c0 2.963 1.037 5.716 2.919 7.754 1.934 2.093 4.605 3.246 7.522 3.246 1.444 0 2.241-.612 2.656-1.125.448-.556.695-1.3.695-2.098 0-.845-.233-1.479-.44-2.038-.162-.441-.29-.79-.29-1.184 0-.41.125-.66.432-.861.267-.176.781-.379 1.76-.447v5.07c-.029.673.21 1.323.67 1.834a2.559 2.559 0 001.915.849c.638 0 1.246-.233 1.723-.664.51-.462.811-1.094.846-1.78a.86.86 0 00-1.716-.088.851.851 0 01-.282.592.85.85 0 01-.618.22.851.851 0 01-.592-.282.863.863 0 01-.23-.617l.002-.022v-8.646a4.215 4.215 0 001.718-.018v4.73a.86.86 0 001.72 0V9.882c.239-.191.46-.41.657-.654a4.176 4.176 0 00.909-3.089zm-2.247 2.01a2.47 2.47 0 01-1.671.91 2.441 2.441 0 01-1.792-.511 2.622 2.622 0 01-.95-1.723c-.085-.638.133-1.244.385-1.946.297-.825.644-1.791.462-2.927.602.17 1.317.462 1.936.962 1.218.983 2.006 1.897 2.168 3.408.07.661-.12 1.31-.538 1.826z"/><path d="M9.624 4.726a1.29 1.29 0 002.578 0 1.29 1.29 0 00-1.289-1.289 1.29 1.29 0 00-1.289 1.29zM7.27 7.701a1.291 1.291 0 000-1.824 1.291 1.291 0 00-1.823 0 1.291 1.291 0 00.911 2.201c.33 0 .661-.125.912-.377zM3.438 11.3a1.29 1.29 0 002.578 0 1.29 1.29 0 00-1.289-1.289 1.29 1.29 0 00-1.289 1.29zm3.051 5.544c.344 0 .668-.134.911-.378a1.28 1.28 0 00.378-.912 1.29 1.29 0 10-1.289 1.29z"/></g><defs><clipPath id="clip0"><path fill="#fff" d="M0 0h22v22H0z"/></clipPath></defs></svg>