<svg width="22" height="22" fill="none" xmlns="http://www.w3.org/2000/svg"><g clip-path="url(#clip0)"><path fill-rule="evenodd" clip-rule="evenodd" d="M7.82 3.18A3.183 3.183 0 0111 0a3.183 3.183 0 013.18 3.18v15.64A3.183 3.183 0 0111 22a3.183 3.183 0 01-3.18-3.18V3.18zM11 20.28c.806 0 1.46-.655 1.46-1.46V3.18a1.461 1.461 0 00-2.92-.001V18.82c0 .806.654 1.461 1.46 1.461zm10.14-4.936a.86.86 0 00.86-.86V8.428a3.183 3.183 0 00-3.18-3.18 3.183 3.183 0 00-3.18 3.18V18.82A3.183 3.183 0 0018.82 22 3.183 3.183 0 0022 18.82a.86.86 0 10-1.719 0 1.462 1.462 0 01-2.922.001V8.426a1.462 1.462 0 012.922 0v6.059c0 .474.385.86.86.86zM3.18 7.87A3.183 3.183 0 000 11.049v7.771A3.183 3.183 0 003.18 22a3.183 3.183 0 003.18-3.18v-7.772a3.183 3.183 0 00-3.18-3.18zm1.46 10.95c0 .806-.655 1.461-1.46 1.461a1.462 1.462 0 01-1.461-1.46v-7.773a1.462 1.462 0 012.922 0v7.772z" fill="#4C51CB"/></g><defs><clipPath id="clip0"><path fill="#fff" d="M0 0h22v22H0z"/></clipPath></defs></svg>