<svg width="22" height="22" fill="none" xmlns="http://www.w3.org/2000/svg"><g clip-path="url(#clip0)"><path d="M20.281 17.272V2.148a.43.43 0 00-.43-.43h-1.89a.43.43 0 00-.43.43V20.28h3.61a.86.86 0 110 1.718H.86a.86.86 0 01-.86-.86v-6.143a2.15 2.15 0 012.149-2.148h1.89a2.15 2.15 0 012.149 2.148v2.277a.86.86 0 11-1.719 0v-2.277a.43.43 0 00-.43-.43H2.15a.43.43 0 00-.43.43v5.285h6.187V9.023a2.15 2.15 0 012.149-2.148h1.89a2.15 2.15 0 012.148 2.148v8.25a.86.86 0 11-1.718 0v-8.25a.43.43 0 00-.43-.43h-1.89a.43.43 0 00-.43.43V20.28h6.187V2.148A2.15 2.15 0 0117.961 0h1.89A2.15 2.15 0 0122 2.148v15.124a.86.86 0 11-1.719 0zM3.423 7.691h-1.28c-.21 0-.424-.133-.424-.387a.86.86 0 10-1.719 0c0 1.154.9 2.063 2.063 2.103v.475a.86.86 0 101.719 0v-.498c1.182-.165 2.063-1.137 2.063-2.349V6.96c0-1.35-1.086-2.449-2.422-2.449h-.787a.682.682 0 01-.699-.68v-.063c0-.384.3-.674.699-.674h.744c.22 0 .446.146.446.391a.86.86 0 001.718 0c0-1.03-.76-1.889-1.762-2.073V.859a.86.86 0 10-1.719 0v.582c-.425.1-.815.313-1.13.622a2.366 2.366 0 00-.714 1.705v.063c0 .649.253 1.255.712 1.706.454.447 1.06.693 1.705.693h.787c.381 0 .703.334.703.73v.075c0 .374-.302.656-.703.656z" fill="#4C51CB"/></g><defs><clipPath id="clip0"><path fill="#fff" d="M0 0h22v22H0z"/></clipPath></defs></svg>