<svg width="22" height="22" fill="none" xmlns="http://www.w3.org/2000/svg"><path d="M19.544 14.429a3.176 3.176 0 01-1.211-.909.86.86 0 10-1.345 1.07c.444.559.96.93 1.355 1.159-.066.37-.205.783-.45 1.134-.382.552-.922.82-1.651.82H5.758c-1.329 0-1.922-1.113-2.093-1.959a5.16 5.16 0 00.863-.627 4.386 4.386 0 001.488-3.344V8.766c0-2.712 2.198-4.948 4.9-4.984l.022-.002.019.001a.869.869 0 00.067-.003l.06.004c2.726.036 4.943 2.272 4.943 4.984v1.203a.86.86 0 001.72 0V8.766c0-3.408-2.602-6.257-5.93-6.656V.86a.86.86 0 10-1.72 0v1.26a6.638 6.638 0 00-3.871 1.941 6.67 6.67 0 00-1.93 4.704v3.007c0 1.92-1.728 2.613-1.84 2.656a.844.844 0 00-.565.807c0 .902.32 1.889.86 2.638a3.617 3.617 0 003.007 1.548h2.664A2.581 2.581 0 0011 22a2.581 2.581 0 002.578-2.578h2.664c1.639 0 2.57-.848 3.064-1.559.725-1.045.803-2.185.803-2.627a.844.844 0 00-.566-.807zM11 20.28a.86.86 0 01-.86-.86h1.72a.86.86 0 01-.86.86z" fill="#4C51CB"/></svg>