<svg width="22" height="22" fill="none" xmlns="http://www.w3.org/2000/svg"><g clip-path="url(#clip0)"><path d="M21.615.946a.86.86 0 00-.755-.14c-.995.287-2.264.206-3.87.104-1.006-.064-2.146-.137-3.455-.137a3.43 3.43 0 00-2.578 1.168A3.43 3.43 0 008.379.773c-1.31 0-2.45.073-3.455.137-1.606.102-2.875.183-3.87-.103a.86.86 0 00-1.097.826V15.89a3.415 3.415 0 001.004 2.436 3.414 3.414 0 002.434 1.01h6.23a.86.86 0 100-1.719h-6.23c-.46 0-.893-.18-1.217-.505a1.709 1.709 0 01-.502-1.22v-.456a3.416 3.416 0 001.719.462h6.402a.43.43 0 01.38.23.86.86 0 001.613-.3.855.855 0 00.026-.209V4.211c0-.948.771-1.719 1.72-1.719 1.254 0 2.365.07 3.345.133 1.282.082 2.369.15 3.357.044v6.183a.86.86 0 101.719 0v-7.22a.86.86 0 00-.342-.686zM3.395 14.18a1.72 1.72 0 01-1.72-1.72V2.67c.99.107 2.076.038 3.358-.044.98-.062 2.091-.133 3.346-.133a1.72 1.72 0 011.719 1.719v9.99a2.157 2.157 0 00-.301-.021H3.395zm5.242-8.551a.86.86 0 01-.86.86H4.04a.86.86 0 110-1.72h3.738a.86.86 0 01.86.86zm-1.29 3.437a.86.86 0 01-.859.86H4.04a.86.86 0 110-1.719h2.45a.86.86 0 01.859.86zm10.21 2.645l-4.718 4.708a.86.86 0 00-.216.359l-1.027 3.382a.86.86 0 001.051 1.078l3.47-.96a.86.86 0 00.377-.22l4.708-4.7a2.582 2.582 0 000-3.646 2.58 2.58 0 00-3.645 0zm-2.118 6.97l-1.745.484.511-1.681 3.184-3.177 1.215 1.216-3.165 3.158zm4.548-4.539l-.166.166-1.216-1.215.166-.165a.86.86 0 011.216 1.214z" fill="#4C51CC"/></g><defs><clipPath id="clip0"><path fill="#fff" d="M0 0h22v22H0z"/></clipPath></defs></svg>