<svg width="22" height="22" viewBox="0 0 22 22" fill="none" xmlns="http://www.w3.org/2000/svg">
<g clip-path="url(#clip0)">
<path d="M19.4592 8.372C19.459 8.37066 19.4589 8.36915 19.4587 8.36781L21.8112 5.4362C21.9913 5.21163 22.0471 4.91185 21.9598 4.63742C21.8723 4.36316 21.6533 4.15084 21.3763 4.07195L18.0678 3.12933C17.6114 2.99924 17.1359 3.26394 17.0058 3.72031C16.8757 4.17685 17.1404 4.65219 17.5968 4.78227L19.6605 5.37024L17.6829 7.83439L11.1772 9.6906C11.1179 9.69312 11.0588 9.70218 11.0006 9.71729C10.9429 9.70235 10.8843 9.69312 10.8254 9.69043L4.30588 7.81996L2.34024 5.37024L4.40374 4.78227C4.86011 4.65236 5.12481 4.17685 4.99472 3.72048C4.86464 3.26394 4.38914 2.99941 3.93276 3.12933L0.624177 4.07195C0.347398 4.15084 0.128359 4.36316 0.0409112 4.63759C-0.0465367 4.91185 0.0091883 5.21179 0.189455 5.43637L2.5623 8.39332L0.175692 11.5327C0.00700629 11.7546 -0.0436833 12.0445 0.0399042 12.3103C0.123492 12.5762 0.330782 12.7852 0.596147 12.8706L2.57841 13.5096V17.2402C2.57841 18.7674 3.60412 20.1266 5.07277 20.5457L9.33003 21.7603C9.88912 21.9199 10.4642 21.9996 11.039 21.9996C11.6173 21.9996 12.1953 21.9189 12.7573 21.7577L16.9758 20.5472C18.4416 20.1266 19.4651 18.7679 19.4651 17.243C19.4651 16.7685 19.0804 16.3838 18.6057 16.3838C18.131 16.3838 17.7463 16.7685 17.7463 17.243C17.7463 18.0055 17.2346 18.685 16.5016 18.8951L12.2831 20.1056C12.1433 20.1457 12.0018 20.1785 11.8596 20.2048V12.9067L13.2687 14.8551C13.4335 15.0828 13.6945 15.2109 13.9653 15.2109C14.0525 15.2109 14.141 15.1976 14.2273 15.1699L21.403 12.8711C21.6677 12.7864 21.875 12.5787 21.9594 12.3142C22.044 12.0495 21.9954 11.7601 21.8289 11.5377L19.4592 8.372ZM3.88879 9.48835L9.34782 11.0547L7.66667 13.3436L2.27813 11.6069L3.88879 9.48835ZM5.54442 18.8929C4.81009 18.6833 4.29716 18.0037 4.29716 17.2402V14.0635L7.72894 15.1694C7.81572 15.1975 7.90451 15.2111 7.99246 15.2111C8.26085 15.2111 8.52017 15.0848 8.68516 14.8603L10.1409 12.8782V20.1897C10.0271 20.1666 9.91379 20.1395 9.80151 20.1075L5.54442 18.8929ZM14.2964 13.3429L12.6448 11.0592L18.1483 9.48902L19.7303 11.6022L14.2964 13.3429ZM10.1409 7.56248V0.859373C10.1409 0.384704 10.5258 0 11.0003 0C11.4749 0 11.8596 0.384704 11.8596 0.859373V7.56248C11.8596 8.03715 11.4749 8.42185 11.0003 8.42185C10.5258 8.42185 10.1409 8.03715 10.1409 7.56248ZM13.5784 6.70311V0.859373C13.5784 0.384704 13.9631 0 14.4378 0C14.9124 0 15.2971 0.384704 15.2971 0.859373V6.70311C15.2971 7.17778 14.9124 7.56248 14.4378 7.56248C13.9631 7.56248 13.5784 7.17778 13.5784 6.70311ZM6.7034 6.70311V0.859373C6.7034 0.384704 7.08827 0 7.56277 0C8.03744 0 8.42214 0.384704 8.42214 0.859373V6.70311C8.42214 7.17778 8.03744 7.56248 7.56277 7.56248C7.08827 7.56248 6.7034 7.17778 6.7034 6.70311Z" fill="#4C51CB"/>
</g>
<defs>
<clipPath id="clip0">
<rect width="22" height="22" fill="white"/>
</clipPath>
</defs>
</svg>
