<svg width="22" height="22" fill="none" xmlns="http://www.w3.org/2000/svg"><g clip-path="url(#clip0)"><path d="M19.46 8.372l-.001-.004 2.352-2.932a.86.86 0 00-.435-1.364l-3.308-.943a.86.86 0 00-.471 1.653l2.063.588-1.977 2.464-6.506 1.857a.845.845 0 00-.176.026.854.854 0 00-.176-.027l-6.52-1.87L2.34 5.37l2.064-.588a.86.86 0 10-.471-1.653l-3.309.943A.86.86 0 00.19 5.436l2.373 2.957-2.386 3.14a.86.86 0 00.42 1.338l1.982.639v3.73a3.452 3.452 0 002.495 3.306L9.33 21.76a6.225 6.225 0 003.427-.002l4.219-1.21a3.453 3.453 0 002.49-3.305.86.86 0 00-1.72 0c0 .763-.511 1.442-1.244 1.652l-4.219 1.21c-.14.04-.281.073-.423.1v-7.298l1.409 1.948a.86.86 0 00.958.315l7.176-2.299a.859.859 0 00.426-1.333l-2.37-3.166zM3.888 9.488l5.459 1.567-1.681 2.289-5.389-1.737 1.61-2.119zm1.655 9.405a1.726 1.726 0 01-1.247-1.653v-3.176l3.432 1.105a.854.854 0 00.956-.309l1.456-1.982v7.312a4.514 4.514 0 01-.34-.082l-4.257-1.215zm8.752-5.55l-1.651-2.284 5.503-1.57 1.582 2.113-5.434 1.74zm-4.155-5.78V.858a.86.86 0 011.719 0v6.703a.86.86 0 11-1.72 0zm3.437-.86V.86a.86.86 0 111.72 0v5.844a.86.86 0 11-1.72 0zm-6.875 0V.86a.86.86 0 011.72 0v5.844a.86.86 0 11-1.72 0z" fill="#4C51CB"/></g><defs><clipPath id="clip0"><path fill="#fff" d="M0 0h22v22H0z"/></clipPath></defs></svg>