<svg width="22" height="22" fill="none" xmlns="http://www.w3.org/2000/svg"><path d="M22 21.14a.86.86 0 01-.86.86h-8.42a.86.86 0 01-.86-.86V5.114H11a.86.86 0 01-.86-.86v-.858H4.985v.859a.86.86 0 01-.859.86h-.86V21.14a.86.86 0 01-.859.859H.86a.86.86 0 110-1.719h.688V4.254a.86.86 0 01.86-.86h.859v-.859a.86.86 0 01.859-.86h2.578V.86a.86.86 0 111.719 0v.817H11a.86.86 0 01.86.86v.859h.871a.855.855 0 01.488.131l5.453 3.43a3.789 3.789 0 011.781 3.224v3.226a.86.86 0 11-1.719 0V10.18c0-.723-.365-1.384-.977-1.77l-4.179-2.627V20.28h1.676v-1.375a.86.86 0 111.719 0v1.375h1.761v-2.62a.86.86 0 111.72 0v2.62h.687a.86.86 0 01.859.86zM5.8 10.313a.86.86 0 00-.859.86v.86a.86.86 0 101.72 0v-.86a.86.86 0 00-.86-.86zm3.438 0a.86.86 0 00-.86.86v.86a.86.86 0 101.72 0v-.86a.86.86 0 00-.86-.86zM5.801 14.18a.86.86 0 00-.86.86v.858a.86.86 0 101.72 0v-.859a.86.86 0 00-.86-.86zm3.437 0a.86.86 0 00-.86.86v.858a.86.86 0 101.72 0v-.859a.86.86 0 00-.86-.86zm0 3.867a.86.86 0 00-.86.86v.859a.86.86 0 101.72 0v-.86a.86.86 0 00-.86-.86zm7.735-6.875a.86.86 0 10-1.72 0v.86a.86.86 0 101.72 0v-.86zm-.86 3.008a.86.86 0 00-.86.86v.858a.86.86 0 101.72 0v-.859a.86.86 0 00-.86-.86zM5.801 18.047a.86.86 0 00-.86.86v.859a.86.86 0 101.72 0v-.86a.86.86 0 00-.86-.86zm0-11.602a.86.86 0 00-.86.86v.86a.86.86 0 101.72 0v-.86a.86.86 0 00-.86-.86zm3.437 0a.86.86 0 00-.86.86v.86a.86.86 0 101.72 0v-.86a.86.86 0 00-.86-.86z" fill="#4C51CB"/></svg>