<svg width="22" height="22" viewBox="0 0 22 22" fill="none" xmlns="http://www.w3.org/2000/svg">
<path d="M0 18.7986C0 18.0977 0.568254 17.5294 1.26923 17.5294H20.7308C21.4317 17.5294 22 18.0977 22 18.7986C22 19.4996 21.4317 20.0679 20.7308 20.0679H1.26923C0.568254 20.0679 0 19.4996 0 18.7986Z" fill="#4C51CC"/>
<path d="M0 3.26923C0 2.56825 0.568254 2 1.26923 2H17.3462C18.0471 2 18.6154 2.56825 18.6154 3.26923C18.6154 3.97021 18.0471 4.53846 17.3462 4.53846H1.26923C0.568255 4.53846 0 3.97021 0 3.26923Z" fill="#4C51CC"/>
<path d="M0 11.0339C0 10.333 0.568254 9.76471 1.26923 9.76471H13.9615C14.6625 9.76471 15.2308 10.333 15.2308 11.0339C15.2308 11.7349 14.6625 12.3032 13.9615 12.3032H1.26923C0.568253 12.3032 0 11.7349 0 11.0339Z" fill="#4C51CC"/>
</svg>
