<svg width="22" height="22" fill="none" xmlns="http://www.w3.org/2000/svg"><path fill-rule="evenodd" clip-rule="evenodd" d="M18.563 1.719h-1.118v-.86a.86.86 0 10-1.718 0v.86h-3.91v-.86a.86.86 0 10-1.72 0v.86H6.23v-.86a.86.86 0 10-1.718 0v.86H3.438A3.441 3.441 0 000 5.156v13.407A3.441 3.441 0 003.438 22h6.574a.86.86 0 100-1.719H3.437a1.72 1.72 0 01-1.718-1.718V5.155a1.72 1.72 0 011.718-1.718h1.075v.859a.86.86 0 101.718 0v-.86h3.868v.86a.86.86 0 101.718 0v-.86h3.91v.86a.86.86 0 101.72 0v-.86h1.116a1.72 1.72 0 011.72 1.72v4.898a.86.86 0 001.718 0V5.156a3.441 3.441 0 00-3.438-3.437zm-1.977 8.164a.86.86 0 100-1.719.86.86 0 000 1.719zM11.602 16.8c0-2.867 2.332-5.2 5.199-5.2S22 13.935 22 16.802 19.668 22 16.8 22a5.205 5.205 0 01-5.198-5.2zm1.718 0a3.484 3.484 0 003.48 3.48 3.484 3.484 0 003.481-3.48c0-1.92-1.561-3.48-3.48-3.48a3.484 3.484 0 00-3.48 3.48zm4.727-.86h-.387v-.902a.86.86 0 10-1.719 0V16.8c0 .474.385.86.86.86h1.246a.86.86 0 000-1.72zm-4.34-6.918a.86.86 0 11-1.719 0 .86.86 0 011.719 0zM9.109 13.62a.86.86 0 100-1.719.86.86 0 000 1.72zM6.23 9.023a.86.86 0 11-1.718 0 .86.86 0 011.718 0zm-.859 4.598a.86.86 0 100-1.719.86.86 0 000 1.72zm.86 2.879a.86.86 0 11-1.72 0 .86.86 0 011.72 0zm2.878.86a.86.86 0 100-1.72.86.86 0 000 1.72zm.86-8.337a.86.86 0 11-1.719 0 .86.86 0 011.719 0z" fill="#4C51CB"/></svg>