<svg width="22" height="22" viewBox="0 0 22 22" fill="none" xmlns="http://www.w3.org/2000/svg">
<path d="M5.58593 9.625C5.58593 9.40412 5.67053 9.1834 5.83955 9.01538C6.17625 8.68086 6.72041 8.68254 7.05493 9.01924L10.3934 12.3795C10.5557 12.5428 10.7712 12.6328 11 12.6328C11.2288 12.6328 11.4441 12.5428 11.6064 12.3795L14.9451 9.01924C15.2796 8.68254 15.8236 8.68086 16.1603 9.01538C16.497 9.3499 16.4988 9.89406 16.1643 10.2308L12.8257 13.5909C12.3384 14.0815 11.69 14.3516 11 14.3516C10.31 14.3516 9.66159 14.0815 9.17433 13.5909L5.83569 10.2308C5.66919 10.0631 5.58593 9.84404 5.58593 9.625Z" fill="#4C51CB"/>
</svg>
