<svg width="22" height="22" fill="none" xmlns="http://www.w3.org/2000/svg"><path d="M18.086 9.352a.859.859 0 00-1.215.02L8.39 18.13c-.767.775-1.739 1.202-2.735 1.202-.996 0-1.941-.423-2.733-1.224-1.853-1.873-1.336-4.073 0-5.424l8.466-8.464a.86.86 0 00-1.215-1.215L1.706 11.47l-.003.003C.64 12.547.037 13.9.002 15.284c-.038 1.476.55 2.87 1.7 4.033 1.105 1.117 2.51 1.733 3.954 1.733 1.46 0 2.867-.61 3.96-1.716l8.49-8.767a.859.859 0 00-.02-1.215z" fill="#4C51CB"/><path d="M20.784 2.176C19.99 1.373 19.034.95 18.018.95h-.047c-.969.013-1.92.424-2.676 1.16l-.007.006-9.827 9.991c-.984.994-.984 2.436-.001 3.43.477.482 1.085.748 1.712.748.635 0 1.248-.266 1.727-.75l6.792-6.94a.86.86 0 10-1.228-1.202l-6.79 6.936c-.15.153-.328.237-.5.237-.17 0-.336-.08-.492-.237-.452-.457-.15-.86.003-1.015l9.814-9.978c.938-.905 2.14-.887 3.064.048 1.096 1.108.797 2.4.016 3.19a.86.86 0 101.221 1.209c.754-.762 1.18-1.731 1.2-2.728.021-1.043-.41-2.066-1.215-2.88z" fill="#4C51CB"/></svg>