<svg width="22" height="22" fill="none" xmlns="http://www.w3.org/2000/svg"><path d="M3.094 14.094A3.097 3.097 0 010 11a3.097 3.097 0 013.094-3.094A3.097 3.097 0 016.188 11a.86.86 0 11-1.72 0c0-.758-.616-1.375-1.374-1.375-.758 0-1.375.617-1.375 1.375s.617 1.375 1.375 1.375a.86.86 0 110 1.719zm16.672-.86a.86.86 0 00-.86-.859A1.377 1.377 0 0117.531 11c0-.758.617-1.375 1.375-1.375s1.375.617 1.375 1.375A.86.86 0 1022 11a3.097 3.097 0 00-3.094-3.094A3.097 3.097 0 0015.813 11a3.097 3.097 0 003.093 3.094.86.86 0 00.86-.86zm-7.907 0a.86.86 0 00-.859-.859A1.377 1.377 0 019.625 11c0-.758.617-1.375 1.375-1.375s1.375.617 1.375 1.375a.86.86 0 101.719 0A3.097 3.097 0 0011 7.906 3.097 3.097 0 007.906 11 3.097 3.097 0 0011 14.094a.86.86 0 00.86-.86z" fill="#4C51CB"/></svg>