<svg width="22" height="22" fill="none" xmlns="http://www.w3.org/2000/svg"><path d="M15.512 16.078v1.64c0 1.81-1.542 3.282-3.437 3.282H3.438C1.542 21 0 19.528 0 17.719V3.28C0 1.471 1.542 0 3.438 0h8.637c1.895 0 3.437 1.472 3.437 3.281v1.64c0 .454-.384.821-.86.821-.474 0-.858-.367-.858-.82v-1.64c0-.905-.771-1.641-1.72-1.641H3.439c-.948 0-1.72.736-1.72 1.64V17.72c0 .904.772 1.64 1.72 1.64h8.637c.948 0 1.719-.736 1.719-1.64v-1.64c0-.454.384-.821.859-.821s.86.367.86.82zm5.86-6.987l-1.925-1.837a.888.888 0 00-1.215 0 .794.794 0 000 1.16L19.6 9.721H9.28c-.474 0-.859.367-.859.82 0 .453.385.82.86.82H19.6l-1.37 1.307a.794.794 0 000 1.16c.169.16.389.24.608.24.22 0 .44-.08.608-.24l1.925-1.837c.837-.8.837-2.1 0-2.9z" fill="#4C51CC"/></svg>