<svg width="22" height="22" fill="none" xmlns="http://www.w3.org/2000/svg"><path fill-rule="evenodd" clip-rule="evenodd" d="M2.743 7.65c3.806 5.71 12.195 5.71 16.001 0l.815-1.222a.962.962 0 011.6 1.067l-.815 1.222c-.066.1-.133.197-.202.294l1.576 1.399a.962.962 0 11-1.36 1.36l-1.451-1.29c-.7.706-1.472 1.3-2.293 1.784l.78 1.952a.961.961 0 11-1.806.658l-.71-1.775a11.623 11.623 0 01-3.173.717v1.886a.962.962 0 01-1.923 0v-1.886a11.603 11.603 0 01-3.166-.715l-.718 1.816a.962.962 0 01-1.807-.658l.787-1.992a11.339 11.339 0 01-2.022-1.518l-1.215 1.113a.962.962 0 01-1.36-1.36L1.573 9.32a12 12 0 01-.429-.602L.328 7.495a.962.962 0 011.6-1.067l.815 1.223z" fill="#4C51CB"/></svg>