<svg width="22" height="22" fill="none" xmlns="http://www.w3.org/2000/svg"><path fill-rule="evenodd" clip-rule="evenodd" d="M15.51 9.064a9.923 9.923 0 013.81 3.389l.848 1.271a1 1 0 101.664-1.11l-.848-1.27c-4.75-7.125-15.219-7.125-19.969 0l-.847 1.27a1 1 0 101.664 1.11l.848-1.271a9.925 9.925 0 013.772-3.37 4.955 4.955 0 00-.45 2.07 4.99 4.99 0 006.489 4.754.86.86 0 10-.519-1.639 3.27 3.27 0 01-4.252-3.114c0-1.442.94-2.67 2.24-3.1.677-.07 1.36-.072 2.039-.005a3.271 3.271 0 012.121 4.024.86.86 0 001.65.482 4.992 4.992 0 00-.26-3.491z" fill="#4C51CB"/></svg>