<svg width="22" height="22" fill="none" xmlns="http://www.w3.org/2000/svg"><path fill-rule="evenodd" clip-rule="evenodd" d="M3.522 20.281H8.2A.86.86 0 018.2 22H3.52a3.441 3.441 0 01-3.437-3.438V3.438A3.441 3.441 0 013.522 0h10.565a3.441 3.441 0 013.438 3.438V8.25a.86.86 0 11-1.719 0V3.437a1.72 1.72 0 00-1.719-1.718H3.522a1.72 1.72 0 00-1.719 1.718v15.126a1.72 1.72 0 001.719 1.718zM9.834 9.453a.86.86 0 00-.86-.86H4.377a.86.86 0 100 1.72h4.597a.86.86 0 00.86-.86zm-5.457 2.578a.86.86 0 000 1.719h1.847a.86.86 0 100-1.719H4.377zm9.71-6.015a.86.86 0 00-.859-.86H4.377a.86.86 0 100 1.719h8.851a.86.86 0 00.86-.86zM12.1 21.45a1.004 1.004 0 01-.882-1.482l5.022-8.012a1.004 1.004 0 111.767.954l-5.023 8.013a1.004 1.004 0 01-.884.527zm2.342-7.888a2.513 2.513 0 00-2.51-2.51 2.513 2.513 0 00-2.51 2.51 2.513 2.513 0 002.51 2.51 2.513 2.513 0 002.51-2.51zm-2.51.502a.503.503 0 11.001-1.006.503.503 0 01-.001 1.005zm8.489 4.946a2.513 2.513 0 01-2.51 2.51 2.513 2.513 0 01-2.51-2.51 2.513 2.513 0 012.51-2.51 2.513 2.513 0 012.51 2.51zm-2.008 0a.503.503 0 10-1.005.001.503.503 0 001.005-.001z" fill="#4C51CB"/></svg>