<svg width="22" height="22" fill="none" xmlns="http://www.w3.org/2000/svg"><path d="M17.999 14.266V4.77a1.72 1.72 0 00-1.719-1.72h-5.409v6.145a2.58 2.58 0 01-2.578 2.578 2.58 2.58 0 01-2.578-2.578V5.5a.86.86 0 111.719 0v3.695a.86.86 0 001.718 0V2.578a.86.86 0 00-1.697-.194.859.859 0 01-.9.663.846.846 0 01-.067.004h-.773A1.72 1.72 0 003.996 4.77v13.793a1.72 1.72 0 001.719 1.718H16.28a1.72 1.72 0 001.718-1.718.86.86 0 111.719 0A3.441 3.441 0 0116.28 22H5.716a3.441 3.441 0 01-3.438-3.438V4.77a3.441 3.441 0 013.438-3.438h.32a2.58 2.58 0 014.515 0h5.73a3.441 3.441 0 013.438 3.438v9.496a.86.86 0 11-1.719 0zM6.574 16.844a.86.86 0 100 1.718h6.23a.86.86 0 100-1.718h-6.23zm9.668-2.535a.86.86 0 00-.86-.86H6.575a.86.86 0 100 1.719h8.809a.86.86 0 00.86-.86zm-.86-4.211h-1.976a.86.86 0 100 1.718h1.977a.86.86 0 100-1.718zm0-3.395h-1.976a.86.86 0 100 1.719h1.977a.86.86 0 100-1.719z" fill="#4C51CB"/></svg>