<svg width="22" height="22" fill="none" xmlns="http://www.w3.org/2000/svg"><path d="M20.786 17.258A5.798 5.798 0 0115.082 22a5.807 5.807 0 01-5.8-5.8 5.807 5.807 0 017.363-5.588.859.859 0 11-.462 1.655A4.087 4.087 0 0011 16.2a4.087 4.087 0 004.082 4.082 4.08 4.08 0 004.014-3.335.86.86 0 011.69.311zM8.078 20.28H4.641a1.72 1.72 0 01-1.72-1.718V7.261h2.536a3.011 3.011 0 003.008-3.008.86.86 0 10-1.719 0 1.29 1.29 0 01-1.289 1.289H3.069c.08-.174.19-.335.329-.475l2.838-2.863a1.653 1.653 0 011.166-.486h7.804a1.72 1.72 0 011.719 1.718v4.555a.86.86 0 001.719 0V3.438A3.441 3.441 0 0015.206 0H7.402c-.89 0-1.76.363-2.387.995L2.177 3.858a3.341 3.341 0 00-.974 2.366v12.338A3.441 3.441 0 004.641 22h3.437a.86.86 0 100-1.719zm5.893-5.076a.859.859 0 10-1.216 1.215l1.266 1.265a1.5 1.5 0 001.063.44 1.5 1.5 0 001.058-.434l3.756-3.717a.86.86 0 00-1.21-1.222l-3.603 3.567-1.114-1.114z" fill="#4C51CB"/></svg>