<svg width="22" height="22" fill="none" xmlns="http://www.w3.org/2000/svg"><g clip-path="url(#clip0)"><path d="M15.04 10.398A5.807 5.807 0 009.237 16.2a5.808 5.808 0 005.801 5.801c3.199 0 5.8-2.602 5.8-5.8 0-3.2-2.601-5.802-5.8-5.802zm0 9.883a4.087 4.087 0 01-4.083-4.082 4.087 4.087 0 014.082-4.082 4.087 4.087 0 014.082 4.082 4.087 4.087 0 01-4.082 4.082zm1.853-4.72l-.639.638.639.639a.86.86 0 11-1.216 1.215l-.638-.638-.638.638a.857.857 0 01-1.216 0 .86.86 0 010-1.215l.639-.639-.639-.638a.86.86 0 011.216-1.216l.638.639.638-.639a.86.86 0 111.216 1.216zm-7.998 5.58a.86.86 0 01-.86.859H4.598a3.441 3.441 0 01-3.438-3.438V6.225c0-.892.346-1.732.974-2.366L4.972.995A3.383 3.383 0 017.359 0h7.804a3.441 3.441 0 013.438 3.438v4.554a.86.86 0 01-1.719 0V3.438a1.72 1.72 0 00-1.719-1.72H7.36c-.435 0-.86.178-1.166.487L3.355 5.068c-.139.14-.25.3-.329.475h2.388c.71 0 1.29-.578 1.29-1.29a.86.86 0 111.718 0 3.011 3.011 0 01-3.008 3.009H2.88v11.3a1.72 1.72 0 001.719 1.72h3.437a.86.86 0 01.86.859z" fill="#4C51CB"/></g><defs><clipPath id="clip0"><path fill="#fff" d="M0 0h22v22H0z"/></clipPath></defs></svg>