<svg width="22" height="22" fill="none" xmlns="http://www.w3.org/2000/svg"><path d="M8.895 21.14a.86.86 0 01-.86.86H4.598a3.441 3.441 0 01-3.438-3.438V6.225c0-.892.346-1.732.974-2.366L4.972.995A3.383 3.383 0 017.359 0h7.804a3.441 3.441 0 013.438 3.438v4.554a.86.86 0 01-1.719 0V3.438a1.72 1.72 0 00-1.719-1.72H7.36c-.435 0-.86.178-1.166.487L3.355 5.068c-.139.14-.25.3-.329.475h2.388c.71 0 1.29-.578 1.29-1.29a.86.86 0 111.718 0 3.011 3.011 0 01-3.008 3.009H2.88v11.3a1.72 1.72 0 001.719 1.72h3.437a.86.86 0 01.86.859z" fill="#4C51CB"/><path d="M20.643 11.754a2.58 2.58 0 00-3.645 0L12.28 16.46a.86.86 0 00-.215.359l-1.028 3.382a.86.86 0 001.052 1.078l3.468-.96a.86.86 0 00.378-.22l4.708-4.7a2.581 2.581 0 000-3.646zm-5.762 6.97l-1.745.483.51-1.682 3.184-3.176 1.216 1.216-3.165 3.158zm4.548-4.54l-.167.166-1.215-1.215.166-.166a.86.86 0 011.216 1.215z" fill="#4C51CB"/></svg>