<svg width="22" height="22" fill="none" xmlns="http://www.w3.org/2000/svg"><path d="M8.895 21.14a.86.86 0 01-.86.86H4.598a3.441 3.441 0 01-3.438-3.438V6.225c0-.892.346-1.732.974-2.366L4.972.995A3.383 3.383 0 017.359 0h7.804a3.441 3.441 0 013.438 3.438v4.554a.86.86 0 01-1.719 0V3.438a1.72 1.72 0 00-1.719-1.72H7.36c-.435 0-.86.178-1.166.487L3.355 5.068c-.139.14-.25.3-.329.475h2.388c.71 0 1.29-.578 1.29-1.29a.86.86 0 111.718 0 3.011 3.011 0 01-3.008 3.009H2.88v11.3a1.72 1.72 0 001.719 1.72h3.437a.86.86 0 01.86.859z" fill="#4C51CB"/><path d="M22 15.48c0 2.47-2.037 4.48-4.541 4.48a4.571 4.571 0 01-2.323-.632l-2.413 2.38a1.013 1.013 0 01-.714.292c-.258 0-.516-.097-.713-.291a.986.986 0 010-1.408l2.379-2.347a4.41 4.41 0 01-.758-2.474c0-2.47 2.038-4.48 4.542-4.48S22 13.01 22 15.48zm-2.018 0c0-1.373-1.132-2.489-2.523-2.489-1.391 0-2.523 1.116-2.523 2.489 0 1.372 1.132 2.488 2.523 2.488 1.39 0 2.523-1.116 2.523-2.488z" fill="#4C51CB"/></svg>