<svg width="22" height="22" fill="none" xmlns="http://www.w3.org/2000/svg"><path d="M18.86 15.125a.86.86 0 00.86-.86V3.438A3.441 3.441 0 0016.282 0H5.717a3.441 3.441 0 00-3.438 3.438v15.124A3.441 3.441 0 005.717 22h10.565a3.441 3.441 0 003.438-3.438.86.86 0 10-1.719 0 1.72 1.72 0 01-1.719 1.72H5.717a1.72 1.72 0 01-1.719-1.72V3.438A1.72 1.72 0 015.717 1.72h10.565a1.72 1.72 0 011.72 1.718v10.829a.858.858 0 00.858.859z" fill="#4C51CB"/><path d="M15.424 5.156H6.572a.86.86 0 100 1.719h8.852a.86.86 0 000-1.719zm0 3.438H6.572a.86.86 0 100 1.719h8.852a.86.86 0 000-1.72zm-3.476 3.437H6.572a.86.86 0 000 1.719h5.376a.86.86 0 100-1.719z" fill="#4C51CB"/></svg>