<svg width="22" height="22" fill="none" xmlns="http://www.w3.org/2000/svg"><path fill-rule="evenodd" clip-rule="evenodd" d="M18.99 7.992h.432A2.581 2.581 0 0122 10.57v.86a2.581 2.581 0 01-2.578 2.578h-.433a.287.287 0 00-.263.183l-.006.015a.288.288 0 00.056.316l.306.306c.487.487.755 1.135.755 1.823a2.56 2.56 0 01-.755 1.823l-.608.608a2.561 2.561 0 01-1.823.755 2.561 2.561 0 01-1.823-.755l-.306-.306a.288.288 0 00-.316-.056l-.016.007a.287.287 0 00-.182.262v.433A2.581 2.581 0 0111.43 22h-.86a2.581 2.581 0 01-2.578-2.578v-.433a.287.287 0 00-.182-.263l-.017-.006a.288.288 0 00-.315.056l-.306.306a2.56 2.56 0 01-1.823.755 2.561 2.561 0 01-1.823-.755l-.608-.608a2.561 2.561 0 01-.755-1.823c0-.688.268-1.336.755-1.823l.306-.306a.288.288 0 00.056-.316l-.007-.018a.286.286 0 00-.262-.18h-.433A2.581 2.581 0 010 11.43v-.86a2.581 2.581 0 012.578-2.578h.433a.287.287 0 00.263-.183l.005-.012a.29.29 0 00-.055-.32l-.306-.305a2.581 2.581 0 010-3.646l.608-.608a2.561 2.561 0 011.823-.755c.688 0 1.336.268 1.823.755l.306.306c.08.08.204.103.316.056l.017-.007a.287.287 0 00.181-.262v-.433A2.581 2.581 0 0110.57 0h.86a2.581 2.581 0 012.578 2.578v.433c0 .114.072.217.183.263l.016.007a.288.288 0 00.315-.057l.306-.306a2.561 2.561 0 011.823-.755c.689 0 1.337.268 1.823.755l.608.608a2.581 2.581 0 010 3.646l-.306.306a.288.288 0 00-.056.316l.007.018c.045.109.148.18.262.18zm.432 4.297a.86.86 0 00.86-.86v-.859a.86.86 0 00-.86-.86h-.433a2 2 0 01-1.851-1.244l-.007-.016a2 2 0 01.43-2.188l.306-.306a.86.86 0 000-1.215l-.608-.608a.854.854 0 00-.608-.251.852.852 0 00-.607.251l-.306.306a2.001 2.001 0 01-2.191.429l-.012-.005A2 2 0 0112.29 3.01v-.433a.86.86 0 00-.86-.86h-.859a.86.86 0 00-.86.86v.433a2 2 0 01-1.244 1.851l-.013.005a2.001 2.001 0 01-2.19-.428l-.307-.306a.854.854 0 00-.607-.251.854.854 0 00-.608.251l-.608.608a.86.86 0 000 1.215l.306.306c.575.575.743 1.435.429 2.191l-.004.01A2.001 2.001 0 013.01 9.71h-.433a.86.86 0 00-.86.86v.859c0 .473.386.86.86.86h.433a2 2 0 011.851 1.244l.006.014a2.001 2.001 0 01-.429 2.19l-.306.306a.854.854 0 00-.251.607c0 .23.089.446.251.608l.608.608a.854.854 0 00.608.251c.23 0 .445-.089.607-.251l.306-.306a1.992 1.992 0 011.412-.585c.261 0 .526.051.779.156l.012.005A2 2 0 019.71 18.99v.433c0 .474.386.86.86.86h.859a.86.86 0 00.86-.86v-.433a2 2 0 011.245-1.851l.012-.006a2.002 2.002 0 012.19.429l.307.306a.854.854 0 00.607.251c.23 0 .446-.089.608-.251l.608-.608a.854.854 0 00.251-.608.852.852 0 00-.251-.607l-.306-.306a2.001 2.001 0 01-.429-2.19l.006-.014a2 2 0 011.851-1.245h.433zM6.016 11A4.99 4.99 0 0111 6.016a4.99 4.99 0 014.784 6.385.86.86 0 01-1.65-.482A3.27 3.27 0 0011 7.734 3.27 3.27 0 007.735 11a3.27 3.27 0 004.253 3.114.86.86 0 01.518 1.639A4.99 4.99 0 016.015 11z" fill="#4C51CB"/></svg>