<svg width="22" height="22" fill="none" xmlns="http://www.w3.org/2000/svg"><path fill-rule="evenodd" clip-rule="evenodd" d="M3.892 18.348h11.92a.86.86 0 110 1.718H3.498c-.04.343-.06.7-.06 1.075a.86.86 0 11-1.72 0c0-2.778.946-5.055 2.89-6.961 1.3-1.275 2.921-2.267 4.58-3.18-1.63-.893-3.324-1.922-4.666-3.265C2.636 5.846 1.719 3.597 1.719.859a.86.86 0 111.718 0c0 5.047 3.812 7.164 7.563 9.167 1.562-.835 3.074-1.668 4.33-2.678H9.624a.86.86 0 110-1.72h7.407c.44-.579.8-1.217 1.06-1.933H6.188a.86.86 0 110-1.718h12.309a9.31 9.31 0 00.066-1.118.86.86 0 111.718 0c0 2.778-.945 5.055-2.89 6.961-1.667 1.635-3.863 2.806-5.987 3.938-1.727.921-3.413 1.82-4.787 2.937h5.887a.86.86 0 010 1.72H4.936a7.314 7.314 0 00-1.044 1.933zm9.736-5.91a.86.86 0 011.187-.261c2.545 1.63 5.466 4.121 5.466 8.964a.86.86 0 01-1.718 0c0-3.986-2.363-6.036-4.675-7.517a.86.86 0 01-.26-1.187z" fill="#4C51CB"/></svg>