<svg width="22" height="22" fill="none" xmlns="http://www.w3.org/2000/svg"><path d="M20.385 5.261l1.067-1.067a.645.645 0 00-.402-1.098l-1.98-.167-.166-1.98a.644.644 0 00-1.098-.4l-1.067 1.066A10.941 10.941 0 0011 0C8.062 0 5.3 1.144 3.222 3.222A10.928 10.928 0 000 11c0 2.938 1.144 5.7 3.222 7.778A10.928 10.928 0 0011 22c2.938 0 5.7-1.144 7.778-3.222A10.928 10.928 0 0022 11c0-2.04-.557-4.013-1.615-5.739zM17.832 3.58a.645.645 0 00.588.588l1.139.096-1.542 1.541-1.68-.141-.142-1.681 1.541-1.542.096 1.139zM13.192 11A2.194 2.194 0 0111 13.191 2.194 2.194 0 018.809 11a2.194 2.194 0 013.216-1.936l-1.48 1.48a.644.644 0 10.91.912l1.481-1.48c.163.305.255.654.255 1.024zm-.23-2.873A3.461 3.461 0 0011 7.52 3.484 3.484 0 007.52 11c0 1.92 1.56 3.48 3.48 3.48s3.48-1.56 3.48-3.48a3.46 3.46 0 00-.607-1.962l1.84-1.84A6.03 6.03 0 0117.06 11 6.065 6.065 0 0111 17.059 6.066 6.066 0 014.941 11 6.066 6.066 0 0111 4.941a6.03 6.03 0 013.802 1.346l-1.84 1.84zm4.905 9.74A9.647 9.647 0 0111 20.71a9.647 9.647 0 01-6.867-2.844A9.647 9.647 0 011.29 11a9.647 9.647 0 012.844-6.867A9.647 9.647 0 0111 1.29c1.697 0 3.34.436 4.798 1.267l-.726.727a.644.644 0 00-.187.51l.087 1.028A7.303 7.303 0 0011 3.652C6.949 3.652 3.652 6.95 3.652 11c0 4.052 3.297 7.348 7.348 7.348 4.052 0 7.348-3.296 7.348-7.348 0-1.462-.43-2.826-1.169-3.972l1.029.087a.737.737 0 00.054.002h.009l.026-.001.041-.004a1.33 1.33 0 00.066-.011l.026-.007a.674.674 0 00.1-.037l.025-.01a.701.701 0 00.036-.021l.021-.013a.72.72 0 00.038-.027l.017-.012a.628.628 0 00.05-.045l.727-.727A9.662 9.662 0 0120.711 11a9.647 9.647 0 01-2.844 6.867z" fill="#4C51CB"/></svg>