<svg width="22" height="22" fill="none" xmlns="http://www.w3.org/2000/svg"><path d="M21.14 12.29a.86.86 0 00.86-.86V5.586a3.441 3.441 0 00-3.438-3.438H3.438A3.441 3.441 0 000 5.586v10.828a3.441 3.441 0 003.438 3.438h15.124A3.441 3.441 0 0022 16.414v-.344a.86.86 0 10-1.719 0v.344a1.72 1.72 0 01-1.718 1.719H15.34v-3.524h1.933a.86.86 0 100-1.718H15.34V9.109h4.941v2.32c0 .475.385.86.86.86zM6.704 18.132H3.437a1.72 1.72 0 01-1.718-1.719V14.61h4.984v3.524zm0-5.242H1.72V9.109h4.984v3.782zm0-5.5H1.72V5.586a1.72 1.72 0 011.718-1.719h3.266v3.524zm6.918 10.742h-5.2v-3.524h5.2v3.524zm0-5.242h-5.2V9.109h5.2v3.782zm0-5.5h-5.2V3.867h5.2v3.524zm1.719 0V3.867h3.223a1.72 1.72 0 011.718 1.719V7.39H15.34z" fill="#4C51CB"/></svg>