<svg width="22" height="22" fill="none" xmlns="http://www.w3.org/2000/svg"><g clip-path="url(#clip0)"><path d="M21.183 17.703a.86.86 0 00.86-.86v-.897c0-2.04-1.66-3.7-3.7-3.7h-.745c.096-.269.148-.558.148-.86V4.34a.86.86 0 00-.86-.86H14.31v-.902A2.581 2.581 0 0011.73 0a2.58 2.58 0 00-2.578 2.578v.902H6.574a.86.86 0 00-.86.86v7.047c0 .228.03.45.087.66l-1.386-1.266a2.561 2.561 0 00-1.818-.726 2.562 2.562 0 00-1.816.772 2.561 2.561 0 00-.738 1.83 2.56 2.56 0 00.79 1.833l4.377 4.052a12.248 12.248 0 003.935 2.559 12.24 12.24 0 004.617.899h7.421a.86.86 0 100-1.719h-7.421a10.534 10.534 0 01-7.378-2.993l-4.372-4.05a.854.854 0 01-.25-.597.854.854 0 01.246-.61.859.859 0 011.238.01l4.96 4.532c.47.51 1.144.83 1.892.83h4.296a.86.86 0 100-1.72h-4.296a.855.855 0 01-.48-.146l-.015-.015-.174-.16a.86.86 0 01.669-1.398h8.244c1.093 0 1.982.89 1.982 1.982v.898c0 .474.385.86.86.86zM10.871 2.578a.86.86 0 011.719 0v.902h-1.72v-.902zm-.774 9.668H8.293a.86.86 0 01-.86-.86V5.2h1.72v.903a.86.86 0 101.718 0V5.2h1.719v.903a.86.86 0 101.719 0V5.2h1.718v6.188a.86.86 0 01-.86.86h-5.07z" fill="#4C51CB"/></g><defs><clipPath id="clip0"><path fill="#fff" d="M0 0h22v22H0z"/></clipPath></defs></svg>