<svg width="22" height="22" fill="none" xmlns="http://www.w3.org/2000/svg"><g clip-path="url(#clip0)"><path d="M21.75 10.158l-8.954-9.013a2.576 2.576 0 00-3.508-.007L.252 10.156a.86.86 0 001.215 1.216l.682-.68v7.42a3.441 3.441 0 003.437 3.437H8.68a.86.86 0 00.86-.86v-7.003h3.007v7.004c0 .474.385.86.86.86h3.007a3.441 3.441 0 003.438-3.438.86.86 0 10-1.72 0 1.72 1.72 0 01-1.718 1.718h-2.148v-7.003a.86.86 0 00-.86-.86H8.68a.86.86 0 00-.86.86v7.003H5.586a1.72 1.72 0 01-1.719-1.718V8.977l6.615-6.603a.859.859 0 011.115.003l6.536 6.579v4.859a.86.86 0 101.719 0v-3.13l.68.685a.856.856 0 001.214.004.86.86 0 00.004-1.216z" fill="#4C51CB"/></g><defs><clipPath id="clip0"><path fill="#fff" d="M0 0h22v22H0z"/></clipPath></defs></svg>