<svg width="22" height="22" fill="none" xmlns="http://www.w3.org/2000/svg"><path fill-rule="evenodd" clip-rule="evenodd" d="M18.563 1H3.438A3.441 3.441 0 000 4.438v12.03a3.441 3.441 0 003.438 3.438h11.73a.86.86 0 100-1.718h-3.165l-1.976-2.564 6.261-7.964 4.215 4.659A.86.86 0 0022 11.742V4.437A3.441 3.441 0 0018.562 1zm1.718 8.512l-3.401-3.76a.858.858 0 00-1.313.045L8.944 14.22l-2.248-2.917a.86.86 0 00-1.362 0l-1.89 2.46a.86.86 0 001.362 1.048l1.21-1.574 3.817 4.95H3.437A1.72 1.72 0 011.72 16.47V4.437A1.72 1.72 0 013.437 2.72h15.126a1.72 1.72 0 011.718 1.719v5.074zM6.016 4.094a2.58 2.58 0 00-2.579 2.578 2.58 2.58 0 002.58 2.578 2.58 2.58 0 002.578-2.578 2.58 2.58 0 00-2.578-2.578zm0 3.437a.86.86 0 010-1.718.86.86 0 010 1.718zm14.106 6.478l.008.008 1.628 1.682a.86.86 0 11-1.235 1.196l-1.063-1.098v4.797a.86.86 0 11-1.719 0V15.77l-1.11 1.096a.86.86 0 11-1.207-1.224l1.659-1.636a2.13 2.13 0 011.518-.631 2.13 2.13 0 011.521.634z" fill="#4C51CC"/></svg>