<svg width="22" height="22" fill="none" xmlns="http://www.w3.org/2000/svg"><g clip-path="url(#clip0)"><path fill-rule="evenodd" clip-rule="evenodd" d="M4.812 4.253a.86.86 0 01-.906-.81c-.003-.074-.087-1.805.966-3.12a.86.86 0 111.342 1.073c-.636.796-.592 1.94-.591 1.951a.86.86 0 01-.81.906zm3.066.006h-.015a.86.86 0 01-.859-.845c-.002-.146.004-1.458.967-2.437.64-.65 1.519-.98 2.612-.977 1.015 0 2.032.486 3.108 1 1.27.607 2.584 1.235 4.093 1.235h.032c.533 0 1.847-.167 2.541-1.705a.86.86 0 111.567.707c-.768 1.7-2.303 2.716-4.108 2.716h-.032c-1.898 0-3.526-.777-4.833-1.402-.935-.446-1.742-.832-2.37-.832h-.007c-.613 0-1.076.156-1.378.463-.465.473-.474 1.196-.474 1.203a.86.86 0 01-.844.874zm12.609 1.027a.86.86 0 011.307 1.116c-1.274 1.491-2.76 1.089-3.745.822-.968-.262-1.17-.25-1.431.083a.858.858 0 01-1.207.145.86.86 0 01-.144-1.207c.45-.574 1.03-.883 1.72-.919.53-.027 1.028.108 1.511.24.96.26 1.446.356 1.989-.28zm1.086 14.243a.86.86 0 10-1.652.473l.08.28h-4.307l-1.56-5.672h1.249a.86.86 0 100-1.72H13.66l-.59-2.148h4.89v2.287c0 .08.01.16.033.237l.845 2.955a.86.86 0 001.653-.473l-.813-2.84V9.884a.86.86 0 00-.859-.86h-5.758V6.446a.86.86 0 00-.859-.859H3.695a.86.86 0 00-.86.86v4.309L.032 20.912A.86.86 0 00.859 22H21.14a.86.86 0 00.827-1.096l-.394-1.375zm-19.585.752l2.16-7.82h4.618a.86.86 0 100-1.719H4.555V7.305h6.789v3.523c0 .077.01.154.03.228l2.537 9.225H1.988z" fill="#4C51CB"/></g><defs><clipPath id="clip0"><path fill="#fff" d="M0 0h22v22H0z"/></clipPath></defs></svg>