<svg width="22" height="22" fill="none" xmlns="http://www.w3.org/2000/svg"><g clip-path="url(#clip0)"><path d="M12.976 0C8.001 0 3.953 4.048 3.953 9.023c0 2.19.784 4.199 2.085 5.763L.254 20.531a.86.86 0 001.21 1.22l5.793-5.753a8.982 8.982 0 005.72 2.049 9.028 9.028 0 004.417-1.154.86.86 0 10-.843-1.498 7.306 7.306 0 01-10.88-6.372c0-4.027 3.278-7.304 7.305-7.304a7.308 7.308 0 016.351 10.918.86.86 0 101.492.851A9.025 9.025 0 0022 9.023C22 4.048 17.953 0 12.977 0z" fill="#4C51CB"/></g><defs><clipPath id="clip0"><path fill="#fff" d="M0 0h22v22H0z"/></clipPath></defs></svg>