<svg width="22" height="22" viewBox="0 0 22 22" fill="none" xmlns="http://www.w3.org/2000/svg">
<g clip-path="url(#clip0)">
<path d="M12.9764 0C8.00092 0 3.95301 4.04791 3.95301 9.02344C3.95301 11.2124 4.7365 13.2219 6.03781 14.7861L0.253656 20.5309C-0.0830897 20.8654 -0.0849373 21.4095 0.249488 21.7462C0.417496 21.9154 0.638356 22 0.859258 22C1.07818 22 1.2972 21.9168 1.46482 21.7504L7.25687 15.9977C8.81484 17.2776 10.8075 18.0469 12.9764 18.0469C14.5244 18.0469 16.052 17.648 17.3938 16.8933C17.8075 16.6607 17.9542 16.1367 17.7216 15.723C17.4889 15.3094 16.965 15.1626 16.5513 15.3953C15.4661 16.0056 14.23 16.3281 12.9764 16.3281C8.94864 16.3281 5.67176 13.0512 5.67176 9.02344C5.67176 4.99563 8.94864 1.71875 12.9764 1.71875C17.0042 1.71875 20.2811 4.99563 20.2811 9.02344C20.2811 10.2923 19.951 11.5418 19.3265 12.6367C19.0913 13.049 19.2349 13.5738 19.6472 13.809C20.0595 14.0441 20.5843 13.9006 20.8194 13.4883C21.5917 12.1344 21.9999 10.5905 21.9999 9.02344C21.9999 4.04791 17.952 0 12.9764 0Z" fill="#4C51CB"/>
</g>
<defs>
<clipPath id="clip0">
<rect width="22" height="22" fill="white"/>
</clipPath>
</defs>
</svg>
