<svg width="22" height="22" fill="none" xmlns="http://www.w3.org/2000/svg"><path d="M14.05 3.867h-6.1a.86.86 0 100 1.719h6.1a.86.86 0 100-1.719zm-1.718 3.438H7.949a.86.86 0 100 1.718h4.383a.86.86 0 100-1.718z" fill="#4C51CB"/><path d="M20.281 14.266a.86.86 0 101.719 0V8.28c0-1.177-.592-2.26-1.584-2.895l-2.068-1.324V.859a.86.86 0 00-.86-.859H4.512a.86.86 0 00-.86.86v3.197L1.585 5.38A3.423 3.423 0 000 8.275v10.287A3.441 3.441 0 003.438 22h15.124A3.441 3.441 0 0022 18.562a.86.86 0 10-1.719 0 1.72 1.72 0 01-1.718 1.72H3.438a1.72 1.72 0 01-1.72-1.72V9.396l7.467 4.642c.56.348 1.187.522 1.815.522.628 0 1.255-.174 1.815-.522l7.466-4.643v4.872zM3.652 8.573L1.91 7.489c.136-.265.341-.495.602-.662l1.141-.73v2.476zM16.63 9.642l-4.722 2.935a1.708 1.708 0 01-1.815 0l-4.72-2.935V1.719H16.63v7.923zm1.719-1.07v-2.47l1.141.73c.26.167.464.395.6.658l-1.741 1.083z" fill="#4C51CB"/></svg>