<svg width="22" height="22" viewBox="0 0 22 22" fill="none" xmlns="http://www.w3.org/2000/svg">
<path d="M2.53516 16.9297C1.13725 16.9297 0 18.0669 0 19.4648C0 20.8627 1.13725 22 2.53516 22C3.00979 22 3.39453 21.6153 3.39453 21.1406C3.39453 20.666 3.00979 20.2812 2.53516 20.2812C2.08497 20.2812 1.71875 19.915 1.71875 19.4648C1.71875 19.0147 2.08497 18.6484 2.53516 18.6484C2.98534 18.6484 3.35156 19.0147 3.35156 19.4648C3.35156 19.9395 3.7363 20.3242 4.21094 20.3242C4.68557 20.3242 5.07031 19.9395 5.07031 19.4648C5.07031 18.0669 3.93306 16.9297 2.53516 16.9297Z" fill="#4C51CB"/>
<path d="M7.82031 3.39453H21.1406C21.6153 3.39453 22 3.00979 22 2.53516C22 2.06052 21.6153 1.67578 21.1406 1.67578H7.82031C7.34568 1.67578 6.96094 2.06052 6.96094 2.53516C6.96094 3.00979 7.34568 3.39453 7.82031 3.39453Z" fill="#4C51CB"/>
<path d="M2.53516 8.46484C1.13725 8.46484 0 9.6021 0 11C0 12.3979 1.13725 13.5352 2.53516 13.5352C3.00979 13.5352 3.39453 13.1504 3.39453 12.6758C3.39453 12.2011 3.00979 11.8164 2.53516 11.8164C2.08497 11.8164 1.71875 11.4502 1.71875 11C1.71875 10.5498 2.08497 10.1836 2.53516 10.1836C2.98534 10.1836 3.35156 10.5498 3.35156 11C3.35156 11.4746 3.7363 11.8594 4.21094 11.8594C4.68557 11.8594 5.07031 11.4746 5.07031 11C5.07031 9.6021 3.93306 8.46484 2.53516 8.46484Z" fill="#4C51CB"/>
<path d="M21.1406 10.1406H7.82031C7.34568 10.1406 6.96094 10.5254 6.96094 11C6.96094 11.4746 7.34568 11.8594 7.82031 11.8594H21.1406C21.6153 11.8594 22 11.4746 22 11C22 10.5254 21.6153 10.1406 21.1406 10.1406Z" fill="#4C51CB"/>
<path d="M21.1406 18.6055H7.82031C7.34568 18.6055 6.96094 18.9902 6.96094 19.4648C6.96094 19.9395 7.34568 20.3242 7.82031 20.3242H21.1406C21.6153 20.3242 22 19.9395 22 19.4648C22 18.9902 21.6153 18.6055 21.1406 18.6055Z" fill="#4C51CB"/>
<path d="M2.53516 0C1.13725 0 0 1.13725 0 2.53516C0 3.93306 1.13725 5.07031 2.53516 5.07031C3.00979 5.07031 3.39453 4.68557 3.39453 4.21094C3.39453 3.7363 3.00979 3.35156 2.53516 3.35156C2.08497 3.35156 1.71875 2.98534 1.71875 2.53516C1.71875 2.08497 2.08497 1.71875 2.53516 1.71875C2.98534 1.71875 3.35156 2.08497 3.35156 2.53516C3.35156 3.00979 3.7363 3.39453 4.21094 3.39453C4.68557 3.39453 5.07031 3.00979 5.07031 2.53516C5.07031 1.13725 3.93306 0 2.53516 0Z" fill="#4C51CB"/>
</svg>
