<svg width="22" height="22" fill="none" xmlns="http://www.w3.org/2000/svg"><path d="M13.04 20.281H4.58a1.72 1.72 0 01-1.72-1.718V5.585a1.72 1.72 0 011.72-1.719h2.7v.43a2.581 2.581 0 002.58 2.579 2.581 2.581 0 002.578-2.578v-.43h2.707a1.72 1.72 0 011.718 1.719v6.273a.86.86 0 001.72 0V5.586a3.441 3.441 0 00-3.438-3.438h-2.707V.86a.86.86 0 00-.86-.859H8.141a.86.86 0 00-.86.86v1.288H4.58a3.441 3.441 0 00-3.437 3.438v12.976A3.441 3.441 0 004.579 22h8.46a.86.86 0 100-1.719zM9 1.72h1.719v2.578a.86.86 0 01-1.719 0V1.719zM20.105 17.6l-4.707-4.718a.859.859 0 00-.36-.215l-3.382-1.027a.86.86 0 00-1.078 1.051l.961 3.469a.86.86 0 00.22.378l4.7 4.708a2.57 2.57 0 001.822.754c.66 0 1.32-.252 1.823-.754a2.58 2.58 0 00.001-3.645zm-7.453-3.862l1.681.511 3.176 3.184-1.215 1.215-3.159-3.165-.483-1.745zm6.237 6.292a.86.86 0 01-1.215.001l-.166-.166 1.216-1.216.165.166a.86.86 0 010 1.215z" fill="#4C51CB"/></svg>