<svg width="22" height="22" fill="none" xmlns="http://www.w3.org/2000/svg"><path d="M2.535 16.93A2.538 2.538 0 000 19.465 2.538 2.538 0 002.535 22a.86.86 0 100-1.719.817.817 0 010-1.633c.45 0 .817.367.817.817a.86.86 0 101.718 0 2.538 2.538 0 00-2.535-2.535zM7.82 3.395h13.32a.86.86 0 100-1.72H7.82a.86.86 0 100 1.72zm-5.285 5.07A2.538 2.538 0 000 11a2.538 2.538 0 002.535 2.535.86.86 0 000-1.719.817.817 0 010-1.632c.45 0 .817.366.817.816a.86.86 0 001.718 0 2.538 2.538 0 00-2.535-2.535zM21.14 10.14H7.82a.86.86 0 000 1.72h13.32a.86.86 0 100-1.72zm0 8.465H7.82a.86.86 0 100 1.72h13.32a.86.86 0 100-1.72zM2.535 0A2.538 2.538 0 000 2.535 2.538 2.538 0 002.535 5.07a.86.86 0 100-1.718.817.817 0 010-1.633c.45 0 .817.366.817.816a.86.86 0 101.718 0A2.538 2.538 0 002.535 0z" fill="#4C51CB"/></svg>