<svg width="20" height="20" fill="none" xmlns="http://www.w3.org/2000/svg"><g clip-path="url(#clip0)"><path d="M19.142 11.23a.78.78 0 00-.78.78v4.874a1.56 1.56 0 01-1.559 1.559H3.08c-.86 0-1.56-.7-1.56-1.56v-.078c0-.86.7-1.559 1.56-1.559h1.594a.78.78 0 00.78-.78V6.708H6.9a.78.78 0 000-1.56H5.454V3.2a.78.78 0 00-.78-.78H3.08c-1.72 0-3.12 1.4-3.12 3.12v11.345c0 1.72 1.4 3.118 3.12 3.118h13.723a3.122 3.122 0 003.119-3.118V12.01a.78.78 0 00-.78-.78zM1.52 5.54c0-.86.7-1.56 1.56-1.56h.814v9.708H3.08c-.568 0-1.1.152-1.56.418V5.54zm13.022 2.29c-1.29 0-2.34-1.05-2.34-2.339 0-1.29 1.05-2.34 2.34-2.34 1.29 0 2.339 1.05 2.339 2.34a.78.78 0 11-1.56 0 .78.78 0 10-.78.78.78.78 0 110 1.56zm-.77 5.142a.78.78 0 00.66.363h.298a.78.78 0 00.66-.363c.53-.842 1.205-1.58 1.857-2.294 1.333-1.46 2.712-2.97 2.714-5.266a5.388 5.388 0 00-5.38-5.374A5.388 5.388 0 009.2 5.415c.002 2.294 1.38 3.804 2.714 5.264.652.714 1.326 1.452 1.858 2.294zm.809-11.375a3.825 3.825 0 013.82 3.815c-.001 1.691-1.07 2.86-2.306 4.215-.51.559-1.033 1.131-1.514 1.774-.481-.643-1.004-1.215-1.515-1.774-1.236-1.354-2.304-2.524-2.306-4.213a3.826 3.826 0 013.82-3.817z" fill="#4C51CB"/></g><defs><clipPath id="clip0"><path fill="#fff" d="M0 0h20v20H0z"/></clipPath></defs></svg>