<svg width="22" height="20" fill="none" xmlns="http://www.w3.org/2000/svg"><path fill-rule="evenodd" clip-rule="evenodd" d="M3.438 0h3.265c1.896 0 3.438 1.402 3.438 3.125v2.969c0 1.723-1.542 3.125-3.438 3.125H3.437C1.542 9.219 0 7.817 0 6.094V3.125C0 1.402 1.542 0 3.438 0zm3.265 7.656c.948 0 1.719-.7 1.719-1.562V3.125c0-.862-.771-1.563-1.719-1.563H3.437c-.947 0-1.718.701-1.718 1.563v2.969c0 .861.77 1.562 1.718 1.562h3.266zM15.297 0h3.265C20.459 0 22 1.402 22 3.125v2.969c0 1.723-1.542 3.125-3.438 3.125h-3.265c-1.896 0-3.438-1.402-3.438-3.125V3.125C11.86 1.402 13.401 0 15.297 0zm3.265 7.656c.948 0 1.72-.7 1.72-1.562V3.125c0-.862-.772-1.563-1.72-1.563h-3.265c-.948 0-1.719.701-1.719 1.563v2.969c0 .861.771 1.562 1.719 1.562h3.265zM6.704 10.781H3.437C1.542 10.781 0 12.183 0 13.906v2.969C0 18.598 1.542 20 3.438 20h3.265c1.896 0 3.438-1.402 3.438-3.125v-2.969c0-1.723-1.542-3.125-3.438-3.125zm1.719 6.094c0 .862-.771 1.563-1.719 1.563H3.437c-.947 0-1.718-.701-1.718-1.563v-2.969c0-.861.77-1.562 1.718-1.562h3.266c.948 0 1.719.7 1.719 1.562v2.969zm11.86 0c0-.431.384-.781.859-.781.474 0 .859.35.859.781C22 18.598 20.458 20 18.562 20h-3.265c-1.896 0-3.438-1.402-3.438-3.125v-2.969c0-1.723 1.542-3.125 3.438-3.125h3.265c1.367 0 2.604.736 3.151 1.874.19.395-.008.856-.443 1.029-.435.173-.942-.008-1.132-.403-.274-.57-.892-.937-1.576-.937h-3.265c-.948 0-1.719.7-1.719 1.562v2.969c0 .862.771 1.563 1.719 1.563h3.265c.948 0 1.72-.701 1.72-1.563z" fill="#4C51CB"/></svg>