<svg width="22" height="22" fill="none" xmlns="http://www.w3.org/2000/svg"><g clip-path="url(#clip0)"><path fill-rule="evenodd" clip-rule="evenodd" d="M17.463 6.47c1.297 1 2.335 2.09 3.085 3.242.963 1.48 1.452 3.06 1.452 4.696a.858.858 0 11-1.715 0c0-2.741-1.752-4.876-3.6-6.366 1.194 1.82 1.798 3.685 1.798 5.552a.858.858 0 11-1.715 0c0-2.656-1.54-5.343-4.577-7.985l-.04-.035h-2.76c-.492.21-2.19.98-3.859 2.28C3 9.823 1.715 12.03 1.715 14.407c0 3.539 2.044 5.788 5.335 5.873l7.714.003c1.935-.044 3.525-.813 4.479-2.168a.858.858 0 111.403.987c-1.277 1.814-3.356 2.843-5.854 2.896h-.019l-7.734-.002h-.021c-2.052-.05-3.799-.775-5.053-2.093C.679 18.552 0 16.652 0 14.408c0-1.635.486-3.215 1.444-4.694.747-1.152 1.78-2.243 3.07-3.242a20.15 20.15 0 013.648-2.226L7.005 1.252a.858.858 0 01-.058-.31V.857A.858.858 0 018.11.055c1.93.73 3.808.73 5.74 0a.858.858 0 011.16.802v.085a.864.864 0 01-.057.31l-1.156 2.992c.832.39 2.245 1.13 3.667 2.227zM9.851 3.86h2.255l.664-1.719a9.351 9.351 0 01-3.583 0l.664 1.719zm1.985 14.196a.858.858 0 01-1.716 0v-.474c-1.161-.04-2.06-.947-2.06-2.099a.858.858 0 111.716 0c0 .253.214.386.424.386h1.278c.4 0 .702-.281.702-.654v-.21a.683.683 0 00-.702-.68h-.786c-1.33 0-2.413-1.096-2.413-2.444v-.313c0-.648.253-1.253.713-1.702.315-.309.704-.52 1.128-.62v-.582a.858.858 0 111.716 0v.552c1 .184 1.759 1.041 1.759 2.07a.858.858 0 11-1.716 0c0-.245-.226-.392-.444-.392h-.743c-.398 0-.697.29-.697.674v.313c0 .395.319.729.697.729h.786c.644 0 1.248.245 1.703.69.46.45.714 1.056.714 1.704v.21c0 1.21-.88 2.18-2.06 2.345v.497z" fill="#4C51CB"/></g><defs><clipPath id="clip0"><path fill="#fff" d="M0 0h22v22H0z"/></clipPath></defs></svg>