<svg width="22" height="22" fill="none" xmlns="http://www.w3.org/2000/svg"><g clip-path="url(#clip0)"><path d="M20.711 1.29A4.373 4.373 0 0017.599 0a4.373 4.373 0 00-3.113 1.29L2.184 13.59a.859.859 0 00-.22.377L.032 20.91a.86.86 0 001.062 1.057l6.942-1.972a.86.86 0 00.374-1.433l-4.376-4.39L14.23 3.975l3.792 3.792-7.806 7.785a.86.86 0 001.213 1.218l9.28-9.256A4.373 4.373 0 0022 4.402a4.373 4.373 0 00-1.289-3.113zM6.161 18.74l-4.063 1.154 1.138-4.088 2.926 2.934zM19.498 6.298l-.257.256-3.794-3.794.255-.255a2.665 2.665 0 011.898-.786c.716 0 1.39.279 1.897.786.506.506.786 1.18.786 1.897 0 .716-.28 1.39-.785 1.896z" fill="#4C51CB"/></g><defs><clipPath id="clip0"><path fill="#fff" d="M0 0h22v22H0z"/></clipPath></defs></svg>