<svg width="22" height="22" fill="none" xmlns="http://www.w3.org/2000/svg"><path d="M16.887 14.27V3.439a1.72 1.72 0 00-1.719-1.72H6.832a1.72 1.72 0 00-1.719 1.72v15.124a1.72 1.72 0 001.719 1.72h8.336a1.72 1.72 0 001.719-1.72.86.86 0 111.718 0A3.441 3.441 0 0115.168 22H6.832a3.441 3.441 0 01-3.437-3.438V3.438A3.441 3.441 0 016.832 0h8.336a3.441 3.441 0 013.438 3.438V14.27a.86.86 0 11-1.72 0zm-6.746 3.825a.86.86 0 101.718 0 .86.86 0 00-1.718 0zm3.066-4.469c.771.004 1.453-.228 1.943-.718l.01-.01a1.042 1.042 0 00-.053-1.446c-.809-.78-1.618-1.25-2.422-.465l-.695.69s-.899-.4-1.915-1.417l-.049-.049C9.01 9.195 8.61 8.296 8.61 8.296l.689-.694c.785-.804.316-1.614-.464-2.423a1.042 1.042 0 00-1.446-.052l-.011.01c-.49.49-.722 1.171-.718 1.943.007 1.374.76 3.034 2.134 4.408 1.374 1.373 3.034 2.127 4.408 2.133l.005.005z" fill="#4C51CB"/></svg>