<svg width="22" height="22" fill="none" xmlns="http://www.w3.org/2000/svg"><g clip-path="url(#clip0)"><path d="M21.998 17.726A3.255 3.255 0 0021 15.49c-1.2-1.157-2.206-1.825-3.165-2.102-1.32-.382-2.545-.035-3.637 1.032a.113.113 0 00-.005.005l-1.162 1.153c-.726-.41-2.138-1.308-3.663-2.834l-.113-.113C7.729 11.105 6.83 9.693 6.42 8.968l1.154-1.162a.574.574 0 00.005-.005C8.646 6.71 8.993 5.485 8.612 4.164 8.334 3.205 7.666 2.2 6.509 1A3.254 3.254 0 004.273.002a3.253 3.253 0 00-2.302.834l-.025.022a.903.903 0 00-.033.032C.65 2.152-.01 3.918 0 5.997c.018 3.533 1.96 7.574 5.194 10.808.61.61 1.303 1.214 2.06 1.794A.86.86 0 008.3 17.235a19.243 19.243 0 01-1.89-1.645c-2.923-2.922-4.677-6.51-4.692-9.6-.008-1.603.475-2.94 1.394-3.87l.007-.006a1.546 1.546 0 012.153.078C7.497 4.5 7.336 5.589 6.352 6.598L4.76 8.203a.86.86 0 00-.176.955c.04.09 1.02 2.252 3.456 4.689l.113.113c2.436 2.436 4.598 3.414 4.689 3.455a.86.86 0 00.955-.175l1.605-1.593c1.008-.983 2.098-1.145 4.405 1.08.604.583.638 1.529.078 2.153l-.007.007c-.921.912-2.244 1.394-3.828 1.394h-.04c-1.266-.007-2.732-.354-4.24-1.004a.86.86 0 10-.68 1.578c1.742.752 3.395 1.137 4.912 1.144h.048c2.06 0 3.808-.66 5.06-1.912a.836.836 0 00.031-.034l.022-.024a3.254 3.254 0 00.835-2.303z" fill="#4C51CB"/></g><defs><clipPath id="clip0"><path fill="#fff" d="M0 0h22v22H0z"/></clipPath></defs></svg>