<svg width="22" height="22" fill="none" xmlns="http://www.w3.org/2000/svg"><path fill-rule="evenodd" clip-rule="evenodd" d="M2.766 16.982a.86.86 0 01-1.18-.29A10.982 10.982 0 010 11c0-2.938 1.144-5.7 3.222-7.778A10.928 10.928 0 0111 0c2.938 0 5.7 1.144 7.778 3.222A10.928 10.928 0 0122 11c0 2.938-1.144 5.7-3.222 7.778A10.928 10.928 0 0111 22c-2.171 0-4.283-.645-6.107-1.864a.86.86 0 01.956-1.428A9.243 9.243 0 0011 20.28c5.118 0 9.281-4.163 9.281-9.281S16.118 1.719 11 1.719 1.719 5.882 1.719 11c0 1.698.462 3.358 1.336 4.801a.86.86 0 01-.29 1.18zm7.422-5.123v3.868a.86.86 0 101.719 0v-3.868h3.867a.86.86 0 100-1.72h-3.867V6.23a.86.86 0 10-1.719 0v3.91H6.321a.86.86 0 100 1.719h3.867z" fill="#4C51CB"/></svg>