<svg width="22" height="22" fill="none" xmlns="http://www.w3.org/2000/svg"><g clip-path="url(#clip0)"><path fill-rule="evenodd" clip-rule="evenodd" d="M19.852 6.373v.615A4.89 4.89 0 0122 11.04c0 1.57-.645 2.898-1.865 3.84-1.02.788-2.038.999-2.049 1.001a.86.86 0 01-.343-1.684c.074-.018 2.538-.634 2.538-3.157 0-1.18-.648-2.257-1.692-2.81a.859.859 0 01-.456-.79V6.373a4.144 4.144 0 00-4.139-4.138c-2.022 0-3.78 1.504-4.09 3.499a.86.86 0 01-1.493.437 2.107 2.107 0 00-1.579-.714 2.108 2.108 0 00-2.105 2.106V9.11a.86.86 0 01-.86.859h-.006c-1.181 0-2.142.945-2.142 2.106 0 1.18.906 2.105 2.062 2.105h.473a.86.86 0 110 1.719h-.473c-1.025 0-1.981-.4-2.692-1.127A3.832 3.832 0 010 12.075c0-1.819 1.288-3.345 3.008-3.73v-.782A3.822 3.822 0 018.57 4.158a5.856 5.856 0 0111.28 2.216zm-6.275 7.119v.703a2.151 2.151 0 011.892 2.133v4.297a.86.86 0 01-.86.859H7.391a.86.86 0 01-.86-.86v-4.296c0-1.097.827-2.004 1.89-2.133v-.703c0-1.398 1.157-2.535 2.578-2.535 1.422 0 2.578 1.137 2.578 2.535zM11 12.676c-.474 0-.86.366-.86.816v.687h1.72v-.687c0-.45-.386-.816-.86-.816zm-2.749 7.09h5.5v-3.438a.43.43 0 00-.43-.43H8.68a.43.43 0 00-.43.43v3.437z" fill="#4C51CB"/></g><defs><clipPath id="clip0"><path fill="#fff" d="M0 0h22v22H0z"/></clipPath></defs></svg>