<svg width="22" height="22" fill="none" xmlns="http://www.w3.org/2000/svg"><g clip-path="url(#clip0)"><path d="M20.518 10.778c-.766-.383-1.766-.594-2.815-.594s-2.049.21-2.815.594c-.956.478-1.482 1.182-1.482 1.984 0 .025 0 .05.002.076a.931.931 0 00-.002.053v1.062c-.735-.326-1.638-.504-2.578-.504-1.049 0-2.049.211-2.815.595-.956.477-1.482 1.182-1.482 1.983v3.395c0 .296.072.578.21.841-3.107-.22-5.022-2.44-5.022-5.868 0-2.383 1.286-4.593 3.824-6.568l.081-.063c-1.308 1.904-1.972 3.858-1.972 5.814a.86.86 0 101.72 0c0-2.661 1.542-5.353 4.585-8a6.03 6.03 0 00.04-.035h2.594c.573.244 2.771 1.245 4.668 2.954a.86.86 0 001.15-1.277c-1.698-1.53-3.57-2.528-4.584-3.007l1.155-2.955a.859.859 0 00.06-.313V.86a.86.86 0 00-1.164-.803c-1.936.732-3.817.732-5.751 0A.86.86 0 006.96.859v.086c0 .107.02.214.059.313l1.155 2.955a20.184 20.184 0 00-3.652 2.23c-1.293 1-2.328 2.094-3.076 3.248C.487 11.173 0 12.756 0 14.395c0 2.247.68 4.151 1.969 5.505 1.256 1.322 3.007 2.047 5.063 2.097h.02l3.77.003h.114l.036-.002c.997-.018 1.94-.226 2.672-.592a3.65 3.65 0 00.623-.39c.18.143.388.273.622.39.766.383 1.766.594 2.815.594 1.05 0 2.049-.21 2.815-.594.956-.478 1.482-1.182 1.482-1.984v-6.66c0-.802-.526-1.506-1.482-1.984zm-7.73-8.631l-.656 1.677H9.868l-.655-1.677c1.19.23 2.384.23 3.574 0zm.086 17.722c-.523.261-1.267.412-2.04.412h-.012c-.773 0-1.517-.15-2.04-.412-.44-.22-.532-.417-.532-.447V18.12c.73.314 1.634.486 2.578.486h.096a.86.86 0 00-.02-1.72h-.076c-.776 0-1.522-.15-2.046-.412-.44-.22-.532-.417-.532-.447 0-.03.092-.227.532-.446.524-.263 1.27-.413 2.046-.413.767 0 1.51.156 2.036.429.414.214.542.422.542.473v3.352c0 .03-.092.227-.532.447zm7.407-.447c0 .03-.092.227-.531.447-.525.262-1.27.412-2.047.412-.776 0-1.522-.15-2.046-.412-.44-.22-.532-.417-.532-.447V18.12c.73.314 1.634.486 2.578.486l.098-.001a.86.86 0 00-.012-1.719h-.086c-.776 0-1.522-.15-2.046-.412-.44-.22-.532-.417-.532-.447v-1.172c.73.314 1.634.485 2.578.485h.098a.86.86 0 00-.023-1.72l-.075.001c-.776 0-1.522-.15-2.046-.413-.44-.22-.532-.417-.532-.446 0-.03.092-.227.532-.447.524-.262 1.27-.413 2.046-.413.776 0 1.522.15 2.047.413.439.22.531.417.531.447v6.66z" fill="#4C51CB"/></g><defs><clipPath id="clip0"><path fill="#fff" d="M0 0h22v22H0z"/></clipPath></defs></svg>