<svg width="22" height="22" fill="none" xmlns="http://www.w3.org/2000/svg"><g clip-path="url(#clip0)"><path d="M7.53 20.281H2.65a.874.874 0 01-.687-.326.898.898 0 01-.182-.753c.893-4.287 4.676-7.418 9.043-7.519a5.85 5.85 0 006.062-5.84A5.85 5.85 0 0011.044 0 5.85 5.85 0 005.2 5.844c0 1.912.924 3.613 2.348 4.68a11.166 11.166 0 00-3.601 1.98A11.212 11.212 0 00.099 18.85 2.61 2.61 0 002.65 22h4.88a.86.86 0 000-1.719zM6.918 5.844a4.13 4.13 0 014.125-4.125 4.13 4.13 0 014.125 4.125 4.13 4.13 0 01-4.027 4.124.846.846 0 00-.098-.006c-.067 0-.134 0-.201.002a4.13 4.13 0 01-3.924-4.12zm12.988 7.39H12.88a2.14 2.14 0 00-2.138 2.138v4.49A2.14 2.14 0 0012.88 22h7.025a2.14 2.14 0 002.138-2.137v-4.491a2.14 2.14 0 00-2.137-2.138zm-.072 1.72l-3.285 2.041a.417.417 0 01-.442 0l-3.279-2.038a.42.42 0 01.052-.004h6.954zm.072 5.327H12.88a.42.42 0 01-.42-.418v-3.11l2.74 1.702c.348.216.738.325 1.128.325.39 0 .78-.109 1.129-.325l2.867-1.783v3.19a.42.42 0 01-.419.42z" fill="#4C51CB"/></g><defs><clipPath id="clip0"><path fill="#fff" d="M0 0h22v22H0z"/></clipPath></defs></svg>