<svg width="22" height="22" fill="none" xmlns="http://www.w3.org/2000/svg"><g clip-path="url(#clip0)"><path d="M10.78 11.683a5.89 5.89 0 00.423 0 9.464 9.464 0 014.39 1.185.86.86 0 10.835-1.502 11.097 11.097 0 00-1.93-.844 5.839 5.839 0 002.345-4.678A5.85 5.85 0 0011 0a5.85 5.85 0 00-5.843 5.844c0 1.912.923 3.613 2.348 4.68a11.166 11.166 0 00-3.602 1.98A11.212 11.212 0 00.055 18.85 2.61 2.61 0 002.607 22h6.717a.86.86 0 000-1.719H2.607a.873.873 0 01-.687-.326.898.898 0 01-.182-.753c.892-4.287 4.675-7.418 9.043-7.519zm-3.905-5.84a4.13 4.13 0 014.124-4.124 4.13 4.13 0 014.125 4.125 4.13 4.13 0 01-3.92 4.12 10.424 10.424 0 00-.405 0 4.13 4.13 0 01-3.924-4.12zM22 15.978c0 .574-.224 1.113-.632 1.52l-1.598 1.589a.856.856 0 01-1.216-.003.86.86 0 01.004-1.216l1.07-1.065h-4.87c-.959 0-1.739.78-1.739 1.74 0 .959.771 1.74 1.719 1.74a.86.86 0 010 1.718c-.925 0-1.79-.36-2.439-1.016a3.45 3.45 0 01-.999-2.443 3.462 3.462 0 013.459-3.458h4.791l-.99-.98a.86.86 0 111.208-1.222l1.596 1.578c.409.405.635.944.636 1.518z" fill="#4C51CB"/></g><defs><clipPath id="clip0"><path fill="#fff" d="M0 0h22v22H0z"/></clipPath></defs></svg>