<svg width="22" height="22" fill="none" xmlns="http://www.w3.org/2000/svg"><g clip-path="url(#clip0)"><path d="M11.729 15.38l-5.111.003a.86.86 0 01-.001-1.719l5.11-.002h.001a.86.86 0 010 1.718zm-1.161 1.418l-3.951.003a.86.86 0 000 1.719l3.952-.003a.86.86 0 00-.001-1.719zm8.942-.16l-5.112 5.108-.004.004a.886.886 0 01-.058.052c-.005.005-.011.008-.016.012a.88.88 0 01-.052.039l-.014.008a.794.794 0 01-.058.035l-.01.005a.932.932 0 01-.066.031l-.006.002a.875.875 0 01-.073.026l-.006.002a.865.865 0 01-.075.019l-.018.002a1.002 1.002 0 01-.151.015L5.758 22a3.441 3.441 0 01-3.438-3.438V3.438A3.441 3.441 0 015.758 0h10.565a3.441 3.441 0 013.438 3.438v8.292a.86.86 0 01-1.718 0V3.439a1.72 1.72 0 00-1.72-1.72H5.758a1.72 1.72 0 00-1.719 1.72v15.124a1.72 1.72 0 001.719 1.72l7.173-.003v-2.1a3.011 3.011 0 013.008-3.009h2.964a.81.81 0 01.086.005c.012 0 .024.003.036.005l.047.007.043.01.038.01.043.015.037.014.04.018.036.018.038.023.034.02c.015.01.03.021.044.033a.856.856 0 01.144.138l.016.021c.012.016.023.03.034.047l.018.03.025.042.016.032.02.044c.005.01.008.02.012.031l.017.049.007.03c.005.017.01.034.013.051l.005.032.007.051c.002.015.002.03.002.045l.002.039-.002.037c0 .016 0 .031-.002.047l-.008.052-.004.03-.013.053-.008.03a.459.459 0 01-.017.048l-.01.03-.022.045-.015.032-.025.042-.018.03c-.01.017-.023.032-.035.047l-.015.021a1.028 1.028 0 01-.059.065zm-4.86 1.54v.887l2.178-2.176h-.889c-.71 0-1.289.579-1.289 1.29zm-.908-6.147H8.258a1.426 1.426 0 01-1.396-1.72 4.212 4.212 0 011.952-2.744 2.693 2.693 0 01-.521-1.594A2.71 2.71 0 0111 3.266a2.71 2.71 0 012.707 2.707c0 .595-.194 1.146-.521 1.594a4.212 4.212 0 011.952 2.743 1.427 1.427 0 01-1.396 1.721zm-3.73-6.058a.99.99 0 001.976 0 .99.99 0 00-1.976 0zm3.344 4.34a2.497 2.497 0 00-2.333-1.633h-.046a2.496 2.496 0 00-2.333 1.633h4.712z" fill="#4C51CC"/></g><defs><clipPath id="clip0"><path fill="#fff" d="M0 0h22v22H0z"/></clipPath></defs></svg>