<svg width="22" height="22" fill="none" xmlns="http://www.w3.org/2000/svg"><path d="M3.39 17.695a.903.903 0 00.193-1.263 9.12 9.12 0 01-1.775-5.43c0-5.07 4.124-9.193 9.192-9.193 5.068 0 9.192 4.124 9.192 9.192a9.12 9.12 0 01-1.775 5.431.903.903 0 101.457 1.069c3.14-4.28 2.825-10.355-1.097-14.277a10.992 10.992 0 00-15.554 0C-.7 7.146-1.014 13.221 2.126 17.501a.904.904 0 001.263.194z" fill="#4C51CC"/><path d="M12.376 11.903a3.201 3.201 0 003.198-3.197 3.201 3.201 0 00-3.198-3.198H9.164a.903.903 0 00-.903.903v3.686h-.932a.903.903 0 100 1.806h.932v.947h-.932a.903.903 0 000 1.807h.932v.932a.903.903 0 001.807 0v-.932h1.85a.903.903 0 000-1.807h-1.85v-.947h2.308zm1.391-3.197c0 .767-.624 1.39-1.39 1.39h-2.31v-2.78h2.31c.766 0 1.39.624 1.39 1.39zm7.328 11.486H.905a.903.903 0 000 1.806h20.19a.903.903 0 100-1.806z" fill="#4C51CC"/></svg>