<svg width="22" height="22" fill="none" xmlns="http://www.w3.org/2000/svg"><g clip-path="url(#clip0)"><path d="M15.189 10.773a11.154 11.154 0 00-.69-.252 5.839 5.839 0 002.344-4.677A5.85 5.85 0 0011 0a5.85 5.85 0 00-5.843 5.844c0 1.912.923 3.613 2.348 4.68a11.164 11.164 0 00-3.602 1.98A11.212 11.212 0 00.055 18.85 2.61 2.61 0 002.607 22H14.61a.86.86 0 000-1.719H2.607a.873.873 0 01-.687-.326.898.898 0 01-.182-.753c.892-4.287 4.675-7.418 9.043-7.519a5.873 5.873 0 00.439 0 9.397 9.397 0 013.324.684.86.86 0 00.645-1.594zm-8.314-4.93a4.13 4.13 0 014.124-4.124 4.13 4.13 0 014.125 4.125 4.13 4.13 0 01-3.927 4.12L11 9.962c-.068 0-.135 0-.201.002a4.13 4.13 0 01-3.924-4.12zM22 18.084v.21c0 1.213-.882 2.185-2.064 2.35v.498a.86.86 0 01-1.719 0v-.475c-1.163-.04-2.063-.95-2.063-2.104a.86.86 0 011.719 0c0 .255.213.387.425.387h1.28c.4 0 .703-.282.703-.655v-.211a.685.685 0 00-.703-.68h-.788c-1.333 0-2.417-1.1-2.417-2.45v-.313c0-.65.253-1.255.713-1.706.317-.309.706-.52 1.131-.621v-.583a.86.86 0 111.72 0v.553c1.001.184 1.762 1.044 1.762 2.074a.86.86 0 01-1.719 0c0-.246-.226-.392-.445-.392h-.745c-.398 0-.698.29-.698.675v.313c0 .396.32.73.698.73h.788c.645 0 1.25.246 1.706.692.461.452.716 1.059.716 1.708z" fill="#4C51CB"/></g><defs><clipPath id="clip0"><path fill="#fff" d="M0 0h22v22H0z"/></clipPath></defs></svg>