<svg width="22" height="22" fill="none" xmlns="http://www.w3.org/2000/svg"><g clip-path="url(#clip0)"><path d="M22.04 11.13v7.39a3.441 3.441 0 01-3.436 3.438H3.48A3.441 3.441 0 01.043 18.52V3.397A3.441 3.441 0 013.48-.041h9.839a.86.86 0 010 1.719H3.48a1.72 1.72 0 00-1.719 1.719V18.52a1.72 1.72 0 001.719 1.719h15.124a1.72 1.72 0 001.718-1.719v-7.39a.86.86 0 111.719 0zm-1.97-6.28a.85.85 0 010 1.213l-3.447 3.425a.86.86 0 001.212 1.219l3.446-3.425c.49-.487.76-1.135.76-1.825s-.27-1.338-.76-1.825L17.835.207a.86.86 0 10-1.212 1.22L20.07 4.85zm-1.853.566a.86.86 0 00-.86-.86 11.525 11.525 0 00-8.202 3.398 11.525 11.525 0 00-3.398 8.203v.645a.86.86 0 001.719 0v-.645c0-5.449 4.433-9.882 9.882-9.882a.86.86 0 00.859-.859z" fill="#4C51CB"/></g><defs><clipPath id="clip0"><path fill="#fff" d="M0 0h22v22H0z"/></clipPath></defs></svg>