<svg width="22" height="22" fill="none" xmlns="http://www.w3.org/2000/svg"><g clip-path="url(#clip0)"><path d="M13.963 6.275a.86.86 0 01-.86.859H10.14a.86.86 0 110-1.718h2.964a.86.86 0 01.86.859zM7.97 3.98a.86.86 0 00-1.197.208L5.546 5.93l-.64-.647a.86.86 0 00-1.22 1.21l.97.98.014.013a1.336 1.336 0 001.015.373 1.338 1.338 0 00.987-.543l1.506-2.138A.86.86 0 007.97 3.98zm5.133 6.636H10.14a.86.86 0 100 1.719h2.964a.86.86 0 000-1.719zM7.97 9.181a.86.86 0 00-1.197.208L5.546 11.13l-.64-.646a.86.86 0 10-1.22 1.21l.97.98.014.013a1.336 1.336 0 001.015.373 1.338 1.338 0 00.987-.543l1.506-2.139a.86.86 0 00-.208-1.197zM22 3.18v2.75a3.44 3.44 0 01-3.437 3.437h-1.12v4.897a.86.86 0 11-1.72 0V3.18c0-.51.124-.991.34-1.418H3.438a1.72 1.72 0 00-1.72 1.718v15.122a1.72 1.72 0 001.719 1.719h10.569a1.72 1.72 0 001.718-1.719.86.86 0 011.718 0 3.44 3.44 0 01-3.437 3.437H3.438A3.44 3.44 0 010 18.602V3.48A3.44 3.44 0 013.437.043h15.466l.04.002A3.14 3.14 0 0122 3.179zm-1.718 0a1.42 1.42 0 00-1.418-1.418h-.004a1.42 1.42 0 00-1.418 1.418v4.468h1.121a1.72 1.72 0 001.719-1.718V3.18zm-7.179 12.592H10.14a.86.86 0 100 1.72h2.964a.86.86 0 000-1.72zM7.97 14.336a.86.86 0 00-1.197.208l-1.227 1.742-.64-.646a.86.86 0 10-1.22 1.209l.97.98a1.336 1.336 0 001.028.386 1.338 1.338 0 00.988-.543l1.506-2.139a.859.859 0 00-.208-1.197z" fill="#4C51CB"/></g><defs><clipPath id="clip0"><path fill="#fff" d="M0 0h22v22H0z"/></clipPath></defs></svg>