<svg width="22" height="22" fill="none" xmlns="http://www.w3.org/2000/svg"><path d="M20.281 3.566h-5.199v-.988A2.581 2.581 0 0012.504 0H9.496a2.581 2.581 0 00-2.578 2.578v.988h-5.2a.86.86 0 100 1.72h.89l1.048 13.577.001.012A3.43 3.43 0 004.763 21.1a3.43 3.43 0 002.317.9h7.84c1.79 0 3.262-1.333 3.423-3.102a.86.86 0 10-1.712-.156 1.699 1.699 0 01-1.711 1.54H7.08a1.71 1.71 0 01-1.71-1.558L4.332 5.285h13.334l-.734 9.516a.86.86 0 001.714.132l.744-9.648h.89a.86.86 0 100-1.719zm-6.918 0H8.637v-.988a.86.86 0 01.86-.86h3.007a.86.86 0 01.86.86v.988z" fill="#4C51CB"/><path d="M7.095 7.005a.86.86 0 00-.82.896l.429 9.837a.86.86 0 101.717-.075l-.43-9.837a.86.86 0 00-.896-.82zm6.914.821l-.43 9.837a.86.86 0 001.717.075l.43-9.837a.86.86 0 00-1.717-.075zm-3.869.037V17.7a.86.86 0 101.72 0V7.863a.86.86 0 00-1.72 0z" fill="#4C51CB"/></svg>