<svg width="22" height="22" fill="none" xmlns="http://www.w3.org/2000/svg"><g clip-path="url(#clip0)"><path d="M21.945 18.851a.86.86 0 10-1.683.35.897.897 0 01-.182.753.873.873 0 01-.688.327H2.608a.873.873 0 01-.687-.327.898.898 0 01-.182-.752c.892-4.284 4.67-7.413 9.034-7.519a5.937 5.937 0 00.456 0 9.454 9.454 0 017.635 4.196.86.86 0 001.428-.957 11.179 11.179 0 00-5.793-4.4 5.839 5.839 0 002.345-4.678A5.85 5.85 0 0011 0a5.85 5.85 0 00-5.843 5.844 5.84 5.84 0 002.347 4.68 11.169 11.169 0 00-3.6 1.979 11.212 11.212 0 00-3.848 6.348A2.61 2.61 0 002.608 22h16.784a2.61 2.61 0 002.552-3.149zM6.875 5.844A4.13 4.13 0 0111 1.719a4.13 4.13 0 014.125 4.125 4.13 4.13 0 01-3.916 4.12 11.251 11.251 0 00-.417 0 4.13 4.13 0 01-3.917-4.12z" fill="#4C51CB"/></g><defs><clipPath id="clip0"><path fill="#fff" d="M0 0h22v22H0z"/></clipPath></defs></svg>