<svg width="22" height="22" fill="none" xmlns="http://www.w3.org/2000/svg"><path d="M15.145 9.453a.86.86 0 00-.86-.86H5.434a.86.86 0 100 1.72h8.851a.86.86 0 00.86-.86zm-9.711 2.578a.86.86 0 000 1.719h5.376a.86.86 0 100-1.719H5.434z" fill="#4C51CC"/><path d="M7.453 20.281H4.58a1.72 1.72 0 01-1.719-1.718V3.438a1.72 1.72 0 011.72-1.72h10.565a1.72 1.72 0 011.718 1.72v5.285a.86.86 0 001.72 0V3.437A3.441 3.441 0 0015.144 0H4.579a3.441 3.441 0 00-3.437 3.438v15.124A3.441 3.441 0 004.579 22h2.874a.86.86 0 100-1.719z" fill="#4C51CC"/><path d="M20.104 12.443a2.58 2.58 0 00-3.645-.001l-4.718 4.707a.86.86 0 00-.215.359l-1.028 3.383a.86.86 0 001.052 1.078l3.469-.961a.86.86 0 00.377-.22l4.709-4.7a2.581 2.581 0 000-3.646zm-5.762 6.969l-1.745.483.51-1.681 3.184-3.177 1.216 1.216-3.165 3.159zm4.548-4.54l-.167.167-1.215-1.216.166-.165a.86.86 0 011.216 1.215zm-4.605-9.716H5.434a.86.86 0 100 1.719h8.851a.86.86 0 000-1.719z" fill="#4C51CC"/></svg>